<?xml version="1.0" encoding="UTF-8" standalone="no"?>
<!-- Created with Inkscape (http://www.inkscape.org/) -->

<svg
   xmlns:dc="http://purl.org/dc/elements/1.1/"
   xmlns:cc="http://creativecommons.org/ns#"
   xmlns:rdf="http://www.w3.org/1999/02/22-rdf-syntax-ns#"
   xmlns:svg="http://www.w3.org/2000/svg"
   xmlns="http://www.w3.org/2000/svg"
   xmlns:xlink="http://www.w3.org/1999/xlink"
   xmlns:sodipodi="http://sodipodi.sourceforge.net/DTD/sodipodi-0.dtd"
   xmlns:inkscape="http://www.inkscape.org/namespaces/inkscape"
   width="150.63091"
   height="160"
   viewBox="0 0 39.854426 42.333332"
   version="1.1"
   id="svg4925"
   sodipodi:docname="magnesus-5.svg"
   inkscape:version="0.92.2 (5c3e80d, 2017-08-06)">
  <defs
     id="defs4919">
    <linearGradient
       id="linearGradient11148-0-9-3-4-9-8-7-2-8">
      <stop
         style="stop-color:#d2e3ff;stop-opacity:1;"
         offset="0"
         id="stop11150-30-4-8-6-8-4-9-6-1" />
      <stop
         style="stop-color:#5f92e9;stop-opacity:1;"
         offset="1"
         id="stop11152-4-5-2-8-3-9-8-5-2" />
    </linearGradient>
    <linearGradient
       id="linearGradient11850-8-9-6-8-0-3-0">
      <stop
         style="stop-color:#1d22c3;stop-opacity:1;"
         offset="0"
         id="stop11852-6-3-0-6-1-8-9" />
      <stop
         id="stop11858-7-9-7-7-3-4-27"
         offset="0.5"
         style="stop-color:#000000;stop-opacity:1;" />
      <stop
         style="stop-color:#000000;stop-opacity:1;"
         offset="1"
         id="stop11854-5-0-0-3-74-3-4" />
    </linearGradient>
    <linearGradient
       id="linearGradient21666-0">
      <stop
         style="stop-color:#ffbb6d;stop-opacity:1;"
         offset="0"
         id="stop21668-92" />
      <stop
         style="stop-color:#ff9317;stop-opacity:1;"
         offset="1"
         id="stop21670-1" />
    </linearGradient>
    <linearGradient
       id="linearGradient12616-5-0-2-4-9-0-4">
      <stop
         style="stop-color:#d0d0d0;stop-opacity:1;"
         offset="0"
         id="stop12618-9-2-4-4-0-3-46" />
      <stop
         id="stop12624-8-9-0-3-7-4-2"
         offset="0.5"
         style="stop-color:#ffffff;stop-opacity:1;" />
      <stop
         style="stop-color:#e7e7e7;stop-opacity:1;"
         offset="1"
         id="stop12620-4-0-0-29-5-6-5" />
    </linearGradient>
    <linearGradient
       id="linearGradient12362-3-7-3-6-7-2-7">
      <stop
         style="stop-color:#ffffff;stop-opacity:1;"
         offset="0"
         id="stop12364-8-2-0-4-6-2-9" />
      <stop
         style="stop-color:#000000;stop-opacity:1;"
         offset="1"
         id="stop12366-5-6-8-3-5-2-7" />
    </linearGradient>
    <linearGradient
       y2="237.25183"
       x2="114.9375"
       y1="222.75613"
       x1="108.50888"
       gradientUnits="userSpaceOnUse"
       id="linearGradient12199"
       xlink:href="#linearGradient12362-3-7-3-6-7-2-7"
       inkscape:collect="always"
       gradientTransform="translate(314.49023,231.50277)" />
    <linearGradient
       y2="237.25183"
       x2="114.9375"
       y1="222.75613"
       x1="108.50888"
       gradientUnits="userSpaceOnUse"
       id="linearGradient12419-3-4-9-5-2-9-5-9-9-2"
       xlink:href="#linearGradient12362-3-7-3-6-7-2-7"
       inkscape:collect="always"
       gradientTransform="matrix(0.76068376,0,0,0.76068376,339.12163,286.25223)" />
    <radialGradient
       r="27.6875"
       fy="473.17999"
       fx="-754.07178"
       cy="473.17999"
       cx="-754.07178"
       gradientTransform="matrix(-0.63822744,-0.4673251,-0.32172903,0.4393864,108.51196,-85.462819)"
       gradientUnits="userSpaceOnUse"
       id="radialGradient20158-2-5-6-37-9-1"
       xlink:href="#linearGradient11148-0-9-3-4-9-8-7-2-8"
       inkscape:collect="always" />
    <radialGradient
       r="27.6875"
       fy="496.95312"
       fx="785.3125"
       cy="496.95312"
       cx="785.3125"
       gradientTransform="matrix(0,1,-0.54458239,0,-556.78441,-7.6836095)"
       gradientUnits="userSpaceOnUse"
       id="radialGradient20154-6-8-2-3-08-33"
       xlink:href="#linearGradient11148-0-9-3-4-9-8-7-2-8"
       inkscape:collect="always" />
    <radialGradient
       r="27.6875"
       fy="496.95312"
       fx="785.3125"
       cy="496.95312"
       cx="785.3125"
       gradientTransform="matrix(1,0,0,0.54458239,-1195.1186,258.37635)"
       gradientUnits="userSpaceOnUse"
       id="radialGradient20150-0-6-22-4-1-7"
       xlink:href="#linearGradient11850-8-9-6-8-0-3-0"
       inkscape:collect="always" />
    <radialGradient
       inkscape:collect="always"
       xlink:href="#linearGradient21666-0"
       id="radialGradient21672-5-4-2-9"
       cx="1170.3839"
       cy="704.77814"
       fx="1170.3839"
       fy="704.77814"
       r="19.984375"
       gradientTransform="matrix(1,0,0,0.55174415,-1591.004,135.34668)"
       gradientUnits="userSpaceOnUse" />
    <radialGradient
       r="27.6875"
       fy="473.17999"
       fx="-754.07178"
       cy="473.17999"
       cx="-754.07178"
       gradientTransform="matrix(0.55319777,0.56541953,-0.38926194,0.38084789,1069.3975,735.93163)"
       gradientUnits="userSpaceOnUse"
       id="radialGradient22131-1-6-5"
       xlink:href="#linearGradient11148-0-9-3-4-9-8-7-2-8"
       inkscape:collect="always" />
    <radialGradient
       r="27.6875"
       fy="496.95312"
       fx="785.3125"
       cy="496.95312"
       cx="785.3125"
       gradientTransform="matrix(0.11971278,0.99280857,-0.54066606,0.06519347,-616.58721,119.60582)"
       gradientUnits="userSpaceOnUse"
       id="radialGradient8342-7"
       xlink:href="#linearGradient11148-0-9-3-4-9-8-7-2-8"
       inkscape:collect="always" />
    <radialGradient
       r="31.5"
       fy="334.9866"
       fx="211.42857"
       cy="334.9866"
       cx="211.42857"
       gradientUnits="userSpaceOnUse"
       id="radialGradient19181-9-0-7-6-0-71-2-2"
       xlink:href="#linearGradient11148-0-9-3-4-9-8-7-2-8"
       inkscape:collect="always"
       gradientTransform="matrix(0.84723017,0,0,0.63200164,269.70469,253.64559)" />
    <radialGradient
       r="26.64065"
       fy="697.34271"
       fx="1109.4993"
       cy="697.34271"
       cx="1109.4993"
       gradientTransform="matrix(1.0804846,0,0,0.71659809,-754.06571,-45.418979)"
       gradientUnits="userSpaceOnUse"
       id="radialGradient18379-6-5-5-3-9-1-82-59"
       xlink:href="#linearGradient11148-0-9-3-4-9-8-7-2-8"
       inkscape:collect="always" />
    <filter
       style="color-interpolation-filters:sRGB"
       inkscape:collect="always"
       id="filter12118-1-6-4-7-9-0-8-0-0-4-2"
       x="-0.063135378"
       width="1.1262708"
       y="-0.19508649"
       height="1.390173">
      <feGaussianBlur
         inkscape:collect="always"
         stdDeviation="1.0339357"
         id="feGaussianBlur12120-4-1-5-6-3-3-6-7-48-88-3" />
    </filter>
    <linearGradient
       y2="237.25183"
       x2="114.9375"
       y1="222.75613"
       x1="108.50888"
       gradientUnits="userSpaceOnUse"
       id="linearGradient12385-8-1-6-9-1-6-65-8-2-6"
       xlink:href="#linearGradient12362-3-7-3-6-7-2-7"
       inkscape:collect="always"
       gradientTransform="matrix(1.536329,0,0,1,300.61119,232.60361)" />
    <radialGradient
       inkscape:collect="always"
       xlink:href="#linearGradient11850-8-9-6-8-0-3-0"
       id="radialGradient11856-8-2-9-3-7-9-5-8-9-4-3"
       cx="136.94156"
       cy="212.96529"
       fx="136.94156"
       fy="212.96529"
       r="29.294645"
       gradientTransform="matrix(0.82837767,-1.0701526,1.2437403,1.1896436,61.178169,353.50169)"
       gradientUnits="userSpaceOnUse" />
    <linearGradient
       y2="237.25183"
       x2="114.9375"
       y1="222.75613"
       x1="108.50888"
       gradientUnits="userSpaceOnUse"
       id="linearGradient12487-6-8-6-3-2-0-9-4-5-23"
       xlink:href="#linearGradient12362-3-7-3-6-7-2-7"
       inkscape:collect="always"
       gradientTransform="matrix(1.1686605,0,0,0.76068376,342.79926,287.47807)" />
  </defs>
  <sodipodi:namedview
     id="base"
     pagecolor="#ffffff"
     bordercolor="#666666"
     borderopacity="1.0"
     inkscape:pageopacity="0.0"
     inkscape:pageshadow="2"
     inkscape:zoom="1.4296815"
     inkscape:cx="82.5131"
     inkscape:cy="232.73691"
     inkscape:document-units="mm"
     inkscape:current-layer="layer1"
     showgrid="false"
     inkscape:window-width="1600"
     inkscape:window-height="838"
     inkscape:window-x="0"
     inkscape:window-y="34"
     inkscape:window-maximized="1"
     fit-margin-top="0"
     fit-margin-left="0"
     fit-margin-right="0"
     fit-margin-bottom="0"
     units="px" />
  <metadata
     id="metadata4922">
    <rdf:RDF>
      <cc:Work
         rdf:about="">
        <dc:format>image/svg+xml</dc:format>
        <dc:type
           rdf:resource="http://purl.org/dc/dcmitype/StillImage" />
        <dc:title></dc:title>
      </cc:Work>
    </rdf:RDF>
  </metadata>
  <g
     inkscape:label="Ebene 1"
     inkscape:groupmode="layer"
     id="layer1"
     transform="translate(-107.8846,-154.83474)">
    <g
       transform="matrix(0.67212102,0,0,0.67212102,-175.0662,-142.97157)"
       id="g7347">
      <ellipse
         ry="7.4246211"
         rx="2.9168155"
         cy="460.79266"
         cx="425.77115"
         id="path12360-9-4-7-0-3-8-02-5-2-37"
         style="color:#000000;display:inline;overflow:visible;visibility:visible;fill:#000000;fill-opacity:1;fill-rule:nonzero;stroke:url(#linearGradient12199);stroke-width:1.5;stroke-linecap:butt;stroke-linejoin:round;stroke-miterlimit:4;stroke-dasharray:none;stroke-dashoffset:0;stroke-opacity:0.2;marker:none;enable-background:accumulate" />
      <ellipse
         ry="5.6477885"
         rx="2.2187741"
         cy="460.66931"
         cx="423.77121"
         id="path12360-8-7-0-6-5-6-3-01-4-5-0"
         style="color:#000000;display:inline;overflow:visible;visibility:visible;fill:#ffac4d;fill-opacity:1;fill-rule:nonzero;stroke:url(#linearGradient12419-3-4-9-5-2-9-5-9-9-2);stroke-width:1.14102566;stroke-linecap:butt;stroke-linejoin:round;stroke-miterlimit:4;stroke-dasharray:none;stroke-dashoffset:0;stroke-opacity:0.2;marker:none;enable-background:accumulate" />
      <ellipse
         ry="1.5178572"
         rx="1.5625"
         cy="468.39435"
         cx="426.45688"
         id="path22366-5-9-91"
         style="color:#000000;display:inline;overflow:visible;visibility:visible;fill:#050523;fill-opacity:1;fill-rule:nonzero;stroke:none;stroke-width:1.5;marker:none;enable-background:accumulate" />
      <path
         sodipodi:nodetypes="sssssss"
         style="color:#000000;display:inline;overflow:visible;visibility:visible;fill:url(#radialGradient20158-2-5-6-37-9-1);fill-opacity:1;fill-rule:nonzero;stroke:#000000;stroke-width:1;stroke-miterlimit:4;stroke-opacity:1;marker:none;enable-background:accumulate"
         d="m 438.94374,483.09239 c -1.30619,-0.83065 -2.26209,-1.63628 -3.57128,0.15169 l -3.90778,5.33687 c -1.30917,1.78794 -1.35853,3.96291 -0.11061,4.87667 1.24785,0.9137 3.30647,0.20995 4.61564,-1.57799 l 2.86342,-3.91057 c 1.30917,-1.78794 3.36118,-2.80953 0.11061,-4.87667 z"
         id="rect9407-0-1-9-7-7-3-5-1-4-24-1-2-1"
         inkscape:connector-curvature="0" />
      <path
         style="color:#000000;display:inline;overflow:visible;visibility:visible;fill:url(#radialGradient20154-6-8-2-3-08-33);fill-opacity:1;fill-rule:nonzero;stroke:#000000;stroke-width:1;stroke-miterlimit:4;stroke-opacity:1;marker:none;enable-background:accumulate"
         d="m 451.10134,501.52928 c 0,1.29047 -1.784,2.32937 -4,2.32937 h -4.8468 c -2.216,0 -4,-1.0389 -4,-2.32937 0,-1.29048 1.784,-2.32938 4,-2.32938 h 4.8468 c 2.216,0 4,1.0389 4,2.32938 z"
         id="rect9407-0-1-8-7-6-9-2-6-7-8-7-2-57"
         inkscape:connector-curvature="0" />
      <g
         transform="matrix(0.84835865,0,0,1,799.06873,-37.087109)"
         id="g22801-6-3-4">
        <path
           inkscape:connector-curvature="0"
           id="rect9407-4-1-8-1-1-6-9-5-1-0"
           d="m -420.9357,514.43866 h 22.964 c 4.432,0 8,3.568 8,8 v 8.46518 c 0,4.432 -3.7674,6.68548 -8,8 -7.6547,2.37734 -15.3093,2.85172 -22.964,0 -4.1532,-1.54724 -8,-3.568 -8,-8 v -8.46518 c 0,-4.432 3.568,-8 8,-8 z"
           style="color:#000000;display:inline;overflow:visible;visibility:visible;fill:url(#radialGradient20150-0-6-22-4-1-7);fill-opacity:1;fill-rule:nonzero;stroke:#000000;stroke-width:1;stroke-miterlimit:4;stroke-opacity:1;marker:none;enable-background:accumulate"
           sodipodi:nodetypes="sssssssss" />
        <path
           inkscape:connector-curvature="0"
           id="rect9407-4-1-8-1-1-8-1-7-42-7-7"
           d="m -420.9357,514.42633 h 22.964 c 4.432,0 8,2.84474 8,6.37833 v 6.74922 c 0,3.53359 -3.7674,5.33027 -8,6.37833 -7.6547,1.89543 -15.3093,2.27365 -22.964,0 -4.1532,-1.2336 -8,-2.84474 -8,-6.37833 v -6.74922 c 0,-3.53359 3.568,-6.37833 8,-6.37833 z"
           style="color:#000000;display:inline;overflow:visible;visibility:visible;fill:url(#radialGradient21672-5-4-2-9);fill-opacity:1;fill-rule:nonzero;stroke:#000000;stroke-width:1;stroke-miterlimit:4;stroke-opacity:1;marker:none;enable-background:accumulate"
           sodipodi:nodetypes="sssssssss" />
      </g>
      <path
         sodipodi:nodetypes="sssssss"
         style="color:#000000;display:inline;overflow:visible;visibility:visible;fill:url(#radialGradient22131-1-6-5);fill-opacity:1;fill-rule:nonzero;stroke:#000000;stroke-width:1;stroke-miterlimit:4;stroke-opacity:1;marker:none;enable-background:accumulate"
         d="m 459.69117,489.56144 c 1.00766,1.17504 1.94083,2.00688 0.35684,3.55664 l -4.72805,4.62585 c -1.58398,1.54974 -3.72991,1.90737 -4.81158,0.80181 -1.08159,-1.1055 -0.67723,-3.24317 0.90675,-4.79291 l 3.46446,-3.38958 c 1.58398,-1.54973 2.3039,-3.726 4.81158,-0.80181 z"
         id="rect9407-0-1-9-7-7-3-5-1-0-0-2-7-54-54"
         inkscape:connector-curvature="0" />
      <path
         style="color:#000000;display:inline;overflow:visible;visibility:visible;fill:url(#radialGradient8342-7);fill-opacity:1;fill-rule:nonzero;stroke:#000000;stroke-width:1;stroke-miterlimit:4;stroke-opacity:1;marker:none;enable-background:accumulate"
         d="m 464.49126,502.14666 c 0.15449,1.2812 -1.49231,2.5262 -3.69237,2.79148 l -4.81205,0.58024 c -2.20006,0.26528 -4.0956,-0.55258 -4.25009,-1.83378 -0.15448,-1.28119 1.49232,-2.52618 3.69238,-2.79147 l 4.81204,-0.58023 c 2.20007,-0.26529 4.09561,0.55257 4.25009,1.83376 z"
         id="rect9407-0-1-8-8-1-6-3-3-4-7-6-5-6-1"
         inkscape:connector-curvature="0" />
      <ellipse
         ry="18.960049"
         rx="25.416904"
         cy="467.17181"
         cx="451.85916"
         id="path10377-4-1-3-2-1-5-6-2-4-62-5"
         style="color:#000000;display:inline;overflow:visible;visibility:visible;fill:url(#radialGradient19181-9-0-7-6-0-71-2-2);fill-opacity:1;fill-rule:nonzero;stroke:#000000;stroke-width:1.3444066;stroke-miterlimit:4;stroke-dasharray:none;stroke-opacity:1;marker:none;enable-background:accumulate" />
      <path
         sodipodi:nodetypes="sccccsccsccccs"
         inkscape:connector-curvature="0"
         id="path21266-2-9-6-72-9-3-6-2-3-9-1-97-3"
         d="m 451.30963,443.92541 c -3.5326,0 -6.8814,0.43915 -10,1.21875 -0.032,-0.0999 -0.089,-0.21028 -0.125,-0.3125 -1.0646,0.28114 -2.1171,0.60657 -3.125,0.96875 0.048,0.0768 0.077,0.17729 0.125,0.25 -9.0031,3.1075 -15.1562,9.2982 -15.1562,16.4375 0,2.8277 0.9968,5.50785 2.7187,7.90625 25.73894,0.81847 34.09484,0.69653 51.125,0 1.7208,-2.3978 2.6563,-5.07955 2.6563,-7.90625 0,-7.2463 -6.3169,-13.53445 -15.5313,-16.59375 0.08,-0.13634 0.1439,-0.26328 0.2188,-0.40625 -1.0708,-0.35321 -2.1513,-0.67447 -3.2813,-0.9375 -0.061,0.15439 -0.1295,0.28843 -0.1875,0.4375 -2.9564,-0.6917 -6.1195,-1.0625 -9.4375,-1.0625 z"
         style="color:#000000;display:inline;overflow:visible;visibility:visible;fill:url(#radialGradient18379-6-5-5-3-9-1-82-59);fill-opacity:1;fill-rule:nonzero;stroke:#000000;stroke-width:1.5;stroke-linecap:butt;stroke-linejoin:round;stroke-miterlimit:4;stroke-dasharray:none;stroke-dashoffset:0;stroke-opacity:1;marker:none;enable-background:accumulate" />
      <path
         sodipodi:nodetypes="scssccs"
         id="rect12162-7-6-2-9-5-7-94-7-59-3"
         d="m 451.76243,443.60783 c -4.818,0 -9.3695,0.53116 -13.4218,1.46588 l -6.13064,14.8906 c -1.61527,3.9233 -5.74642,1.19317 0,0 15.71772,-3.2636 25.4765,-12.30135 25.4765,-12.30135 l 6.60714,-2.7837 c -3.8238,-0.8105 -8.0648,-1.27143 -12.5312,-1.27143 z"
         style="color:#000000;display:inline;overflow:visible;visibility:visible;opacity:0.50617281;fill:#c8ddff;fill-opacity:1;fill-rule:nonzero;stroke:#004ece;stroke-width:1.04695261;stroke-miterlimit:4;stroke-dasharray:none;stroke-opacity:0.2;marker:none;enable-background:accumulate"
         inkscape:connector-curvature="0" />
      <path
         transform="matrix(1.1948261,0,0,0.90919165,285.40953,252.49491)"
         inkscape:connector-curvature="0"
         id="rect11824-2-1-5-0-4-4-7-0-1-8-0-09"
         d="m 138.58927,223.61049 c -10.51286,0 -19.0988,2.51168 -19.62507,5.67305 -4.5e-4,0.003 4.6e-4,0.006 0,0.009 -0.0166,0.0517 -0.0268,0.10601 -0.0268,0.16307 v 0.13733 6.73727 c 6.05405,-0.41788 12.68865,-0.66085 19.65179,-0.66085 6.96313,0 13.59773,0.24297 19.65178,0.66085 v -6.73727 -0.13733 c 0,-0.057 -0.0101,-0.11141 -0.0268,-0.16307 -6.7e-4,-0.003 6.7e-4,-0.006 0,-0.009 -0.52626,-3.16137 -9.11221,-5.67305 -19.62506,-5.67305 z"
         style="color:#000000;display:inline;overflow:visible;visibility:visible;fill:#747474;fill-opacity:1;fill-rule:nonzero;stroke:none;stroke-width:3;marker:none;filter:url(#filter12118-1-6-4-7-9-0-8-0-0-4-2);enable-background:accumulate" />
      <path
         inkscape:connector-curvature="0"
         id="rect11824-2-9-5-6-6-0-2-4-3-9-9-2-61"
         d="m 448.34783,453.88742 c -6.8145,0.35098 -13.8088,0.94788 -20.0938,3.81381 -1.9989,0.89238 -4.116,2.48268 -4.1669,4.87472 -0.018,3.11556 0.012,6.24064 0,9.36011 10.3309,-0.63476 20.6828,-1.03008 31.0351,-0.85059 7.5829,0.0921 15.1669,0.33634 22.7331,0.85059 -0.044,-3.52549 0.1095,-7.05712 -0.1259,-10.57734 -1.3772,-2.88675 -4.5928,-4.01766 -7.4398,-4.99837 -4.6457,-1.51071 -9.5462,-2.02801 -14.4008,-2.35246 -2.5104,-0.11224 -5.0285,-0.22244 -7.5409,-0.12044 z"
         style="color:#000000;display:inline;overflow:visible;visibility:visible;opacity:0.13580244;fill:#747474;fill-opacity:1;fill-rule:nonzero;stroke:none;stroke-width:3;marker:none;enable-background:accumulate" />
      <ellipse
         ry="7.4246211"
         rx="4.4811883"
         cy="461.89349"
         cx="471.57529"
         id="path12360-7-2-7-4-8-9-2-9-2-3-1"
         style="color:#000000;display:inline;overflow:visible;visibility:visible;fill:#000000;fill-opacity:1;fill-rule:nonzero;stroke:url(#linearGradient12385-8-1-6-9-1-6-65-8-2-6);stroke-width:1.5;stroke-linecap:butt;stroke-linejoin:round;stroke-miterlimit:4;stroke-dasharray:none;stroke-dashoffset:0;stroke-opacity:0.2;marker:none;enable-background:accumulate" />
      <path
         inkscape:connector-curvature="0"
         id="rect11824-0-1-6-9-4-9-9-9-73-2-6"
         d="m 446.83043,454.79862 c -12.89829,0 -23.43236,3.42551 -24.07802,7.73709 -4.9e-4,0.003 5.9e-4,0.009 0,0.0123 -0.0206,0.0703 -0.0333,0.14457 -0.0333,0.2224 v 0.18728 9.18853 c 7.42769,-0.56993 15.56772,-0.90129 24.11079,-0.90129 8.54319,0 16.68312,0.33136 24.11081,0.90129 v -9.18853 -0.18728 c 0,-0.0778 -0.0127,-0.15195 -0.0333,-0.2224 -8.8e-4,-0.003 7.8e-4,-0.009 0,-0.0123 -0.64566,-4.31158 -11.17973,-7.73709 -24.07802,-7.73709 z"
         style="color:#000000;display:inline;overflow:visible;visibility:visible;fill:url(#radialGradient11856-8-2-9-3-7-9-5-8-9-4-3);fill-opacity:1;fill-rule:nonzero;stroke:#000000;stroke-width:0.65367776;stroke-miterlimit:4;stroke-dasharray:none;stroke-opacity:0.2;marker:none;enable-background:accumulate" />
      <ellipse
         ry="5.8376141"
         rx="25.182913"
         cy="459.34204"
         cx="449.7623"
         id="path12160-2-8-7-7-5-7-4-67-6-0-39"
         style="color:#000000;display:inline;overflow:visible;visibility:visible;opacity:0.13580244;fill:#ffffff;fill-opacity:1;fill-rule:nonzero;stroke:none;stroke-width:0.65563184;marker:none;enable-background:accumulate" />
      <ellipse
         ry="5.6477885"
         rx="3.408767"
         cy="461.89514"
         cx="472.84891"
         id="path12360-8-5-8-8-5-3-7-7-2-6-8-31"
         style="color:#000000;display:inline;overflow:visible;visibility:visible;fill:#ffac4d;fill-opacity:1;fill-rule:nonzero;stroke:url(#linearGradient12487-6-8-6-3-2-0-9-4-5-23);stroke-width:1.14102554;stroke-linecap:butt;stroke-linejoin:round;stroke-miterlimit:4;stroke-dasharray:none;stroke-dashoffset:0;stroke-opacity:0.2;marker:none;enable-background:accumulate" />
      <ellipse
         ry="1.6880509"
         rx="4.5447526"
         cy="523.70099"
         cx="348.22992"
         transform="rotate(-10.694993)"
         id="path20413-0-8-6-3-93-62"
         style="color:#000000;display:inline;overflow:visible;visibility:visible;fill:#ffffff;fill-opacity:1;fill-rule:nonzero;stroke:none;stroke-width:1.45432079;marker:none;enable-background:accumulate" />
      <ellipse
         ry="2.2321429"
         rx="2.0535715"
         cy="469.82294"
         cx="470.92123"
         id="path22366-9-0-82-4"
         style="color:#000000;display:inline;overflow:visible;visibility:visible;fill:#050523;fill-opacity:1;fill-rule:nonzero;stroke:none;stroke-width:2.08536315;marker:none;enable-background:accumulate" />
      <path
         sodipodi:nodetypes="ccccc"
         inkscape:connector-curvature="0"
         id="rect6311-0-9"
         d="m 435.6982,474.81664 h 13.71271 v 3.06704 c -4.69267,2.20594 -9.28098,2.52142 -13.71271,0 z"
         style="color:#000000;display:inline;overflow:visible;visibility:visible;fill:#ffffff;fill-opacity:1;fill-rule:nonzero;stroke:#10136f;stroke-width:1.04970515;stroke-linecap:butt;stroke-linejoin:round;stroke-miterlimit:4;stroke-dashoffset:0;stroke-opacity:1;marker:none;enable-background:accumulate" />
    </g>
  </g>
</svg>
