<?xml version="1.0" encoding="UTF-8" standalone="no"?>
<svg
   xmlns:dc="http://purl.org/dc/elements/1.1/"
   xmlns:cc="http://creativecommons.org/ns#"
   xmlns:rdf="http://www.w3.org/1999/02/22-rdf-syntax-ns#"
   xmlns:svg="http://www.w3.org/2000/svg"
   xmlns="http://www.w3.org/2000/svg"
   version="1.0"
   viewBox="0 0 574.77 948.73"
   id="svg1378">
  <defs
     id="defs48" />
  <g
     transform="translate(-22.728 -126.09)"
     id="layer1">
    <path
       d="m478.75 150.18c-8.375 0-15.159 6.4878-15.159 14.497 0 3.4255 1.2424 6.5527 3.3189 9.0342-39.761 11.715-100.82 59.499-113.1 69.313-5.9731-0.2749-11.998-0.52571-18.031-0.76303-10.457-12.187-42.501-47.174-75.282-58.997 0.72608-1.6948 1.1169-3.5489 1.1169-5.4938 0-8.0097-6.7836-14.497-15.159-14.497-8.375 0-15.159 6.4878-15.159 14.497 0 8.0097 6.7836 14.497 15.159 14.497 4.2518 0 8.0968-1.6686 10.85-4.3645l52.337 53.473c-58.194-1.5744-109.3-0.16554-103.08 10.133 16.154 26.759 1.8509 155.44 1.8509 155.44 7.8311 4.3241 33.052 7.4486 64.623 9.1563v10.469c-40.587-1.0772-74.172-3.9362-88.59-10.011 0 0-1.5001 18.089-3.6062 43.889l-21.541 3.2047 1.0212-19.137s-30.742-4.5616-68.038 6.3789c5.5408 37.094-27.764 194.11-27.764 194.11l84.569 9.431 9.0313-168.66 21.062-4.5781c-6.0936 74.925-15.392 190.84-16.116 210.29 32.718-3.5576 64.471-6.2145 94.653-8.088l-1.085 14.864c-11.9 1.3775-24.135 4.5503-35.296 10.713 0 0-9.2308 268.49-12.925 294.98 77.166-8.3156 108.95 0 108.95 0v-300.26s-16.278-5.067-37.689-6.1042l-0.31913-15.413c40.546-2.0518 77.72-2.6225 109.62-1.8312l-0.92547 14.772c-19.647 0.73014-35.232 2.93-35.232 2.93 11.11 49.289-2.0743 300.3-2.0743 300.3 48.02 1.7662 34.44-2.3216 101.67-9.9498-1.6387-30.039-5.6123-259.71 1.9467-284.39-11.818-6.234-29.564-8.544-46.944-9.0342l1.4999-13.918c48.886 2.2481 82.343 8.0467 92.068 16.573 0 0-7.1794-129.69 1.6276-212.3l11.776-0.12208c-1.5916 43.944 10.828 98.204 0.60634 182l28.498-1.3734-27.892 21.365 12.989 63.544 14.456-8.2712-5.7762-46.972 17.871-9.7667 19.914 10.896-5.7762 46.972 14.457 8.3017 12.989-63.544-30.86-23.593 31.626-1.4955c-20.967-88.267-10.18-210.2-10.18-210.2s-12.649-11.972-68.038-0.97667c-1.045 3.5918-1.899 7.2356-2.5849 10.926l-10.978-0.54938c2.9442-17.316 6.9439-30.868 12.35-38.151 17.203-2.9603-27.723-0.93193-89.866 0.88511v-13.063c19.13-2.8574 31.402-6.9058 31.402-12.269 19.59-32.45 42.455-155.43 3.67-150.13 0 0-40.563-3.1489-89.42-5.7074l3.2232-0.18312 91.813-68.184c2.6528 2.178 6.0906 3.5099 9.8611 3.5099 8.375 0 15.159-6.4878 15.159-14.497 0-8.0097-6.7836-14.497-15.159-14.497zm-71.708 264.43-0.82974 11.201c-35.132 0.90901-73.598 1.5849-109.05 1.2208l-1.3403-9.9803c37.255 1.1217 79.114 0.4577 111.22-2.4417zm-320.37 233.91-36.093 27.621 12.989 63.544 14.457-8.2712-5.7762-46.972 19.914-10.865 21.956 11.995-5.7762 46.972 14.457 8.3017 12.989-63.545-36.125-27.621-6.0315 7.325-6.957-8.4848zm470.27 16.664-0.28721 0.36625-0.28722-0.33573 0.57443-0.0305zm-184.78 338.54-28.594 62.69 126.63 4.7001-32.679-66.2-65.357-1.1903zm-142.97 6.8367-49.018 51.763 147.05 3.9066-32.679-54.693-65.357-0.9766z"
       style="fill-rule:evenodd;fill:#eeeeec;fill-opacity:.94118"
       id="path3714" />
    <path
       d="m179.24 231.85c-13.564-23.494 251.39-1.8086 251.39-1.8086 37.98-5.4257 15.566 120.5-3.6171 153.73 0 23.511-220.04 22.203-245.96 7.2342 0 0 14.01-131.76-1.8086-159.15z"
       style="fill-rule:evenodd;fill-opacity:.94118;stroke:#000000;stroke-linecap:round;stroke-width:7.5196;fill:#babdb6"
       id="rect1386" />
    <path
       d="m157.59 400.87c52.824 23.271 367.52 0.56876 326.69 7.9136-29.35 41.342-16.723 279.85-16.723 279.85-21.703-19.894-164.11-25.239-330.92-6.2726 1.0474-29.42 20.95-281.49 20.95-281.49z"
       style="fill-rule:evenodd;stroke:#000000;stroke-linecap:round;stroke-width:6.3916;fill:#bec1ba"
       id="rect2114" />
    <path
       d="m67.337 435.99c36.522-11.202 66.621-6.5104 66.621-6.5104l-11.003 214.94-82.808-9.6718s32.616-160.78 27.19-198.76z"
       style="fill-rule:evenodd;fill-opacity:.94118;stroke:#000000;stroke-linecap:round;stroke-width:7.5196;fill:#babdb6"
       id="rect2842" />
    <path
       d="m485.46 437.23c54.239-11.258 66.639 0.99494 66.639 0.99494s-10.571 124.84 9.9607 215.22l-80.793 4.0226c12.66-108.51-10.159-168.66 4.1928-220.23z"
       style="fill-rule:evenodd;fill-opacity:.94118;stroke:#000000;stroke-linecap:round;stroke-width:7.1805;fill:#babdb6"
       id="rect2844" />
    <path
       d="m193.71 700.27c39.932-23.055 94.045-5.4257 94.045-5.4257v307.46s-31.142-8.5144-106.71 0c3.6171-27.128 12.66-302.03 12.66-302.03z"
       style="fill-rule:evenodd;fill-opacity:.94118;stroke:#000000;stroke-linecap:round;stroke-width:7.52;fill:#babdb6"
       id="rect2846" />
    <path
       d="m421.91 695.17c-30.069-16.585-99.433-6.085-99.433-6.085 10.879 50.466-2.0384 307.45-2.0384 307.45 47.023 1.8086 33.703-2.3813 99.541-10.192-1.6047-30.757-5.4715-265.9 1.9304-291.17z"
       style="fill-rule:evenodd;fill-opacity:.94118;stroke:#000000;stroke-linecap:round;stroke-width:7.5196;fill:#babdb6"
       id="rect2848" />
    <path
       transform="matrix(.79607 0 0 .78811 459.06 16.031)"
       d="m-210.11 347.28c0 25.65-18.554 46.467-41.416 46.467s-41.416-20.817-41.416-46.467 26.168-52.876 49.03-52.876 33.803 27.226 33.803 52.876z"
       style="fill-rule:evenodd;fill-opacity:.94118;stroke:#000000;stroke-linecap:round;stroke-width:8.4;fill:#ffffff"
       id="path2858" />
    <path
       d="m244.35 385.58 20.204-0.95914 5.1154 40.747h-25.32v-39.788z"
       style="fill-rule:evenodd;fill-opacity:.78431;stroke:#000000;stroke-linecap:round;stroke-width:7.5196;fill:#eaeafb"
       id="rect2862" />
    <path
       d="m376.39 386.84 19.885-2.1737v46.118l-22.762-2.8774 2.8774-41.067z"
       style="fill-rule:evenodd;fill-opacity:.78431;stroke:#000000;stroke-linecap:round;stroke-width:7.5196;fill:#eaeafb"
       id="rect2864" />
    <path
       d="m358.83 654.78 19.885 4.1562-3.6171 35.267-19.145 8.8782 2.8774-48.301z"
       style="fill-rule:evenodd;fill-opacity:.78431;stroke:#000000;stroke-linecap:round;stroke-width:7.5196;fill:#eaeafb"
       id="path2868" />
    <path
       d="m230.42 658.4 19.885 4.1563 0.90428 43.405-23.666-6.4945 2.8774-41.067z"
       style="fill-rule:evenodd;fill-opacity:.78431;stroke:#000000;stroke-linecap:round;stroke-width:7.5196;fill:#eaeafb"
       id="path2870" />
    <path
       d="m497.02 449.12 8.3793 21.747-50.09 0.52851-3.4979-24.607 45.209 2.3316z"
       style="fill-rule:evenodd;fill-opacity:.78431;stroke:#000000;stroke-linecap:round;stroke-width:7.8863;fill:#eaeafb"
       id="path2872" />
    <path
       d="m160.81 444.76 0.34732 20.312-38.802 8.8052-2.2312-22.835 40.686-6.2822z"
       style="fill-rule:evenodd;fill-opacity:.78431;stroke:#000000;stroke-linecap:round;stroke-width:7.5196;fill:#eaeafb"
       id="path2874" />
    <path
       d="m339.51 282.85c2.3649-20.076 18.954-34.642 37.028-32.512 18.075 2.1291 30.825 20.151 28.46 40.227-2.3649 20.076-25.564 38.949-43.638 36.819-18.075-2.1291-24.215-24.458-21.85-44.534z"
       style="fill-rule:evenodd;fill-opacity:.94118;stroke:#000000;stroke-linecap:round;stroke-width:6.6535;fill:#ffffff"
       id="path2551" />
    <path
       d="m360.54 478.64c1.4635-12.524 11.729-21.611 22.914-20.283 11.185 1.3283 19.075 12.571 17.612 25.096-1.4635 12.524-15.82 24.298-27.005 22.97-11.185-1.3283-14.985-15.258-13.521-27.782z"
       style="fill-rule:evenodd;fill-opacity:.94118;stroke:#000000;stroke-linecap:round;stroke-width:6.6535;fill:#4e9a06"
       id="path2553" />
    <path
       d="m378.54 471.73c0.59813-5.275 4.7938-9.1021 9.3652-8.5427 4.5715 0.55944 7.7962 5.2946 7.1981 10.57-0.59813 5.275-6.4656 10.234-11.037 9.6744-4.5715-0.55944-6.1244-6.4263-5.5262-11.701z"
       style="fill-rule:evenodd;fill:#ffffff;fill-opacity:.94118"
       id="path2555" />
    <path
       transform="translate(36.388 217.16)"
       d="m61.619 411.1 17.173 1.0102 9.0914-141.42s-18.183 139.4-26.264 140.41z"
       style="fill-rule:evenodd;fill:#ffffff;fill-opacity:.75"
       id="path3327" />
    <path
       transform="translate(36.388 217.16)"
       d="m501.04 237.36c0 15.152-2.0203 186.88-10.102 186.88h22.223s-13.132-181.83-12.122-186.88z"
       style="fill-rule:evenodd;fill:#eff0ee"
       id="path3329" />
    <path
       d="m375.8 646.44 69.701 19.193 9.0914-88.893s-6.0609 45.457-25.254 59.599-58.589 11.112-53.538 10.102z"
       style="fill-rule:evenodd;fill:#ffffff;fill-opacity:.75"
       id="path3331" />
    <path
       transform="translate(36.388 217.16)"
       d="m366.69 163.61c4.0406-8.0812 33.335-143.44 32.325-132.33-1.1924 13.117 4.0406 121.22-16.162 127.28-20.203 6.0609-18.183 7.0711-16.162 5.0508z"
       style="fill-rule:evenodd;fill:#ffffff;fill-opacity:.75"
       id="path3333" />
    <path
       d="m256.6 985.85 17.173 1.0102 7.0711-286.88s-16.162 284.86-24.244 285.87z"
       style="fill-rule:evenodd;fill:#ffffff;fill-opacity:.75"
       id="path3337" />
    <path
       d="m388.93 980.8 26.264 0.00001-7.0711-283.85s-11.112 282.84-19.193 283.85z"
       style="fill-rule:evenodd;fill:#ffffff;fill-opacity:.75"
       id="path3339" />
    <path
       d="m338.5 348.97 1.2651 27.262-53.747 6.9023v-34.165h52.482z"
       style="fill-rule:evenodd;fill-opacity:.78431;stroke:#000000;stroke-linecap:round;stroke-width:7.5196;fill:#ffffff"
       id="path3343" />
    <path
       transform="translate(36.388 217.16)"
       d="m250.67 141.9 49.154 4.5c0.0957 0 0.17283 0.0771 0.17283 0.17284v8.1543c0 0.0958-0.0771 0.17283-0.17283 0.17283h-47.654c-0.0958 0 0.32717 2.4229 0.32717 2.3272l-0.5-10.65c0-0.0958-1.4229-4.6728-1.3272-4.6728z"
       style="fill:#000000"
       id="rect3345" />
    <path
       transform="translate(36.388 217.16)"
       d="m 240,60.898743 a 14.5,19 0 0 1 -14.5,19 14.5,19 0 0 1 -14.5,-19 14.5,19 0 0 1 14.5,-19 14.5,19 0 0 1 14.5,19 z"
       style="fill:#000000"
       id="path3348" />
    <path
       transform="translate(146.39 217.16)"
       d="m 240,60.898743 a 14.5,19 0 0 1 -14.5,19 14.5,19 0 0 1 -14.5,-19 14.5,19 0 0 1 14.5,-19 14.5,19 0 0 1 14.5,19 z"
       style="fill:#000000"
       id="path3350" />
    <path
       transform="translate(36.388 217.16)"
       d="m185.26-58.215c42.426 8.4853 87.681 67.882 87.681 67.882l-25.45-1.4141-62.23-66.468z"
       style="fill-rule:evenodd;stroke:#000000;stroke-width:1px;fill:#000000"
       id="path3352" />
    <path
       transform="translate(56.388 283.16)"
       d="m 176.7767,-126.80454 a 14.849242,14.849242 0 0 1 -14.84924,14.84924 14.849242,14.849242 0 0 1 -14.84924,-14.84924 14.849242,14.849242 0 0 1 14.84924,-14.84924 14.849242,14.849242 0 0 1 14.84924,14.84924 z"
       style="stroke:#000000;stroke-width:4;fill:#000000"
       id="path3354" />
    <path
       d="m440.97 150.46c-42.426 8.4853-120.21 74.953-120.21 74.953l25.456-1.4142 94.752-73.539z"
       style="fill-rule:evenodd;stroke:#000000;stroke-width:1px;fill:#000000"
       id="path3356" />
    <path
       transform="matrix(-1 0 0 1 607.7 269.74)"
       d="m 176.7767,-126.80454 a 14.849242,14.849242 0 0 1 -14.84924,14.84924 14.849242,14.849242 0 0 1 -14.84924,-14.84924 14.849242,14.849242 0 0 1 14.84924,-14.84924 14.849242,14.849242 0 0 1 14.84924,14.84924 z"
       style="stroke:#000000;stroke-width:4;fill:#000000"
       id="path3358" />
    <path
       d="m25.456 512.27-35.356 28.29 12.728 65.05 14.143-8.49-5.657-48.08 29.698-16.97-15.556-19.8z"
       transform="translate(36.387 126.09)"
       style="stroke:#000000;stroke-width:7.52;fill:#2e3436"
       id="path2901" />
    <path
       d="m74.571 639.53 35.355 28.284-12.728 65.054-14.142-8.4853 5.6569-48.083-29.698-16.971 15.556-19.799z"
       style="stroke:#000000;stroke-width:7.52;fill:#2e3436"
       id="path3675" />
    <path
       d="m517.22 649.67-35.355 28.284 12.728 65.054 14.142-8.4853-5.6569-48.083 29.698-16.971-15.556-19.799z"
       style="stroke:#000000;stroke-width:7.52;fill:#2e3436"
       id="path3677" />
    <path
       d="m525.95 650.84 35.355 28.284-12.728 65.054-14.142-8.4853 5.6569-48.083-29.698-16.971 15.556-19.799z"
       style="stroke:#000000;stroke-width:7.52;fill:#2e3436"
       id="path3679" />
    <path
       d="m201.39 1009.1 64 1 32 56-144-4 48-53z"
       style="stroke-linejoin:round;stroke:#000000;stroke-linecap:round;stroke-width:7.52;fill:#2e3436"
       id="rect3681" />
    <path
       d="m341.39 1002.1 64 1.2105 32 67.79-124-4.8421 28-64.158z"
       style="stroke-linejoin:round;stroke:#000000;stroke-linecap:round;stroke-width:7.52;fill:#2e3436"
       id="path3686" />
    <path
       d="m226.98 894.11 24.749 38.891-26.163-0.70711-12.021-37.477 13.435-0.70711z"
       transform="translate(36.387 126.09)"
       style="fill:#eff0ee"
       id="path3688" />
    <path
       d="m400.55 1008.2 24.749 55.154-23.335-0.7071-8.4853-53.74 7.0711-0.7071z"
       style="fill:#eff0ee"
       id="path3690" />
    <path
       d="m165 633.97 26-12"
       transform="translate(36.387 126.09)"
       style="stroke:#000000;stroke-width:6;fill:none"
       id="path3694" />
    <path
       d="m209.39 737.05 11 36"
       style="stroke:#000000;stroke-width:6;fill:none"
       id="path3696" />
  </g>
  <metadata
     id="metadata45">
    <rdf:RDF>
      <cc:Work>
        <dc:format>image/svg+xml</dc:format>
        <dc:type
           rdf:resource="http://purl.org/dc/dcmitype/StillImage" />
        <cc:license
           rdf:resource="http://creativecommons.org/licenses/publicdomain/" />
        <dc:publisher>
          <cc:Agent
             rdf:about="http://openclipart.org/">
            <dc:title>Openclipart</dc:title>
          </cc:Agent>
        </dc:publisher>
        <dc:title></dc:title>
        <dc:date>2010-05-15T21:02:34</dc:date>
        <dc:description>cartoon robot base in blue robot of mcol</dc:description>
        <dc:source>https://openclipart.org/detail/60415/cartoon-robot-by-rg1024</dc:source>
        <dc:creator>
          <cc:Agent>
            <dc:title>rg1024</dc:title>
          </cc:Agent>
        </dc:creator>
        <dc:subject>
          <rdf:Bag>
            <rdf:li>cartoon</rdf:li>
            <rdf:li>comic</rdf:li>
            <rdf:li>robot</rdf:li>
          </rdf:Bag>
        </dc:subject>
      </cc:Work>
      <cc:License
         rdf:about="http://creativecommons.org/licenses/publicdomain/">
        <cc:permits
           rdf:resource="http://creativecommons.org/ns#Reproduction" />
        <cc:permits
           rdf:resource="http://creativecommons.org/ns#Distribution" />
        <cc:permits
           rdf:resource="http://creativecommons.org/ns#DerivativeWorks" />
      </cc:License>
    </rdf:RDF>
  </metadata>
</svg>
