<?xml version="1.0" encoding="UTF-8" standalone="no"?>
<svg
   xmlns:dc="http://purl.org/dc/elements/1.1/"
   xmlns:cc="http://creativecommons.org/ns#"
   xmlns:rdf="http://www.w3.org/1999/02/22-rdf-syntax-ns#"
   xmlns:svg="http://www.w3.org/2000/svg"
   xmlns="http://www.w3.org/2000/svg"
   height="160"
   width="109.30321"
   version="1.1"
   viewBox="0 0 109.3032 159.99999"
   id="svg2">
  <defs
     id="defs117" />
  <title
     id="title4055">robot</title>
  <g
     transform="translate(-150.51215,-497.2229)"
     id="layer2">
    <g
       id="g12113">
      <path
         id="path3874"
         style="fill:#000000"
         d="m 292.71289,145.51562 c -14.08887,0.50318 -31.53834,2.60516 -46.66211,4.96876 -14.85979,2.32234 -26.91386,4.7295 -32.33984,6.56054 -3.2051,0.56476 -6.40914,1.70237 -8.99219,4.0293 -6.64373,5.98496 -8.08149,12.23294 -8.32813,15.5039 l -0.56054,0.4668 c -0.57174,0.32797 -1.15859,0.64914 -1.64258,1.0293 -1.782,1.39969 -3.39935,2.90195 -4.86719,4.45703 l 0.33008,-0.30859 -1.96875,1.625 a 3.6425211,3.6425211 0 0 0 -1.2832,2.30468 c -7.0532,9.31776 -9.81835,20.72303 -9.84375,32.84961 -1.16254,-0.73848 -3.02997,-0.93119 -4.16407,-0.46289 -3.70531,1.53002 -5.76064,4.76725 -7.62109,8.19532 -1.78709,3.29289 -3.16293,6.92735 -4.14258,10.08007 -0.65562,0.99616 -1.09056,2.03954 -1.38672,3.26953 -0.59955,2.4901 -1.87225,8.14988 -2.88085,13.8086 -0.50431,2.82936 -0.9419,5.64666 -1.19141,8.11328 -0.24951,2.46662 -0.47627,4.3377 0.0898,6.50781 0.59343,2.27482 1.49062,4.98413 3.03907,7.45508 1.42168,2.26867 3.72325,4.52415 6.92187,5.07227 -7.98498,25.79169 -6.78629,54.02572 -7.42187,79.42968 -0.0446,1.78172 0.64007,3.29688 1.77929,4.46875 0.009,0.009 0.0244,0.0126 0.0332,0.0215 -0.26415,1.17711 -0.40821,2.40402 -0.40821,3.66406 0,0.8286 0.11917,1.62354 0.23633,2.41797 -1.00275,0.3104 -2.09932,0.50384 -3.01562,0.92383 -0.30997,0.10659 -0.62766,0.20311 -0.90626,0.34375 -0.67157,0.339 -1.09847,0.69054 -1.43164,0.97265 l 0.42774,-0.3125 c 0.13668,-0.0851 -0.0383,-0.0154 -0.50195,0.30078 l 0.15234,0.0508 a 3.6425211,3.6425211 0 0 0 -0.7207,0.58789 c -2.36177,2.50841 -3.02589,5.69303 -3.44532,9.14648 -0.41942,3.45345 -0.38238,7.26233 -0.10742,10.9375 0.27496,3.67517 0.7936,7.19311 1.42774,10.03516 0.31707,1.42102 0.65636,2.66459 1.05859,3.7539 0.40223,1.08932 0.46033,1.99581 2.10547,3.27735 3.79432,2.95573 8.52752,10.31941 12.61328,18.85547 4.08576,8.53605 7.74245,18.24078 10.5332,26.16796 1.06576,3.02729 3.24551,5.98466 5.60547,8.93164 2.35997,2.94699 4.6646,5.49943 6.73828,7.05469 1.01569,0.76176 2.10976,1.31447 3.22266,1.78125 -2.56778,1.94723 -4.33594,4.8995 -4.33594,8.33594 0,3.05131 1.34959,5.79399 3.44922,7.74219 0.12555,0.40574 0.16222,0.84313 0.3457,1.2207 -0.36605,1.0446 -0.57617,2.16748 -0.57617,3.34961 l 0.0176,-0.36328 c -0.653,6.53006 -2.32255,12.09859 -4.24023,20.85156 -2.76744,0.88205 -4.83358,2.87435 -6.22266,4.93164 -1.66319,2.46327 -2.65029,5.13722 -3.26172,7.31446 -0.94606,3.36882 -0.86455,6.56179 0.27148,9.22851 1.13604,2.66672 3.28552,4.63523 5.70508,5.73438 4.83912,2.19828 10.74207,1.49351 15.58789,-1.68165 0.89929,-0.58924 1.56226,-1.3703 2.26953,-2.11523 0.59413,2.08183 1.56262,3.96327 3.00391,5.23047 3.94395,3.46758 9.27236,4.236 13.46289,1.51758 2.95326,-1.91579 5.21215,-5.09419 7.23828,-8.44141 1.01827,0.30079 2.02559,0.30173 3.05274,0.33203 2.39561,4.18966 5.24628,8.02186 8.93359,11.07813 a 3.6425211,3.6425211 0 0 0 0.53906,0.36914 c 1.08028,0.60765 2.27033,0.85795 3.45899,0.95508 1.19244,0.98511 2.49418,1.83354 3.92969,2.46484 -5.81476,9.24602 -11.72691,19.61038 -14.34766,31.49609 -2.09375,9.49565 -4.41152,19.71451 -5.52344,27.875 -0.55596,4.08025 -0.84082,7.60728 -0.52734,10.60547 0.15674,1.4991 0.42816,2.89857 1.21679,4.29297 0.56256,0.99466 1.66403,1.83145 2.89454,2.39844 -0.76634,2.64487 -0.80195,5.25175 -0.5586,7.32031 0.27887,2.37035 0.79308,5.2091 1.95899,7.85547 0.58295,1.32319 1.33206,2.62429 2.48633,3.75586 1.15426,1.13157 2.84853,2.06517 4.74218,2.19141 0.0888,0.006 0.29418,0.009 0.39844,0.0156 3.11671,5.62744 9.29535,10.8069 19.22852,10.26758 7.54791,-0.40981 18.15097,-0.47915 27.43554,-0.66211 4.64229,-0.0915 8.95704,-0.21181 12.46875,-0.42578 3.51171,-0.21398 5.85363,-0.27794 8.1875,-1.18555 1.78495,-0.69414 5.16932,-1.28961 8.37891,-3.63867 3.20959,-2.34906 5.6726,-6.72162 5.8164,-13.04883 0.15883,-6.98831 -3.64272,-13.21808 -8.5,-17.79101 -4.85727,-4.57294 -10.84536,-7.73617 -16.75781,-7.9004 -4.33734,-0.12047 -10.65135,-0.53271 -16.85547,-0.63085 0.15475,-3.58377 0.24738,-7.62769 0.10157,-13.95313 -0.18369,-7.96879 -0.56265,-17.52015 -1.05664,-26.875 -0.494,-9.35485 -1.10353,-18.50568 -1.75586,-25.6875 -0.32617,-3.59091 -0.66098,-6.68394 -1.00782,-9.11133 -0.34684,-2.42738 -0.37336,-3.76259 -1.33593,-5.67578 -1.03151,-2.05019 -2.09955,-3.62068 -3.58789,-4.79297 -0.68547,-0.5399 -1.53903,-0.91631 -2.41602,-1.16601 -0.45873,-0.78346 -0.94468,-1.53084 -1.51563,-2.22657 0.74652,-1.4748 1.56344,-3.03726 2.09376,-4.23046 1.60724,-3.6163 0.94453,-7.31485 0.0742,-12.05664 -0.87031,-4.7418 -2.3711,-10.28855 -4.13281,-16.03321 -2.90138,-9.46096 -6.3052,-18.7993 -8.97461,-26.04101 5.88831,-0.88614 10.75613,-4.55501 13.70313,-9.53125 3.85256,1.64076 7.75941,2.92079 11.65625,3.1914 3.55021,0.24653 7.87765,-0.53283 12.01757,-1.72461 2.11126,1.42602 4.18639,2.65584 6.2793,3.41992 2.08363,0.76071 4.34139,1.11616 6.54492,0.625 2.11692,0.80147 4.339,1.34871 6.67969,1.21485 3.09885,-0.17723 5.80816,-1.51856 8.3125,-3.45117 -0.13809,1.21254 -0.2648,2.34112 -0.44922,3.90429 -0.55149,4.67467 -1.27069,10.68531 -1.9414,16.75 -0.67072,6.0647 -1.29362,12.17693 -1.64844,17.11133 -0.17741,2.4672 -0.28926,4.63478 -0.30274,6.41211 -0.0135,1.77733 -0.19023,2.80978 0.50586,4.66602 0.84892,2.26376 1.65927,4.96315 3.19532,7.62109 1.25117,2.16501 3.16254,4.26868 5.77734,5.73438 1.36929,5.30859 5.13267,9.6644 10.10742,11.66015 -4.67721,6.58422 -9.00079,12.06486 -10.20898,13.67578 -2.52093,3.36123 -5.72897,8.66578 -6.03711,15.13672 -0.0901,1.89198 -1.29113,10.06084 -2.46485,17.97656 -1.17371,7.91573 -2.35156,15.56608 -2.35156,19.57227 0,2.32634 0.52458,4.31574 1.44531,6.05273 -0.74843,0.57042 -1.47781,1.22684 -1.9707,2.2168 -0.55196,1.10863 -0.72533,2.59514 -0.36523,3.85547 0.77456,2.71097 1.44541,4.90651 2.56054,6.93164 1.11514,2.02514 2.78667,3.77916 4.88086,5.03516 a 3.6425211,3.6425211 0 0 0 1.3125,0.47656 c 4.89297,0.76114 14.62939,1.27726 24.35938,1.35547 4.86499,0.0391 9.67426,-0.0411 13.77344,-0.29492 4.09918,-0.2538 7.29638,-0.545 9.88867,-1.48633 a 3.6425211,3.6425211 0 0 0 0.79687,-0.40625 c 0.27243,-0.18409 0.52471,-0.3824 0.78711,-0.56445 1.34561,-0.001 2.64254,-0.213 3.88086,-0.56641 0.32224,0.44492 0.53578,0.9968 0.91406,1.39844 1.15974,1.23133 2.85911,2.44262 5.09571,2.38671 9.62459,-0.24061 37.87019,1.10674 44.63281,1.97266 5.57566,0.71394 10.04254,-0.85541 12.81445,-3.61523 2.77192,-2.75982 3.92743,-6.12338 4.95313,-8.78125 2.84045,-7.36038 1.31036,-16.68157 -4.76172,-22.19532 -7.42002,-6.73775 -16.69313,-8.76276 -25.92969,-8.92773 -9.23655,-0.16497 -18.67746,1.41136 -27.34375,2.18555 -2.30103,0.20555 -5.86233,0.83058 -9.26562,2.02929 -1.70165,0.59936 -3.35006,1.31565 -4.83594,2.42383 -0.81845,0.6104 -1.64522,1.46309 -2.24805,2.51172 -0.23647,0.0353 -0.46608,0.0841 -0.69922,0.13086 -1.37371,-0.9685 -2.84327,-1.32793 -4.32031,-1.57031 2.1852,-2.25784 4.1517,-5.06219 4.41992,-8.69336 1.47232,-19.9322 -0.73019,-54.18943 -4.08203,-80.53906 -0.53098,-4.17423 -3.7364,-7.13375 -7.58984,-7.42579 -0.42605,-0.0323 -0.87723,0.14749 -1.32227,0.20313 3.17081,-11.0572 4.83347,-23.95035 5.57422,-35.66992 0.5108,-8.08141 0.57073,-15.54611 0.31641,-21.35938 -0.12717,-2.90663 -0.32948,-5.39375 -0.61328,-7.40234 -0.28381,-2.0086 -0.29,-3.26693 -1.48243,-5.11328 -1.35066,-2.09137 -2.4219,-4.15509 -3.91015,-5.9668 -0.74413,-0.90585 -1.62476,-1.85396 -3.1211,-2.44531 -1.49633,-0.59135 -3.57489,-0.37396 -4.95312,0.42773 -0.86145,0.50109 -1.63445,1.13418 -2.44336,1.71289 -0.43201,-0.23242 -0.83859,-0.49959 -1.28906,-0.69922 1.44428,-5.33044 2.51525,-11.07585 2.98047,-16.2246 0.283,-3.13216 0.38714,-5.98371 0.27929,-8.35743 -0.0539,-1.18685 -0.15629,-2.25038 -0.35547,-3.24804 -0.19918,-0.99766 -0.35432,-1.93021 -1.30859,-3.12305 -1.26567,-1.58209 -1.9641,-1.38305 -2.56055,-1.53516 -0.59645,-0.15211 -1.15052,-0.23269 -1.7832,-0.30468 -0.23022,-0.0262 -0.59707,-0.0286 -0.8457,-0.0508 l 0.22851,-3.12304 c 3.45635,-1.21853 6.18729,-3.37948 8.02735,-5.90235 2.32113,-3.18245 3.4226,-6.7898 3.82812,-10.00976 1.69483,-13.45746 2.57863,-29.62019 3.05469,-43.50586 1.53474,-2.86139 2.96313,-5.84844 4.14648,-8.99219 0.33161,0.91097 0.80994,2.10884 1.09766,2.92969 0.64149,1.83015 1.16209,3.41642 1.50586,4.59375 0.34377,1.17733 0.43945,2.26102 0.43945,1.67578 0,1.80297 0.75532,3.86802 2.22656,5.08594 -0.26453,1.1844 -0.44531,2.4024 -0.44531,3.66406 0,4.7489 2.0013,9.03121 5.17188,12.07617 a 3.6425211,3.6425211 0 0 0 -0.42774,1.07031 c -0.82325,3.70464 -0.99879,7.91097 -0.59765,11.81055 0.40113,3.89958 1.06321,7.47145 3.65625,10.22656 2.09143,2.22215 14.81256,15.06755 25.13476,22.57422 3.83209,2.78684 8.59549,7.91162 12.94531,12.51172 2.17492,2.30005 4.26114,4.47292 6.2461,6.23828 1.98496,1.76536 3.66212,3.26605 6.3125,3.83399 0.42787,0.0917 0.99599,0.2136 1.5,0.32226 0.29058,0.45433 0.58448,0.8873 0.9375,1.28907 -0.59794,3.892 -0.0466,8.27539 0.80664,12.55664 0.51237,2.5709 1.16594,4.99078 1.95703,7.02343 0.39555,1.01633 0.8171,1.93335 1.36523,2.79688 0.54814,0.86353 1.13052,1.80411 2.68164,2.47851 0.68282,0.29688 1.45981,0.49471 2.18165,0.75977 0.42356,4.34342 1.89538,8.33365 4.10351,11.46875 2.65699,3.77237 6.53705,6.71639 11.19336,6.24219 6.6431,-0.67655 11.75976,-1.45522 18.51367,-2.28907 2.88223,-0.35585 4.88423,-2.50406 5.95899,-4.5996 1.07476,-2.09555 1.58089,-4.42024 1.81445,-6.81641 0.46712,-4.79234 0.16307,-9.67934 -2.4375,-13.45313 a 3.6425211,3.6425211 0 0 0 -0.42773,-0.51172 c -6.23039,-6.21449 -14.673,-7.76104 -22.43164,-6.07031 -0.6831,-1.37047 -1.4579,-2.64808 -2.22657,-3.85937 -1.34617,-2.12133 -2.57698,-4.1289 -3.1914,-5.96289 1.68222,1.11135 3.59965,1.89453 5.74609,1.89453 3.12652,0 5.91653,-1.41497 7.85938,-3.59375 1.96062,0.55781 4.05599,0.95192 6.375,1.12305 1.8136,0.13383 3.62747,0.1375 5.36718,-0.12305 0.53608,-0.0803 1.07905,-0.25092 1.6211,-0.38867 0.42991,0.84459 0.59322,1.29033 1.13281,2.23437 1.42478,2.49275 2.88459,5.05687 5.42969,6.87891 2.76529,1.97967 6.06666,2.49471 9.2539,2.38672 3.18724,-0.108 6.31881,-0.86414 8.9375,-2.51758 3.0816,-1.94572 4.13035,-5.52936 4.08203,-8.39063 -0.0435,-2.57477 -0.70324,-4.92137 -1.36328,-6.96679 2.16501,-5.07303 2.29497,-11.01837 -0.0937,-16.03711 -2.39098,-5.02351 -7.37179,-7.87991 -12.36523,-9.61328 -2.74226,-0.95192 -5.50512,-1.53906 -8.14063,-1.78321 0.728,-2.99556 0.78761,-6.34021 -0.58984,-9.77148 -0.57028,-1.42057 -1.34663,-2.49718 -2.52734,-4.03906 -1.18072,-1.54189 -2.69867,-3.27934 -4.48047,-4.9004 -1.7818,-1.62105 -3.81222,-3.13965 -6.17383,-4.13867 -2.36162,-0.99901 -5.25069,-1.46107 -8.04297,-0.41211 -2.01116,0.75552 -4.12248,1.84809 -6.09961,3.24414 -2.63601,0.22961 -5.49567,0.89378 -7.89648,3.04883 -1.71635,1.54066 -2.12962,2.817 -3.13282,4.77539 -1.00319,1.95839 -2.08972,4.32205 -3.13867,6.72071 -1.29447,2.9601 -1.96221,4.86743 -2.84961,7.16601 -2.23735,-1.85679 -4.35206,-3.62297 -6.74804,-5.6582 -3.83609,-3.25851 -7.37336,-6.73489 -8.64258,-8.83399 -4.53064,-7.49297 -9.96867,-18.01984 -14.05664,-27.43945 -1.19931,-2.76348 -3.16053,-4.83873 -5.43946,-5.91797 -0.65491,-0.31015 -1.32738,-0.37946 -1.99609,-0.53711 3.4e-4,-0.0439 0.0176,-0.0829 0.0176,-0.12695 0,-5.68956 -2.91394,-10.62645 -7.25586,-13.63867 0.11572,-1.30611 0.10753,-2.59551 -0.0586,-3.82031 -3.2205,-23.74413 -2.74316,-46.69845 -13.0293,-69.92383 0.14744,-0.0574 0.29605,-0.0869 0.44336,-0.14649 1.35277,-0.54757 2.76683,-1.48116 3.61133,-2.94922 0.84449,-1.46806 0.9203,-3.03877 0.80273,-4.33398 -0.23513,-2.59042 -1.08908,-4.97828 -1.87695,-8.64063 -1.75238,-8.14568 -5.47299,-18.24268 -9.91407,-24.24414 -2.40497,-3.24996 -4.42458,-5.47381 -6.5957,-6.93554 -1.08556,-0.73087 -2.25219,-1.29502 -3.62695,-1.47852 -1.37476,-0.1835 -2.95432,0.16099 -4.11328,0.9336 -1.96776,1.31176 -2.69766,3.16513 -3.2168,5.10351 -1.29505,-6.09563 -2.63584,-11.90914 -4.07422,-16.83398 -2.08695,-7.14549 -4.10456,-12.65233 -7.02539,-16.28125 -4.08761,-5.07854 -7.41528,-8.34934 -12.56055,-10.38477 -3.06554,-1.2127 -6.39796,-1.22588 -9.29687,-1.20703 -2.02755,0.0132 -2.80563,0.10673 -3.68555,0.17578 -5.16088,-4.15774 -9.36427,-9.03687 -21.37305,-13.61133 a 3.6425211,3.6425211 0 0 0 -1.42773,-0.23633 z m -88.53906,158.98633 c 3.19489,5.78647 6.07332,10.73751 7.75,13.38477 5.2918,8.35505 12.05662,21.3279 17.32812,33.05078 2.63576,5.86144 4.90621,11.42759 6.44336,15.91211 1.53716,4.48451 2.15903,8.27604 2.11524,8.75781 -0.18504,2.03538 0.55109,4.01228 1.63867,5.4707 1.08758,1.45843 2.47983,2.54327 4.0293,3.48047 2.38414,1.44207 5.26704,2.46992 8.2871,3.3418 l 0.0898,2.51367 c -1.46869,0.0741 -3.0747,0.15645 -4.01367,0.19727 a 3.6425211,3.6425211 0 0 0 -1.42578,0.36133 c -2.82995,-0.0358 -5.6784,0.4458 -8.20508,1.94726 -3.30588,1.96449 -6.01399,5.52761 -6.46094,10.06641 -0.3923,3.98373 0.1925,10.31918 1.45898,16.76562 0.63325,3.22323 1.44643,6.39909 2.50196,9.18164 0.59409,1.56614 1.28044,2.98032 2.11133,4.2793 -2.1045,2.15071 -3.66721,4.7865 -4.63282,7.7207 -1.6275,-1.1651 -3.40541,-2.97726 -6.65625,-4.30468 a 3.6425211,3.6425211 0 0 0 -0.0703,-0.0274 c -1.11034,-0.42705 -2.60903,-0.67358 -4.07422,-0.043 -1.46519,0.63062 -2.28428,1.9288 -2.6289,2.8418 -0.68926,1.826 -0.50119,3.05492 -0.52539,3.7168 a 3.6425211,3.6425211 0 0 0 -0.002,0.12109 c -0.0188,6.00984 -0.18939,12.55355 -0.32812,19.09766 -0.007,1.3e-4 -0.0141,0.004 -0.0215,0.004 -0.66653,-1.68868 -1.59626,-3.23938 -2.8164,-4.53906 0.89943,-2.62353 1.57893,-5.03302 1.82031,-6.72266 0.20288,-1.42014 -0.11911,-2.20388 -0.39649,-3.01171 -0.27737,-0.80784 -0.63139,-1.60138 -1.06445,-2.50586 -0.86612,-1.80898 -2.05292,-4.04026 -3.48828,-6.8711 -2.87072,-5.66168 -6.72955,-13.67634 -10.63477,-24.57422 -3.02262,-8.43494 -4.54857,-17.82699 -5.5332,-25.34961 -0.49232,-3.7613 -0.84981,-7.04565 -1.22851,-9.61718 -0.18935,-1.28577 -0.37813,-2.38442 -0.63868,-3.38477 -0.26054,-1.00035 -0.14707,-1.94792 -1.87695,-3.36328 -0.45245,-0.37019 -0.90045,-0.54448 -1.34766,-0.78711 0.17656,-0.97333 0.3086,-1.96397 0.3086,-2.98828 0,-0.97266 -0.25543,-1.89455 -0.41406,-2.83789 1.23025,-1.87514 1.66454,-3.93991 2.31445,-6.50391 0.82994,-3.27428 1.54356,-7.1801 2.18164,-11.17578 1.27616,-7.99135 2.26596,-16.47258 2.85937,-19.73633 0.50074,-2.75405 3.05745,-13.99018 5.2461,-23.86914 z M 159.5,375.12305 c 0.006,0.002 0.008,0.008 0.004,0.01 a 3.6425211,3.6425211 0 0 0 -0.004,-0.01 z m 266.5293,16.6914 4.27929,0.0117 -2.17968,6.11914 z m 41.7207,7.64453 0.0664,1.00977 -0.64844,-0.26758 z m -260.53711,91.66407 c 0.13412,0.5983 0.32813,1.55664 0.29102,1.4375 1.86304,7.26051 2.14419,13.71326 3.54297,24.02343 0.0502,0.37029 0.26599,0.59411 0.37304,0.91797 -2.25586,1.8986 -3.69457,3.7581 -4.89648,5.5586 -0.24266,-1.25187 -0.51997,-2.40569 -0.90039,-3.46094 2.26938,-5.70311 3.22656,-14.44198 2.08203,-23.25586 -0.20838,-1.60467 -0.57452,-2.99342 -1.04883,-4.26172 0.20529,-0.30977 0.39375,-0.62217 0.55664,-0.95898 z m -0.38281,34.33984 c -0.0193,-0.10118 -0.0843,-0.5095 -0.01,0.42969 -0.0138,-0.14239 0.0284,-0.2877 0.01,-0.42969 z"
         transform="matrix(0.31149423,0.01542408,-0.01542408,0.31149423,109.90758,447.38707)" />
      <circle
         id="path3711"
         style="fill:#999999;stroke-width:0.31187588"
         transform="rotate(2.834766)"
         cx="272.45578"
         cy="568.33325"
         r="2.1719928" />
      <ellipse
         id="path3930"
         style="fill:#1a1a1a;stroke-width:0.08829375"
         transform="rotate(2.8349156)"
         cx="274.86365"
         cy="568.09149"
         rx="1.40324"
         ry="1.4347734" />
      <path
         id="path3717"
         style="fill:#999999;stroke-width:0.31187472"
         d="m 245.58961,580.20765 c -0.33564,0.66289 -0.25361,1.44847 0.38239,1.83264 0.92162,0.55669 4.10552,1.15768 4.8693,0.39882 1.18525,-1.17754 1.21016,-2.62907 0.14801,-2.98922 -2.16949,-0.73565 -4.67219,-0.67902 -5.3998,0.75776 z" />
      <path
         id="path4006"
         style="fill:#ffffff;stroke-width:0.31187472"
         d="m 248.52123,578.98822 c -0.95602,-0.0265 -1.82266,0.1555 -2.40059,0.59347 1.20436,-0.34073 2.31295,-0.31821 3.83044,0.0921 0,0 -0.70022,1.07456 -0.3696,1.56408 0.33062,0.48952 0.99248,0.24272 0.99248,0.24272 l 0.51281,0.67917 c 0.92789,-1.11788 0.87974,-2.37567 -0.1001,-2.70794 -0.81356,-0.27588 -1.66925,-0.44156 -2.46534,-0.46361 z" />
      <ellipse
         id="path3932"
         style="fill:#1a1a1a;stroke-width:0.08829375"
         transform="rotate(2.8349156)"
         cx="279.90274"
         cy="568.01367"
         rx="1.40324"
         ry="1.4347734" />
      <path
         id="path3719"
         style="fill:#ffffff;stroke-width:0.31187472"
         d="m 250.94138,581.97286 c 0,0 1.15836,3.08759 2.17295,3.89282 1.06958,0.84877 3.2198,0.81047 4.40898,0.13947 1.17592,-0.66352 0.86083,-2.38117 0.49772,-3.68168 -0.56833,-2.03552 -4.48601,-4.95351 -5.52362,-3.11236 l -1.55616,2.76178 z" />
      <path
         id="path4014"
         style="fill:#999999;stroke-width:0.31187472"
         d="m 252.71595,580.21077 -0.83414,0.0953 -0.94143,1.6708 c 0,0 1.16429,3.07911 2.17888,3.8844 0.31565,0.25049 0.72274,0.42403 1.17418,0.52654 0.14571,-0.68762 0.48531,-1.42761 0.90827,-1.78954 0.59225,-0.50676 2.25794,-0.66884 2.25794,-0.66884 l -0.34983,-1.80304 -4.39369,-1.91548 z" />
      <ellipse
         id="path3699"
         style="fill:#1a1a1a;stroke-width:0.213796"
         transform="rotate(2.8347747)"
         cx="247.69098"
         cy="631.40076"
         rx="3.3978295"
         ry="3.474185" />
      <path
         id="path3697"
         style="fill:#ffffff;stroke-width:0.31187472"
         d="m 199.03607,642.88199 c 0.39018,1.67533 0.66944,2.49644 1.65736,3.15742 2.70162,0.55832 12.23578,1.30065 14.39926,0.63417 0.88055,-0.53356 1.25071,-0.72143 1.21035,-2.14807 -0.0419,-1.48175 -0.40955,-2.97775 -0.88706,-4.3809 -0.62144,-1.82622 -2.74519,-1.23456 -3.95738,-1.29996 -3.7924,-0.20456 -6.6002,2.49437 -10.47244,2.87227 -1.35057,0.13181 -2.07646,0.62335 -1.95025,1.16514 z" />
      <ellipse
         id="path3691"
         style="fill:#1a1a1a;stroke-width:0.25984138"
         transform="rotate(2.8347258)"
         cx="238.26311"
         cy="603.09351"
         rx="4.129622"
         ry="4.2224226" />
      <path
         id="path3689"
         style="fill:#ffffff;stroke-width:0.31187472"
         d="m 212.18159,584.38989 c -4.31136,2.23018 -8.41625,9.12483 -8.46303,10.06887 -0.0468,0.94399 -2.65911,14.75542 -2.21837,16.13453 0.61449,1.92299 0.98131,4.07028 4.20251,4.30855 3.22136,0.23836 3.75778,-2.32615 4.78073,-4.17912 3.92962,-7.11979 4.62198,-22.66986 3.79552,-24.09981 -0.82629,-1.42997 -1.2785,-2.65658 -2.09742,-2.23299 z" />
      <path
         id="path3687"
         style="fill:#999999;stroke-width:0.31187472"
         d="m 174.88137,644.93101 c -2.2649,1.14957 -2.41759,2.64027 -2.32646,3.98545 0.0911,1.34508 0.46962,3.25628 1.64567,3.39351 1.17605,0.13709 7.47314,0.37004 7.47314,0.37004 l -1.25897,-7.83586 -5.53329,0.0869 z" />
      <ellipse
         id="path3679"
         style="fill:#1a1a1a;stroke-width:0.25984138"
         transform="rotate(2.8347258)"
         cx="210.64444"
         cy="608.61407"
         rx="4.129622"
         ry="4.2224226" />
      <path
         id="path3897"
         style="fill:#666666;stroke-width:0.31187472"
         d="m 178.68936,580.75967 c -0.16749,3.38259 -0.50349,4.37654 0.0576,5.20737 2.20411,3.26346 7.20524,7.5586 11.35099,8.05354 1.95963,0.23392 6.26494,-0.71491 6.40622,-1.96964 0.14098,-1.25474 -1.57472,-11.19693 -1.57472,-11.19693 l -16.23994,-0.0944 z" />
      <ellipse
         id="path3901"
         style="fill:#1a1a1a;stroke-width:0.31187588"
         transform="rotate(2.834766)"
         cx="210.36913"
         cy="580.87085"
         rx="4.9565988"
         ry="5.0679832" />
      <ellipse
         id="path3909"
         style="fill:#1a1a1a;stroke-width:0.31187588"
         transform="rotate(2.834766)"
         cx="216.9409"
         cy="577.8631"
         rx="4.9565988"
         ry="5.0679832" />
      <path
         id="path3843"
         style="fill:#1a1a1a;stroke-width:0.31187472"
         d="m 183.5203,569.24837 -0.10602,8.51137 24.75506,0.12179 1.06558,-8.77927 -25.7147,0.14612 z" />
      <path
         id="path3895"
         style="fill:#999999;stroke-width:0.31187472"
         d="m 182.30711,574.63133 c -1.62418,-1.234 -4.91733,-0.58077 -5.30468,2.02416 -0.28661,1.92723 0.23201,8.05479 1.74298,9.39148 1.51097,1.33651 -1.18226,-4.79008 2.90829,-4.58736 2.53682,0.12562 12.44661,15.32615 16.20314,13.57715 1.33595,-0.62197 -13.50075,-21.44918 -15.54945,-20.40534 z" />
      <path
         id="path3911"
         style="fill:#ffffff;stroke-width:0.31187472"
         d="m 179.7934,593.50911 c 0.25233,1.27419 5.78184,17.00403 4.38309,19.77348 -1.39886,2.76957 -5.32901,8.88344 -7.77629,7.34278 -2.44712,-1.5406 -5.98456,-12.91349 -5.25384,-14.92758 0.7306,-2.01408 2.18655,-17.16527 2.18655,-17.16527 2.7198,1.27095 4.5225,2.65605 6.46049,4.97627 z" />
      <path
         id="path3674"
         style="fill:#999999;stroke-width:0.31187472"
         d="m 173.25027,587.91719 c -0.70933,-0.31393 -0.71445,0.47648 -0.75767,0.97767 -0.92883,11.05689 -3.01421,25.86346 3.832,32.06072 1.64143,1.03336 4.13297,-1.6476 5.89755,-4.18287 -3.17488,-8.86254 -4.8746,-18.1667 -6.89679,-27.3196 -0.74208,-0.48989 -1.23843,-1.14489 -2.07491,-1.53576 z" />
      <path
         id="path3885"
         style="fill:#ffffff;stroke-width:0.31187472"
         d="m 173.97382,609.50516 c -1.08991,0.61514 -2.23702,2.5071 -2.48908,2.97145 -2.25554,4.15511 1.59746,5.32557 2.9626,4.35658 1.43253,-1.01671 3.38945,-4.92107 3.08141,-5.92531 -0.2852,-0.92979 -1.47326,-1.87066 -1.63619,-1.86535 -1.27519,0.0415 -1.42792,0.26328 -1.91874,0.4626 z" />
      <path
         id="path3977"
         style="fill:#999999;stroke-width:0.31187472"
         d="m 173.94263,609.52699 c -1.0808,0.63261 -2.2091,2.49197 -2.45882,2.95202 -1.79378,3.30463 0.27701,4.71555 1.88625,4.67001 0.0932,-1.40995 0.69092,-3.18892 1.88781,-5.21485 0,0 -0.99021,-0.83848 -0.22965,-1.86539 l -1.08561,-0.54166 z" />
      <path
         id="path3883"
         style="fill:#ffffff;stroke-width:0.31187472"
         d="m 169.23332,612.24966 c -1.14143,0.51328 -2.45614,2.29284 -2.74946,2.73227 -2.62477,3.93243 1.1056,5.44876 2.55332,4.60826 1.51921,-0.88195 3.82359,-4.59173 3.60839,-5.61998 -0.19929,-0.95191 -1.29668,-1.99712 -1.45942,-2.00667 -1.27369,-0.0748 -1.44594,0.13209 -1.95292,0.28584 z" />
      <ellipse
         id="path3881"
         style="fill:#1a1a1a;stroke-width:0.08829375"
         transform="rotate(2.8349156)"
         cx="204.72229"
         cy="600.08008"
         rx="1.40324"
         ry="1.4347734" />
      <path
         id="path3869"
         style="fill:#ffffff;stroke-width:0.31187472"
         d="m 161.08715,611.71635 c -1.39885,0.098 -2.27837,1.83969 -2.67064,3.01062 -1.137,3.39414 2.37717,4.58425 4.8562,3.12998 1.21693,-0.71395 1.91556,-2.38154 1.82397,-3.50984 0.0942,-0.77598 -0.58814,-2.76137 -0.58814,-2.76137 l -3.42126,0.13084 z" />
      <path
         id="path3957"
         style="fill:#999999;stroke-width:0.31187472"
         d="m 161.21814,611.71635 -0.12702,0.003 c -1.39886,0.098 -2.28408,1.8386 -2.67636,3.00956 -1.137,3.39414 2.3816,4.58363 4.86057,3.12904 0.20726,-0.12159 0.39287,-0.28043 0.56874,-0.44997 0.25869,-0.59771 0.44726,-1.24033 0.5164,-1.9553 0,0 -2.09249,0.0624 -1.92583,-0.91504 0.11877,-0.69645 0.24332,-0.69879 0.30485,-0.63869 -0.046,-0.068 -0.8303,-1.21313 -1.52148,-2.18306 z" />
      <ellipse
         id="path3871"
         style="fill:#1a1a1a;stroke-width:0.08829375"
         transform="rotate(2.8349156)"
         cx="192.58145"
         cy="604.42523"
         rx="1.40324"
         ry="1.4347734" />
      <path
         id="path3867"
         style="fill:#ffffff;stroke-width:0.31187472"
         d="m 163.24533,604.44032 c -0.33268,2.21393 -0.97705,3.96642 -1.72938,6.77298 -0.24809,0.92549 2.19859,2.70495 3.1127,1.32509 0.74179,-1.11975 1.42926,-4.3126 1.19516,-7.24547 -0.25347,-3.1752 -2.48601,-2.72042 -2.57852,-0.85257 z" />
      <ellipse
         id="path3859"
         style="fill:#1a1a1a;stroke-width:0.20310745"
         transform="rotate(2.8347705)"
         cx="196.13048"
         cy="587.24469"
         rx="3.2279577"
         ry="3.3004961" />
      <ellipse
         id="path3851"
         style="fill:#1a1a1a;stroke-width:0.25018641"
         transform="rotate(2.8347276)"
         cx="250.60059"
         cy="545.5614"
         rx="3.976177"
         ry="4.0655289" />
      <path
         id="path3845"
         style="fill:#808080;stroke-width:0.31187472"
         d="m 217.0749,519.56361 c 0.1873,-3.78242 1.12902,-5.70855 3.87068,-1.59268 1.09917,1.65025 2.14545,4.8562 2.53988,7.26294 0.39442,2.40698 0.86454,3.26252 -0.29303,3.66577 -2.11826,0.73774 -4.19316,0.60049 -6.26837,0.47025 l 0.15101,-9.80628 z" />
      <ellipse
         id="path3837"
         style="fill:#1a1a1a;stroke-width:0.25018641"
         transform="rotate(2.8347276)"
         cx="186.66605"
         cy="556.36499"
         rx="3.976177"
         ry="4.0655289" />
      <ellipse
         id="path3806"
         style="fill:#1a1a1a;stroke-width:0.28589714"
         transform="rotate(2.8347666)"
         cx="241.83342"
         cy="512.36823"
         rx="4.5667329"
         ry="4.6224198" />
      <path
         id="path3794"
         style="fill:#ffffff;stroke-width:0.31187472"
         d="m 170.11281,522.03366 -0.0134,18.28864 16.05686,31.5742 c 7.66838,0.52863 12.66992,0.71388 22.77154,-0.43372 2.4877,-0.28262 3.58219,-2.35544 3.88034,-4.04564 1.59951,-9.05934 2.24176,-22.75064 2.24176,-22.75064 l -30.31641,-27.37387 -14.621,4.7405 z" />
      <path
         id="path3876"
         style="fill:#666666;stroke-width:0.31187472"
         d="m 179.96493,558.19241 c 2.44086,4.85215 6.77548,6.33917 10.86634,6.68878 4.09086,0.34974 15.41815,0.76347 17.2501,-1.1961 1.83189,-1.95957 5.237,-3.84136 4.17164,-10.99109 0,0 -5.68205,-38.13292 -6.79107,-38.03 -1.10909,0.10279 -36.89167,2.90467 -36.89167,2.90467 l 2.37989,25.19418 9.01411,15.42906 z" />
      <rect
         id="rect3798"
         style="fill:#1a1a1a;stroke-width:0.31187472"
         transform="rotate(-5.2309)"
         height="5.2906427"
         width="35.02977"
         y="539.26086"
         x="118.07689" />
      <path
         id="path3847"
         style="fill:#ffffff;stroke-width:0.31187472"
         d="m 220.3184,526.07867 c -2.72504,0.98029 -2.79664,2.42648 -2.79664,2.42648 0,0 3.35359,22.35861 3.49892,23.92703 0.14537,1.56848 -0.37123,2.99266 1.759,2.76358 2.13023,-0.22907 2.61953,-1.66575 2.49594,-3.11051 -0.77688,-9.08179 0.13315,-17.34055 -4.95725,-26.00661 z" />
      <path
         id="path3849"
         style="fill:#999999;stroke-width:0.31187472"
         d="m 218.4721,527.32617 c 0,0 4.00977,26.07928 4.08244,26.86333 0.0727,0.78424 -0.42739,1.32828 -1.66737,1.04946 -0.8276,-0.18611 -2.03436,0.43213 -1.96828,-0.90285 0.0661,-1.33498 -4.53996,-14.16472 -4.53996,-14.16472 l 0.25017,-11.80883 3.84292,-1.03642 z" />
      <path
         id="path3788"
         style="fill:#ffffff;stroke-width:0.31187472"
         d="m 171.77198,504.27239 -5.5601,4.18536 15.8554,17.62467 2.52094,25.66292 c 0,0 4.55992,9.25894 12.02464,9.40552 4.48913,0.0882 11.24402,-1.66289 12.9478,-2.48143 3.99823,-1.9209 7.78626,-8.73343 8.09158,-14.76603 0.22482,-4.4414 -1.61766,-32.64392 -5.06297,-37.38754 -1.16551,-1.6045 -1.93761,-2.44219 -3.30556,-3.0632 -1.21893,-0.55339 -3.99387,-0.42081 -3.99387,-0.42081 -1.81957,-1.53985 -2.73505,-3.03495 -6.45986,-4.66908 -9.36123,-0.12898 -24.06706,1.81932 -25.10685,2.54849 -1.03979,0.72916 -1.95623,3.47179 -1.95071,3.36045 z" />
      <path
         id="path3786"
         style="fill:#999999;stroke-width:0.31187472"
         d="m 168.30393,506.77675 c -13.45989,9.53494 0.7936,37.20041 3.70258,42.33699 3.12997,5.52891 7.6506,16.66066 7.30691,19.09734 -0.34368,2.43642 6.93267,4.13483 9.84714,3.83325 2.91446,-0.30177 0.31948,-6.45238 0.31948,-6.45238 0,0 -12.62032,-10.88474 -17.64712,-30.98444 -0.8715,-3.48458 0.57974,-14.81654 4.51158,-10.03644 4.2075,5.11537 3.79676,24.38642 10.72787,31.08767 -1.74731,-8.8273 -3.58906,-25.22162 -3.53105,-32.29151 0.058,-7.07113 -10.63586,-19.8502 -15.23757,-16.59048 z" />
      <path
         id="path3790"
         style="fill:#999999;stroke-width:0.31187472"
         d="m 169.45475,506.0532 c 0,0 -0.20303,-2.28817 2.45081,-4.45108 2.42654,-1.97757 7.67492,-0.3963 8.7774,0.65768 3.3093,3.16335 3.13247,7.01001 4.08743,9.79318 0,0 -6.38938,-8.34577 -9.84932,-8.294 -3.68199,0.0551 -5.45562,2.07179 -5.46654,2.29428 z" />
      <path
         id="path3792"
         style="fill:#000000;stroke-width:0.31187472"
         d="m 194.78833,523.70219 c -2.17429,1.11907 -2.69818,2.54599 -3.22946,4.4124 -0.53137,1.86645 -0.546,4.39868 0.47577,6.15703 1.02176,1.75848 5.92499,2.57487 7.28071,-0.64318 1.35578,-3.21792 4.51907,-3.69946 6.07906,-1.14876 1.55997,2.55061 5.397,0.92877 5.91814,-0.15303 0.52105,-1.0818 1.20761,-3.4116 0.62568,-5.87946 -0.5895,-2.50024 -1.65222,-3.74593 -4.69122,-4.35845 -3.03884,-0.61249 -10.28438,0.49444 -12.45877,1.61351 z" />
      <ellipse
         id="path3796"
         style="fill:#1a1a1a;stroke-width:0.31187588"
         transform="rotate(2.834766)"
         cx="191.43385"
         cy="520.05402"
         rx="4.9565988"
         ry="5.0679832" />
      <path
         id="rect3800"
         style="fill:#1a1a1a;stroke-width:0.31187472"
         d="m 175.18701,525.47364 -8.43996,0.77257 0.49021,5.27412 7.68522,-0.7026 0.26462,-5.34397 z" />
      <path
         id="path3833"
         style="fill:#ffffff;stroke-width:0.31187472"
         d="m 161.53001,532.09162 c 2.46397,-0.21256 8.4147,0.51674 8.49984,1.75913 0.22686,3.30119 -3.75778,16.2075 -4.32414,18.63295 -0.56618,2.42542 -1.91888,11.72618 -3.24849,11.54872 -1.32946,-0.17735 -4.40024,-1.22158 -4.34535,-2.33404 0.0551,-1.11248 3.28996,-29.27848 3.41752,-29.60658 z" />
      <path
         id="path3835"
         style="fill:#999999;stroke-width:0.31187472"
         d="m 160.07668,533.45139 c 0.97776,-1.21472 2.07877,-2.45848 2.28698,-0.34219 0.45724,4.64818 -1.74379,17.18555 -1.96918,20.95081 -0.22541,3.76526 1.04506,9.13887 -0.5179,9.17317 -1.56296,0.0341 -1.11851,-0.91423 -2.64198,-0.89 -1.52348,0.0242 -1.06917,0.40251 -1.60488,0.6197 -0.55954,0.22688 -1.03449,-0.2925 -0.99884,-0.77008 0.71157,-9.53495 0.65681,-20.15678 5.44595,-28.74144 z" />
      <path
         id="path3808"
         style="fill:#e6e6e6;stroke-width:0.31187472"
         d="m 160.62246,519.18624 c -1.93478,0.68903 -3.74063,5.7254 -3.79021,6.72652 -0.0496,1.00124 -0.34045,9.12794 0.28296,10.05078 0.6234,0.92303 3.62242,1.58267 4.30013,0.99357 1.4567,-1.26612 0.0905,-10.6053 -0.16064,-15.89968 -0.0652,-1.37487 -0.24614,-2.00888 -0.6322,-1.87141 z" />
      <path
         id="path3810"
         style="fill:#999999;stroke-width:0.31187472"
         d="m 156.89556,524.94345 c -0.43535,1.48175 -1.92193,6.95356 -1.65154,8.24971 0.2704,1.29587 0.89842,3.08509 2.18197,3.23071 1.74666,0.19801 1.86748,0.15415 1.79871,-1.41647 -0.20866,-4.76451 -0.54719,-8.77335 -0.79734,-9.79755 -0.25017,-1.02416 -1.04522,-1.92236 -1.53177,-0.26623 z" />
      <path
         id="path3839"
         style="fill:#ffffff;stroke-width:0.31187472"
         d="m 152.71955,567.00599 c 2.53009,-1.54752 9.6335,-0.86124 10.8074,0.20059 0.59359,0.5368 0.21419,7.00096 1.9208,12.625 2.1321,7.02623 4.40742,10.44718 4.25928,11.21159 -0.29962,1.54646 -2.48278,7.34901 -5.20332,5.98737 -2.72061,-1.36143 -11.87338,-30.47547 -11.78419,-30.02481 z" />
      <path
         id="path3841"
         style="fill:#999999;stroke-width:0.31187472"
         d="m 153.06262,566.80016 c -2.17854,0.96768 -1.38791,9.49939 -0.63323,10.14965 2.87292,2.47572 5.35863,9.85368 6.86405,14.91634 0.3836,1.29004 2.3714,3.90904 3.22821,4.62074 1.38176,1.14735 4.13484,1.34904 2.73043,-0.70284 -4.4018,-6.43117 -9.33441,-24.33278 -10.0196,-27.60341 -0.12941,-0.61801 -1.20976,-1.80688 -2.16999,-1.38036 z" />
      <path
         id="path3853"
         style="fill:#ffffff;stroke-width:0.31187472"
         d="m 226.62451,558.67582 c -3.56536,1.18756 -6.79887,2.17255 -5.99143,3.88533 0.80735,1.71279 12.76566,12.45316 13.49482,13.49295 0.72916,1.03979 6.29706,1.20396 6.23531,0.19724 -0.0617,-1.00673 -5.45063,-4.78634 -6.77828,-7.24984 -1.32778,-2.46344 -2.87168,-5.84609 -4.02038,-8.89779 -0.58795,-1.56212 -1.89841,-1.77513 -2.94032,-1.42807 z" />
      <path
         id="path3855"
         style="fill:#999999;stroke-width:0.31187472"
         d="m 220.57414,561.5014 c -0.54416,1.98041 -0.46488,4.88396 0.37827,5.87354 0.52089,0.6114 4.37685,4.89425 7.33467,7.27728 2.61133,2.10413 5.62934,6.80262 7.17031,7.21367 1.54094,0.41086 4.55899,1.3967 4.32446,-0.62229 -0.23459,-2.01898 -2.66108,-4.81565 -3.65674,-4.97658 -0.99572,-0.16082 -15.55069,-14.76571 -15.55069,-14.76571 z" />
      <ellipse
         id="path3857"
         style="fill:#1a1a1a;stroke-width:0.20310745"
         transform="rotate(2.8347705)"
         cx="267.41748"
         cy="567.08398"
         rx="3.2279577"
         ry="3.3004961" />
      <path
         id="path3952"
         style="fill:#999999;stroke-width:0.31187472"
         d="m 163.96576,603.0899 c -0.38623,0.2088 -0.68791,0.6889 -0.72062,1.34995 -0.33268,2.21393 -0.97851,3.96767 -1.73084,6.77423 -0.16525,0.61642 0.86638,1.61064 1.84302,1.79892 0.54874,-2.82761 1.7692,-9.62476 0.66638,-9.91044 l -0.0579,-0.0126 z" />
      <ellipse
         id="path3873"
         style="fill:#1a1a1a;stroke-width:0.08829375"
         transform="rotate(2.8349156)"
         cx="194.25208"
         cy="593.45416"
         rx="1.40324"
         ry="1.4347734" />
      <circle
         id="path3861"
         style="fill:#b3b3b3;stroke-width:0.31187588"
         transform="rotate(2.834766)"
         cx="194.10709"
         cy="591.78534"
         r="2.1719928" />
      <path
         id="path3967"
         style="fill:#999999;stroke-width:0.31187472"
         d="m 169.63876,612.11243 c -0.12687,0.0457 -0.25862,0.091 -0.40681,0.13599 -1.14143,0.51328 -2.45714,2.29321 -2.75046,2.73268 -2.24072,3.35702 0.15287,4.93978 1.80114,4.81222 0.005,-0.15313 0.0214,-0.31166 0.0626,-0.47504 0.22155,-0.87912 2.65121,-4.23838 2.65121,-4.23838 -1.22492,-0.16115 -1.53464,-1.08776 -0.51515,-1.56967 l -0.8425,-1.39769 z" />
      <ellipse
         id="path3887"
         style="fill:#1a1a1a;stroke-width:0.08829375"
         transform="rotate(2.8349156)"
         cx="200.59912"
         cy="603.39435"
         rx="1.40324"
         ry="1.4347734" />
      <path
         id="path3875"
         style="fill:#ffffff;stroke-width:0.31187472"
         d="m 168.05755,603.79162 c 0.49464,2.4189 0.47792,4.47384 0.75078,7.66213 0.09,1.05133 3.39507,1.99597 3.84385,0.22807 0.36424,-1.43463 -0.12659,-4.99967 -1.50467,-7.9553 -1.49207,-3.20015 -3.70881,-1.90618 -3.08999,0.0653 z" />
      <path
         id="path3962"
         style="fill:#999999;stroke-width:0.31187472"
         d="m 168.46923,601.98586 c -0.44586,0.32139 -0.6628,1.00346 -0.41137,1.80438 0.49464,2.4189 0.47942,4.47977 0.75225,7.66807 0.0572,0.66903 1.41039,1.28648 2.50706,1.19753 -0.67486,-3.50422 -0.28325,-6.81196 -2.84794,-10.66985 z" />
      <ellipse
         id="path3889"
         style="fill:#1a1a1a;stroke-width:0.08829375"
         transform="rotate(2.8349156)"
         cx="198.30675"
         cy="592.35095"
         rx="1.40324"
         ry="1.4347734" />
      <path
         id="path3877"
         style="fill:#ffffff;stroke-width:0.31187472"
         d="m 171.25739,601.95779 c 0.76534,2.10391 1.03639,3.95114 1.71612,6.7761 0.22416,0.93157 3.22385,1.3261 3.36762,-0.32282 0.11676,-1.33806 -0.80454,-4.47166 -2.41116,-6.93609 -1.73952,-2.66843 -3.48364,-1.20237 -2.67255,0.48278 z" />
      <path
         id="path3972"
         style="fill:#999999;stroke-width:0.31187472"
         d="m 171.61292,600.19882 -0.22774,0.0668 c -0.35604,0.34549 -0.46737,0.99563 -0.13254,1.69132 0.76534,2.10391 1.0435,3.95426 1.72326,6.77923 0.16146,0.67096 1.7557,1.05079 2.6927,0.60173 -0.99039,-3.05011 -1.54734,-6.10869 -4.05562,-9.13918 z" />
      <ellipse
         id="path3891"
         style="fill:#1a1a1a;stroke-width:0.08829375"
         transform="rotate(2.8349156)"
         cx="201.14291"
         cy="590.22455"
         rx="1.40324"
         ry="1.4347734" />
      <circle
         id="path3948"
         style="fill:#b3b3b3;stroke-width:0.31187588"
         transform="rotate(2.834766)"
         cx="200.90152"
         cy="588.7782"
         r="2.1719928" />
      <path
         id="path3896"
         style="fill:#cccccc;stroke-width:0.31187472"
         d="m 212.47787,584.30568 c -0.0923,0.004 -0.19448,0.0299 -0.29685,0.0829 -4.31135,2.23018 -8.41438,9.12701 -8.46116,10.07106 -0.007,0.14877 -0.0919,0.68656 -0.20472,1.37549 l 5.97334,2.53036 5.09322,-8.46178 c 0.006,-1.71927 -0.0932,-2.93256 -0.29603,-3.28373 -0.72299,-1.25124 -1.16127,-2.3438 -1.80772,-2.31436 z" />
      <ellipse
         id="path3905"
         style="fill:#1a1a1a;stroke-width:0.31187588"
         transform="rotate(2.834766)"
         cx="236.65576"
         cy="578.19525"
         rx="4.9565988"
         ry="5.0679832" />
      <path
         id="path3893"
         style="fill:#ffffff;stroke-width:0.31187472"
         d="m 181.0752,574.01694 c 7.25265,0.0437 28.869,-0.14765 29.45938,0.67015 0.59035,0.8178 -0.13796,6.51725 -1.59989,10.0143 -1.28736,3.07954 -5.90223,10.87382 -9.21403,10.89909 -4.7093,0.036 -9.05964,-9.72301 -10.14528,-11.69998 -2.3147,-4.2153 -8.50015,-9.88363 -8.50015,-9.88363 z" />
      <path
         id="path3683"
         style="fill:#ffffff;stroke-width:0.31187472"
         d="m 182.6221,618.33122 c -2.46621,4.04314 -6.91676,8.79705 -8.51636,14.65592 -1.59945,5.85888 -3.49425,12.54891 -1.75854,12.8324 7.95031,1.29887 5.72914,0.1457 11.26928,-0.98412 0.44212,0.55966 1.8095,1.96032 2.20661,-0.72548 0.53234,-3.60028 0.55149,-24.27508 -0.17028,-25.90588 -1.06574,-2.40798 -2.16223,-1.29693 -3.03086,0.12709 z" />
      <path
         id="path3685"
         style="fill:#ffffff;stroke-width:0.31187472"
         d="m 182.07632,644.55364 c -2.21001,0.83685 -7.36055,3.38696 -7.51368,5.22671 -0.15318,1.83994 0.64333,6.04975 5.45811,6.02667 4.81473,-0.023 13.21944,0.57572 14.66279,0.0952 1.44324,-0.48054 3.65362,-0.52879 3.90374,-3.98607 0.25005,-3.45745 -3.5981,-6.9598 -6.42618,-7.17874 -2.82802,-0.21888 -7.87452,-1.02076 -10.08447,-0.18392 z" />
      <path
         id="path3693"
         style="fill:#ffffff;stroke-width:0.31187472"
         d="m 212.01941,610.24742 c -0.24031,4.52905 -7.80497,12.7036 -8.55971,13.61271 -0.75471,0.9089 -1.69404,2.36067 -1.8545,4.00884 -0.16046,1.64804 -1.97489,9.62539 -2.0711,11.56837 -0.10127,2.04527 1.00798,2.33039 2.47906,2.48845 2.70994,0.29116 6.67724,-1.73914 8.98948,-3.18237 1.4519,-0.90622 3.36294,-1.98849 3.57346,-3.68699 0.74357,-6.00452 0.60507,-16.72334 -0.0278,-24.92004 -0.1167,-1.51159 -2.40402,-2.24262 -2.52893,0.11135 z" />
      <path
         id="path3695"
         style="fill:#ffffff;stroke-width:0.31187472"
         d="m 216.56031,639.33286 c -0.15191,3.06788 0.96999,8.12808 2.43459,8.16394 3.15055,0.0771 11.73678,0.91323 14.04964,1.32656 2.97279,0.53122 3.75778,-1.30045 4.48226,-2.93231 0.7834,-1.76477 0.46398,-4.35501 -0.8995,-5.72227 -3.91653,-3.92682 -10.10132,-2.808 -15.64333,-2.58831 -1.20355,0.0477 -4.36437,0.54933 -4.42394,1.75236 z" />
      <circle
         id="path3705"
         style="fill:#999999;stroke-width:0.31187588"
         transform="rotate(2.834766)"
         cx="266.9444"
         cy="568.96307"
         r="2.1719928" />
      <circle
         id="path3709"
         style="fill:#999999;stroke-width:0.31187588"
         transform="rotate(2.834766)"
         cx="271.90631"
         cy="565.49768"
         r="2.1719928" />
      <circle
         id="path3707"
         style="fill:#999999;stroke-width:0.31187588"
         transform="rotate(2.834766)"
         cx="268.98987"
         cy="564.86768"
         r="2.1719928" />
      <ellipse
         id="path3922"
         style="fill:#1a1a1a;stroke-width:0.08829375"
         transform="rotate(2.8349156)"
         cx="269.2706"
         cy="563.60339"
         rx="1.40324"
         ry="1.4347734" />
      <path
         id="path3701"
         style="fill:#ffffff;stroke-width:0.31187472"
         d="m 239.60161,574.96192 c 0.3653,-1.00705 2.68334,-5.95338 3.39913,-6.5344 1.07805,-0.8754 3.05787,-0.70032 3.57127,-0.26528 1.57042,1.3307 2.27872,4.20376 0.41898,5.21174 -1.39352,0.75523 -3.07936,4.10801 -5.05986,3.91153 -1.09131,-0.10838 -2.70349,-1.29238 -2.32952,-2.32334 z" />
      <ellipse
         id="path3926"
         style="fill:#1a1a1a;stroke-width:0.08829375"
         transform="rotate(2.8349156)"
         cx="273.36429"
         cy="564.86517"
         rx="1.40324"
         ry="1.4347734" />
      <path
         id="path3713"
         style="fill:#999999;stroke-width:0.31187472"
         d="m 244.27662,576.43708 c -0.60489,0.50783 -0.49819,2.11455 0.75623,2.24544 2.17766,0.22723 3.84292,0.42686 4.23994,0.36767 0.3972,-0.0592 2.51361,-1.12983 2.47678,-2.24307 -0.0448,-1.35428 -1.83903,-2.38543 -3.18705,-2.5235 -1.59056,-0.16291 -2.41151,0.57978 -4.28609,2.15346 z" />
      <path
         id="path4002"
         style="fill:#f9f9f9;stroke-width:0.31187472"
         d="m 249.15745,577.40701 c -0.65493,-0.70171 -0.25885,-2.33906 -0.25885,-2.33906 l 2.42554,-0.41217 -2.16678,2.75127 z" />
      <ellipse
         id="path3928"
         style="fill:#1a1a1a;stroke-width:0.08829375"
         transform="rotate(2.8349156)"
         cx="278.4838"
         cy="564.0777"
         rx="1.40324"
         ry="1.4347734" />
      <path
         id="path3715"
         style="fill:#ffffff;stroke-width:0.31187472"
         d="m 250.34258,575.00246 c -0.61742,1.3396 -0.72202,3.43405 -0.21813,4.40523 0.50389,0.97124 2.60593,3.91434 4.75702,4.2574 3.149,0.50206 4.48632,-3.49331 3.45027,-5.97988 -1.21781,-2.92305 -7.35806,-4.05219 -7.98929,-2.68247 z" />
      <path
         id="path3992"
         style="fill:#999999;stroke-width:0.31187472"
         d="m 242.6112,568.91778 c -0.94214,1.41464 -2.69837,5.18211 -3.01218,6.04726 -0.37396,1.03096 1.24301,2.21253 2.33436,2.3209 1.98034,0.19666 3.65953,-3.15149 5.05299,-3.90685 0.59072,-0.32017 0.919,-0.83433 1.04621,-1.42165 l -3.23039,-1.36994 c -0.58758,0.19516 -0.99548,0.86402 -1.76593,0.58586 0,0 -0.65475,-0.31662 -0.42499,-2.25564 z" />
      <ellipse
         id="path3924"
         style="fill:#1a1a1a;stroke-width:0.08829375"
         transform="rotate(2.8349156)"
         cx="272.49875"
         cy="556.90802"
         rx="1.40324"
         ry="1.4347734" />
      <path
         id="path3703"
         style="fill:#ffffff;stroke-width:0.31187472"
         d="m 245.21848,575.358 c 1.55401,1.17798 3.73407,0.66981 5.01245,0.11835 1.08357,-0.4674 2.61201,-2.52172 1.83594,-4.77074 -0.26822,-0.77732 -2.81121,-4.51969 -4.98688,-3.82296 -1.38082,0.44214 -2.99452,1.33033 -3.23507,2.76015 -0.2603,1.54743 -0.0876,4.60764 1.37362,5.71542 z" />
      <ellipse
         id="path3918"
         style="fill:#1a1a1a;stroke-width:0.08829375"
         transform="rotate(2.8349156)"
         cx="266.98468"
         cy="569.90552"
         rx="1.40324"
         ry="1.4347734" />
      <path
         id="path3721"
         style="fill:#ffffff;stroke-width:0.31187472"
         d="m 237.16587,583.10497 c -0.69139,1.70155 0.12121,6.79824 0.98284,7.22457 1.77033,0.87625 3.63553,1.29257 4.63665,-1.2687 0.57466,-1.4704 -1.27015,-3.10362 -1.79987,-5.05705 -0.54986,-2.02775 -2.943,-3.05587 -3.81952,-0.89882 z" />
      <path
         id="path3982"
         style="fill:#999999;stroke-width:0.31187472"
         d="m 238.32605,581.94791 c -0.4676,0.11867 -0.88585,0.47848 -1.15974,1.15256 -0.6914,1.70156 0.1172,6.80386 0.97882,7.23051 0.83342,0.41251 1.69001,0.71282 2.46543,0.65877 0.23587,-0.67228 0.39854,-1.15122 0.39854,-1.15122 0,0 -2.27291,-0.22751 -2.13581,-1.40356 0.1371,-1.17605 1.7271,-1.37818 1.7271,-1.37818 0,0 -1.1952,-2.33762 -2.27438,-5.10882 z" />
      <ellipse
         id="path3920"
         style="fill:#1a1a1a;stroke-width:0.08829375"
         transform="rotate(2.8349156)"
         cx="269.82199"
         cy="577.07184"
         rx="1.40324"
         ry="1.4347734" />
      <path
         id="path3723"
         style="fill:#ffffff;stroke-width:0.31187472"
         d="m 239.49246,590.23754 c -0.49114,3.07315 1.39561,6.0931 3.2516,5.99642 2.05042,-0.10675 3.64488,-0.26689 5.77748,-0.42362 1.70268,-0.12515 2.0594,-4.48351 1.16133,-5.9356 -2.7673,-3.0478 -7.45318,-2.50096 -10.19051,0.36283 z" />
      <path
         id="path3878"
         style="fill:#999999;stroke-width:0.31187472"
         d="m 181.0908,620.62349 c -2.47672,3.52824 -5.67612,7.56889 -6.98413,12.35898 -1.59945,5.85887 -3.4933,12.5489 -1.7576,12.8327 2.93955,0.48026 4.47915,0.62257 5.5442,0.55751 1.02507,-4.21249 3.02412,-19.48219 3.19734,-25.74931 z" />
      <path
         id="path3884"
         style="fill:#999999;stroke-width:0.31187472"
         d="m 174.94998,648.90118 c -0.2248,0.30276 -0.36183,0.60004 -0.38504,0.87867 -0.15317,1.83994 0.64399,6.05037 5.45875,6.0276 1.30837,-0.006 2.87757,0.0252 4.5044,0.0767 l 0.63885,-5.41321 c 0,0 -6.39531,0.41938 -10.21702,-1.56954 z" />
      <path
         id="path3890"
         style="fill:#999999;stroke-width:0.31187472"
         d="m 203.90131,593.90207 c -1.02878,5.47621 -2.2483,11.09868 -2.39769,16.69434 0.61449,1.92299 0.97608,4.06778 4.19752,4.30637 1.25577,0.0929 2.10478,-0.24095 2.73243,-0.79173 -0.51029,-0.79731 -0.53867,-2.22897 -0.57756,-3.00341 -0.11232,-2.23596 3.70507,-16.21156 3.70507,-16.21156 0,0 -4.87273,2.70744 -7.65964,-0.99404 z" />
      <path
         id="path3902"
         style="fill:#999999;stroke-width:0.31187472"
         d="m 208.42038,617.74177 c -2.15496,3.01343 -4.54963,5.6256 -4.95756,6.1168 -0.75471,0.9089 -1.69679,2.35837 -1.85725,4.00634 -0.16046,1.64804 -1.97934,9.62508 -2.07552,11.56775 -0.10128,2.04527 1.01081,2.33603 2.4819,2.49409 2.39045,0.25684 5.75564,-1.29353 8.10375,-2.65299 l 0.46681,-21.05435 c 0,0 -1.11682,0.90029 -2.16213,-0.47786 z" />
      <path
         id="path3907"
         style="fill:#999999;stroke-width:0.31187472"
         d="m 210.3696,638.86817 c -3.26346,0.28433 -5.89038,2.51233 -9.38213,2.85315 -1.35057,0.13181 -2.07681,0.62038 -1.95059,1.1622 0.39019,1.6753 0.67081,2.49487 1.65874,3.15586 2.70161,0.55835 12.23734,1.30152 14.40081,0.63501 0.88055,-0.53356 1.24925,-0.71881 1.20889,-2.14545 -0.0419,-1.48175 -0.40793,-2.98286 -0.88547,-4.38621 -0.0405,-0.11916 -0.0974,-0.22026 -0.15006,-0.31967 -1.68836,0.60317 -4.45856,1.1628 -4.90018,-0.95496 z" />
      <path
         id="path3913"
         style="fill:#999999;stroke-width:0.31187472"
         d="m 226.51847,640.68016 c -3.49955,-0.16005 -7.62378,-0.12908 -9.946,0.0539 0.16312,2.99715 1.16922,6.73462 2.42651,6.7655 3.15056,0.0771 11.73179,0.90665 14.04466,1.31994 0.64592,0.11543 1.18631,0.11419 1.64747,0.0328 -0.46079,-2.97712 -1.24254,-6.89368 -2.23801,-7.4195 -0.71319,-0.37684 -3.11597,-0.62359 -5.93466,-0.75249 z" />
      <circle
         id="path3944"
         style="fill:#b3b3b3;stroke-width:0.31187588"
         transform="rotate(2.834766)"
         cx="197.89415"
         cy="591.11725"
         r="2.1719928" />
      <path
         id="path3950"
         style="fill:#ffffff;stroke-width:0.31187472"
         d="m 171.64723,595.82322 c -0.27105,-0.0134 -0.53253,0.029 -0.77622,0.10793 -0.81181,2.67143 0.576,3.63022 1.99874,3.77774 0.48347,-0.37491 0.8081,-0.94854 0.84072,-1.60747 0.0593,-1.19809 -0.86514,-2.21886 -2.06324,-2.27821 z" />
      <path
         id="path3939"
         style="fill:#ffffff;stroke-width:0.31187472"
         d="m 164.71114,598.48975 c -0.27106,-0.0134 -0.53253,0.029 -0.77623,0.10793 -0.81181,2.67142 0.576,3.63022 1.99874,3.77774 0.48347,-0.37491 0.8081,-0.94854 0.84073,-1.60747 0.0593,-1.1981 -0.86515,-2.21886 -2.06324,-2.27821 z" />
      <path
         id="path3946"
         style="fill:#ffffff;stroke-width:0.31187472"
         d="m 168.52536,598.00946 c -0.27105,-0.0134 -0.53252,0.029 -0.77622,0.10794 -0.81181,2.67142 0.576,3.63022 1.99874,3.77773 0.48347,-0.3749 0.8081,-0.94853 0.84072,-1.60746 0.0593,-1.1981 -0.86514,-2.21887 -2.06324,-2.27821 z" />
      <path
         id="path3987"
         style="fill:#999999;stroke-width:0.31187472"
         d="m 243.64663,589.96621 c 0,0 -2.76683,-0.64858 -4.18411,0.5649 -0.33156,2.9692 1.48215,5.79837 3.27905,5.70481 1.9611,-0.1021 3.52699,-0.25945 5.52392,-0.40955 -1.59408,-0.21691 -3.42095,-0.4612 -3.81204,-0.65715 -2.26995,-1.13754 -0.80667,-5.20301 -0.80667,-5.20301 z" />
      <path
         id="path3997"
         style="fill:#999999;stroke-width:0.31187472"
         d="m 245.44615,567.61415 c -0.79822,0.49008 -1.45724,1.16086 -1.60317,2.02834 -0.2603,1.54743 -0.0855,4.61044 1.37575,5.71791 0.96572,0.73203 2.17467,0.8057 3.25722,0.62967 -0.86396,-0.34986 -1.97564,-0.96996 -2.18575,-1.97201 -0.1395,-0.66535 0.0105,-1.8163 1.15079,-2.54842 0,0 -1.1709,-2.05654 -1.99488,-3.85571 z" />
      <path
         id="path4009"
         style="fill:#999999;stroke-width:0.31187472"
         d="m 250.28332,575.1428 c -0.56387,1.34156 -0.6496,3.32708 -0.16244,4.26583 0.50389,0.97124 2.60487,3.91278 4.75609,4.25584 0.78174,0.12464 1.45857,-0.0214 2.00841,-0.35919 -0.51023,-0.44439 -1.23269,-0.47161 -1.84543,-1.75024 -0.35778,-0.74663 0.88404,-3.77711 1.18693,-4.26395 0.29998,-0.48213 -2.13737,-1.48256 -5.9437,-2.14832 z" />
      <ellipse
         id="path4019"
         style="fill:#ffffff;stroke-width:0.31187332"
         transform="rotate(17.578451)"
         cx="317.80185"
         cy="450.14548"
         rx="1.0318484"
         ry="0.60191166" />
      <ellipse
         id="path4021"
         style="fill:#ffffff;stroke-width:0.31187332"
         transform="rotate(17.578451)"
         cx="365.00867"
         cy="430.52036"
         rx="1.0318484"
         ry="0.60191166" />
      <ellipse
         id="path4023"
         style="fill:#ffffff;stroke-width:0.31187332"
         transform="rotate(17.578451)"
         cx="351.46704"
         cy="504.41479"
         rx="1.0318484"
         ry="0.60191166" />
      <ellipse
         id="path4025"
         style="fill:#ffffff;stroke-width:0.31187332"
         transform="rotate(17.578451)"
         cx="377.51193"
         cy="495.60748"
         rx="1.0318484"
         ry="0.60191166" />
      <path
         id="path4029"
         style="fill:#ffffff;stroke-width:0.31187472"
         d="m 199.90932,523.21254 c -2.06857,0.33589 -3.98358,0.85747 -4.72584,1.23946 -0.71263,0.36676 -0.95234,0.6302 -1.3206,1.04234 8.41563,-3.00834 13.85067,-2.32265 15.76433,-0.67611 0.80383,0.69165 1.34009,0.86461 1.82453,2.15206 -0.29093,-2.36136 -2.26063,-3.55288 -4.37529,-4.05655 -2.37399,-0.37394 -4.80942,-0.0428 -7.16751,0.29888 z" />
    </g>
  </g>
  <metadata
     id="metadata114">
    <rdf:RDF>
      <cc:Work>
        <dc:format>image/svg+xml</dc:format>
        <dc:type
           rdf:resource="http://purl.org/dc/dcmitype/StillImage" />
        <cc:license
           rdf:resource="http://creativecommons.org/publicdomain/zero/1.0/" />
        <dc:publisher>
          <cc:Agent
             rdf:about="http://openclipart.org/">
            <dc:title>Openclipart</dc:title>
          </cc:Agent>
        </dc:publisher>
        <dc:title>robot</dc:title>
        <dc:date>2011-03-06T17:23:36</dc:date>
        <dc:description />
        <dc:source>https://openclipart.org/detail/125863/robot-by-tzunghaor</dc:source>
        <dc:creator>
          <cc:Agent>
            <dc:title>tzunghaor</dc:title>
          </cc:Agent>
        </dc:creator>
        <dc:subject>
          <rdf:Bag>
            <rdf:li>droid</rdf:li>
            <rdf:li>machine</rdf:li>
            <rdf:li>robot</rdf:li>
          </rdf:Bag>
        </dc:subject>
      </cc:Work>
      <cc:License
         rdf:about="http://creativecommons.org/publicdomain/zero/1.0/">
        <cc:permits
           rdf:resource="http://creativecommons.org/ns#Reproduction" />
        <cc:permits
           rdf:resource="http://creativecommons.org/ns#Distribution" />
        <cc:permits
           rdf:resource="http://creativecommons.org/ns#DerivativeWorks" />
      </cc:License>
    </rdf:RDF>
  </metadata>
</svg>
