<?xml version="1.0" encoding="UTF-8" standalone="no"?>
<!-- Created with Inkscape (http://www.inkscape.org/) -->

<svg
   xmlns:dc="http://purl.org/dc/elements/1.1/"
   xmlns:cc="http://creativecommons.org/ns#"
   xmlns:rdf="http://www.w3.org/1999/02/22-rdf-syntax-ns#"
   xmlns:svg="http://www.w3.org/2000/svg"
   xmlns="http://www.w3.org/2000/svg"
   xmlns:sodipodi="http://sodipodi.sourceforge.net/DTD/sodipodi-0.dtd"
   xmlns:inkscape="http://www.inkscape.org/namespaces/inkscape"
   id="svg2"
   sodipodi:docname="réteg.svg"
   viewBox="0 0 350.48 513.02"
   version="1.1"
   inkscape:version="0.92.2 (5c3e80d, 2017-08-06)">
  <defs
     id="defs117" />
  <title
     id="title4055">robot</title>
  <sodipodi:namedview
     id="base"
     bordercolor="#666666"
     inkscape:pageshadow="2"
     inkscape:window-y="34"
     pagecolor="#ffffff"
     inkscape:window-height="838"
     inkscape:window-maximized="1"
     inkscape:zoom="0.45337078"
     inkscape:window-x="0"
     showgrid="false"
     borderopacity="1.0"
     inkscape:current-layer="svg2"
     inkscape:cx="-352.48585"
     inkscape:cy="297.66266"
     inkscape:window-width="1600"
     inkscape:pageopacity="0.0"
     inkscape:document-units="px" />
  <g
     id="layer2"
     inkscape:label="Réteg"
     inkscape:groupmode="layer"
     transform="translate(-150.5 -144.21)">
    <path
       id="path3874"
       style="fill:#000000"
       sodipodi:type="inkscape:offset"
       d="m292.72 145.53c-14.089 0.50317-31.532 2.5739-46.656 4.9375-14.786 2.3108-26.753 4.7035-32.219 6.5312-0.13898 0.0237-0.26729 0.0991-0.40625 0.125-0.0326 0.0113-0.12414 0.02-0.15625 0.0312-3.0618 0.59077-6.0939 1.6824-8.5625 3.9062-6.5825 5.9298-8.0459 12.173-8.3125 15.469l-0.625 0.53125c-0.55725 0.32238-1.1203 0.62815-1.5938 1-1.6568 1.3014-3.1469 2.7174-4.5312 4.1562-0.01 0.0103-0.0213 0.0209-0.0312 0.0312l-1.9375 1.5938a3.6425 3.6425 0 0 0 -1.2812 2.3125c-7.0586 9.3205-9.8191 20.712-9.8438 32.844-1.1632-0.73493-3.0242-0.93619-4.1562-0.46875-3.7053 1.53-5.7646 4.7594-7.625 8.1875-1.7933 3.3044-3.2074 6.9648-4.1875 10.125-0.63778 0.98473-1.0516 2.0366-1.3438 3.25-0.59956 2.4901-1.8976 8.1538-2.9062 13.812-0.5043 2.8294-0.93799 5.6271-1.1875 8.0938-0.24951 2.4666-0.47237 4.3299 0.0937 6.5 0.59343 2.2748 1.4828 4.9978 3.0312 7.4688 1.4209 2.2674 3.7416 4.5127 6.9375 5.0625-7.9902 25.796-6.8018 54.029-7.4375 79.438-0.0446 1.7817 0.64203 3.2969 1.7812 4.4688 0.0151 0.0155 0.0471 0.0158 0.0625 0.0312-0.26153 1.1715-0.4375 2.4027-0.4375 3.6562 0 0.83573 0.13087 1.6366 0.25 2.4375-0.8404 0.26064-1.7507 0.41363-2.5312 0.75v-0.0312c-0.13751 0.0357-0.26909 0.11085-0.40625 0.15625-0.0663 0.0301-0.1529 0.0317-0.21875 0.0625-0.26232 0.0962-0.54371 0.19258-0.78125 0.3125-0.47725 0.24091-0.71587 0.46358-1 0.6875v-0.0312c0.13668-0.0851-0.0363-0.004-0.5 0.3125l0.0625 0.0937a3.6425 3.6425 0 0 0 -0.625 0.53125c-2.3618 2.5084-3.0181 5.7028-3.4375 9.1562-0.41942 3.4534-0.39996 7.2623-0.125 10.938 0.27496 3.6752 0.80336 7.1892 1.4375 10.031 0.31707 1.421 0.66027 2.6607 1.0625 3.75s0.44861 1.9997 2.0938 3.2812c3.7943 2.9557 8.5392 10.308 12.625 18.844s7.7405 18.26 10.531 26.188c1.0658 3.0273 3.2338 5.9593 5.5938 8.9062 2.36 2.947 4.6763 5.5072 6.75 7.0625 1.0166 0.76243 2.1048 1.3143 3.2188 1.7812-2.5693 1.9471-4.3438 4.9061-4.3438 8.3438 0 3.0561 1.3633 5.8014 3.4688 7.75 0.12114 0.39001 0.13773 0.82346 0.3125 1.1875 0.004 0.008-0.004 0.0236 0 0.0312-0.32111 0.9231-0.46376 1.9347-0.5 2.9688h-0.0312c-0.65373 6.5374-2.3296 12.105-4.25 20.875-2.7567 0.88579-4.8332 2.8542-6.2188 4.9062-1.6632 2.4633-2.6386 5.1353-3.25 7.3125-0.94606 3.3688-0.85478 6.5833 0.28125 9.25s3.2679 4.6196 5.6875 5.7188c4.8391 2.1983 10.748 1.4876 15.594-1.6875 0.8932-0.58526 1.5463-1.3547 2.25-2.0938 0.59456 2.0798 1.5911 3.9525 3.0312 5.2188 3.944 3.4676 9.247 4.2497 13.438 1.5312 2.954-1.9162 5.2235-5.0894 7.25-8.4375 1.0219 0.30169 2.0318 0.28316 3.0625 0.3125 2.3954 4.1887 5.2509 8.0381 8.9375 11.094a3.6425 3.6425 0 0 0 0.53125 0.375c1.0841 0.60979 2.276 0.873 3.4688 0.96875 1.1806 0.97094 2.4885 1.8122 3.9062 2.4375-5.8128 9.2436-11.724 19.619-14.344 31.5-2.0938 9.4956-4.4193 19.714-5.5312 27.875-0.55596 4.0802-0.81348 7.5956-0.5 10.594 0.15674 1.4991 0.43011 2.9181 1.2188 4.3125 0.56004 0.99021 1.6518 1.8067 2.875 2.375-0.76938 2.6483-0.80616 5.2726-0.5625 7.3438 0.27887 2.3704 0.80284 5.1974 1.9688 7.8438 0.58295 1.3232 1.3145 2.6184 2.4688 3.75s2.8564 2.0613 4.75 2.1875c0.0903 0.006 0.29996 0.0249 0.40625 0.0312 3.1178 5.6252 9.2889 10.789 19.219 10.25 7.5479-0.40981 18.153-0.47329 27.438-0.65625 4.6423-0.0915 8.957-0.19227 12.469-0.40625 3.5117-0.21398 5.8536-0.27989 8.1875-1.1875 1.785-0.69414 5.1654-1.3072 8.375-3.6562 3.2096-2.3491 5.7-6.704 5.8438-13.031 0.15883-6.9883-3.6427-13.24-8.5-17.812-4.8573-4.5729-10.869-7.742-16.781-7.9062-4.336-0.12044-10.642-0.52663-16.844-0.625 0.15462-3.5837 0.23953-7.6135 0.0937-13.938-0.18369-7.9688-0.5685-17.52-1.0625-26.875-0.494-9.3548-1.0977-18.506-1.75-25.688-0.32617-3.5909-0.65316-6.6976-1-9.125s-0.38117-3.7431-1.3438-5.6562c-1.0315-2.0502-2.1054-3.6402-3.5938-4.8125-0.6833-0.5382-1.5323-0.9063-2.4062-1.1562-0.45887-0.78469-0.95986-1.522-1.5312-2.2188 0.74921-1.4796 1.5932-3.0534 2.125-4.25 1.6072-3.6163 0.93281-7.3207 0.0625-12.062-0.87031-4.7418-2.3633-10.287-4.125-16.031-2.9031-9.4666-6.3301-18.788-9-26.031 5.8944-0.88589 10.772-4.548 13.719-9.5312 3.8543 1.642 7.7576 2.9168 11.656 3.1875 3.5576 0.24704 7.8836-0.52235 12.031-1.7188 2.1069 1.4221 4.1613 2.6749 6.25 3.4375 2.0801 0.75942 4.3625 1.1123 6.5625 0.625 2.1149 0.79982 4.3494 1.3212 6.6875 1.1875 3.1002-0.1773 5.8073-1.5035 8.3125-3.4375-0.13807 1.2124-0.28438 2.3434-0.46875 3.9062-0.55149 4.6747-1.2668 10.685-1.9375 16.75-0.67072 6.0647-1.3014 12.159-1.6562 17.094-0.17741 2.4672-0.26777 4.6602-0.28125 6.4375-0.0135 1.7773-0.19609 2.8 0.5 4.6562 0.84891 2.2638 1.6515 4.9671 3.1875 7.625 1.2509 2.1645 3.1674 4.2531 5.7812 5.7188 1.3676 5.3111 5.1177 9.6906 10.094 11.688-4.6701 6.5723-8.9808 12.047-10.188 13.656-2.5209 3.3612-5.7231 8.6541-6.0312 15.125-0.0901 1.892-1.295 10.084-2.4688 18-1.1737 7.9157-2.375 15.556-2.375 19.562 0 2.321 0.55262 4.2967 1.4688 6.0312-0.75518 0.5725-1.472 1.2522-1.9688 2.25-0.55197 1.1086-0.73509 2.5834-0.375 3.8438 0.77456 2.711 1.4474 4.9124 2.5625 6.9375s2.7808 3.7752 4.875 5.0312a3.6425 3.6425 0 0 0 1.3125 0.46875c4.893 0.76114 14.645 1.2968 24.375 1.375 4.865 0.0391 9.6508-0.0587 13.75-0.3125 4.0992-0.25379 7.314-0.52742 9.9062-1.4688a3.6425 3.6425 0 0 0 0.8 -0.4c0.27022-0.1826 0.52092-0.38197 0.78125-0.5625 1.3548 0 2.6601-0.20573 3.9062-0.5625 0.31829 0.43792 0.53341 0.97914 0.90625 1.375 1.1597 1.2313 2.8572 2.4622 5.0938 2.4062 9.6246-0.24062 37.862 1.1028 44.625 1.9688 5.5757 0.71393 10.041-0.86518 12.812-3.625 2.7719-2.7598 3.943-6.1234 4.9688-8.7812 2.8405-7.3604 1.2908-16.674-4.7812-22.188-7.42-6.7378-16.67-8.7725-25.906-8.9375-9.2366-0.16497-18.677 1.4133-27.344 2.1875-2.301 0.20556-5.878 0.83254-9.2812 2.0312-1.7016 0.59935-3.3579 1.2981-4.8438 2.4062-0.81467 0.60758-1.6476 1.4582-2.25 2.5-0.23437 0.0352-0.45642 0.10975-0.6875 0.15625-1.37-0.96437-2.8397-1.3199-4.3125-1.5625 2.1878-2.2588 4.1378-5.0529 4.4062-8.6875 1.4723-19.932-0.71066-54.213-4.0625-80.562-0.53099-4.1742-3.7403-7.1142-7.5938-7.4062-0.43112-0.0327-0.89332 0.13013-1.3438 0.1875 3.1702-11.057 4.8531-23.938 5.5938-35.656 0.5108-8.0814 0.56683-15.562 0.3125-21.375-0.12716-2.9066-0.3412-5.3977-0.625-7.4062-0.2838-2.0086-0.27633-3.2474-1.4688-5.0938-1.3507-2.0914-2.418-4.157-3.9062-5.9688-0.74412-0.90585-1.6287-1.8462-3.125-2.4375-1.4963-0.59135-3.5905-0.39544-4.9688 0.40625-0.86369 0.5024-1.6266 1.1384-2.4375 1.7188-0.4335-0.23292-0.82919-0.51884-1.2812-0.71875 1.4421-5.3266 2.504-11.043 2.9688-16.188 0.283-3.1322 0.3891-6.0013 0.28125-8.375-0.0539-1.1869-0.14457-2.2523-0.34375-3.25-0.19918-0.99766-0.35823-1.9322-1.3125-3.125-1.2657-1.5821-1.966-1.3791-2.5625-1.5312-0.59645-0.15211-1.1486-0.24051-1.7812-0.3125-0.22948-0.0261-0.59597-0.0404-0.84375-0.0625l0.21875-3.0938c3.4608-1.2178 6.1896-3.3812 8.0312-5.9062 2.3211-3.1824 3.4382-6.78 3.8438-10 1.693-13.443 2.5548-29.593 3.0312-43.469 1.5412-2.8699 2.9687-5.8768 4.1562-9.0312 0.32877 0.9034 0.80823 2.0917 1.0938 2.9062 0.64149 1.8302 1.1562 3.4164 1.5 4.5938 0.34377 1.1773 0.4375 2.2727 0.4375 1.6875 0 1.8086 0.76944 3.8776 2.25 5.0938-0.2652 1.1858-0.46875 2.3929-0.46875 3.6562 0 4.7565 2.008 9.048 5.1875 12.094a3.6425 3.6425 0 0 0 -0.4375 1.0625c-0.82325 3.7046-0.99489 7.9129-0.59375 11.812 0.40114 3.8996 1.0632 7.4636 3.6562 10.219 2.0914 2.2222 14.803 15.056 25.125 22.562 3.8321 2.7868 8.6189 7.9311 12.969 12.531 2.1749 2.3 4.265 4.4534 6.25 6.2188s3.6621 3.2758 6.3125 3.8438c0.4295 0.092 0.99384 0.20338 1.5 0.3125 0.28947 0.45261 0.58606 0.88079 0.9375 1.2812-0.60319 3.8969-0.0734 8.2739 0.78125 12.562 0.51237 2.5709 1.1777 4.9986 1.9688 7.0312 0.39555 1.0163 0.82687 1.949 1.375 2.8125 0.54813 0.86353 1.1364 1.7944 2.6875 2.4688 0.6785 0.295 1.4392 0.48631 2.1562 0.75 0.42293 4.3452 1.9161 8.3326 4.125 11.469 2.657 3.7724 6.5312 6.7242 11.188 6.25 6.6431-0.67654 11.746-1.4474 18.5-2.2812 2.8822-0.35585 4.894-2.5294 5.9688-4.625s1.5789-4.4163 1.8125-6.8125c0.46712-4.7923 0.16307-9.6637-2.4375-13.438a3.6425 3.6425 0 0 0 -0.4375 -0.53125c-6.226-6.2101-14.652-7.7471-22.406-6.0625-0.68165-1.3646-1.4841-2.6368-2.25-3.8438-1.3465-2.1219-2.5732-4.1344-3.1875-5.9688 1.6818 1.1105 3.6045 1.9062 5.75 1.9062 3.1323 0 5.9318-1.4393 7.875-3.625 1.9593 0.55688 4.0267 0.95402 6.3438 1.125 1.8136 0.13383 3.6353 0.1668 5.375-0.0937 0.53848-0.0806 1.0805-0.26745 1.625-0.40625 0.43138 0.84787 0.5828 1.3014 1.125 2.25 1.4248 2.4928 2.8924 5.053 5.4375 6.875 2.7653 1.9797 6.0628 2.483 9.25 2.375 3.1872-0.10799 6.3188-0.84656 8.9375-2.5 3.0816-1.9457 4.1421-5.545 4.0938-8.4062-0.0435-2.5771-0.71434-4.9221-1.375-6.9688 2.1694-5.0752 2.2966-11.009-0.0937-16.031-2.391-5.0235-7.3503-7.8916-12.344-9.625-2.7397-0.95102-5.523-1.5366-8.1562-1.7812 0.72969-2.9972 0.78474-6.3161-0.59375-9.75-0.57028-1.4206-1.3505-2.5206-2.5312-4.0625s-2.687-3.2539-4.4688-4.875-3.8259-3.1572-6.1875-4.1562c-2.3616-0.99902-5.239-1.4552-8.0312-0.40625-2.0197 0.75873-4.1408 1.8448-6.125 3.25-2.6277 0.23308-5.4836 0.88464-7.875 3.0312-1.7164 1.5406-2.1218 2.8229-3.125 4.7812-1.0032 1.9584-2.1073 4.3201-3.1562 6.7188-1.2924 2.9554-1.9568 4.8594-2.8438 7.1562-2.2363-1.8559-4.3554-3.6222-6.75-5.6562-3.8361-3.2585-7.3558-6.7134-8.625-8.8125-4.5306-7.493-9.9745-18.018-14.062-27.438-1.1993-2.7635-3.1586-4.8583-5.4375-5.9375-0.65622-0.31077-1.33-0.37357-2-0.53125 0.00034-0.0438 0.0312-0.0812 0.0312-0.125 0-5.6845-2.9146-10.612-7.25-13.625 0.11838-1.3135 0.0733-2.6123-0.0937-3.8438-3.2201-23.741-2.749-46.684-13.031-69.906 0.15614-0.0606 0.31277-0.0931 0.46875-0.15625 1.3528-0.54757 2.7493-1.4694 3.5938-2.9375 0.84449-1.4681 0.93007-3.0485 0.8125-4.3438-0.23513-2.5904-1.0871-4.9939-1.875-8.6562-1.7524-8.1457-5.4652-18.217-9.9062-24.219-2.405-3.25-4.4226-5.4758-6.5938-6.9375-1.0856-0.73087-2.2502-1.3165-3.625-1.5s-2.966 0.1649-4.125 0.9375c-1.9706 1.3136-2.6997 3.1835-3.2188 5.125-1.2964-6.1037-2.6225-11.913-4.0625-16.844-2.087-7.1455-4.1104-12.652-7.0312-16.281-4.0876-5.0785-7.4172-8.3396-12.562-10.375-3.0656-1.2127-6.4136-1.2376-9.3125-1.2188-2.0192 0.0131-2.7727 0.11834-3.6562 0.1875-5.17-4.1611-9.382-9.0447-21.406-13.625a3.6425 3.6425 0 0 0 -1.4062 -0.21875zm-88.56 158.97c3.1957 5.788 6.1043 10.727 7.7812 13.375 5.2918 8.355 12.041 21.34 17.312 33.062 2.6358 5.8614 4.9003 11.422 6.4375 15.906 1.5372 4.4845 2.1688 8.2682 2.125 8.75-0.18503 2.0354 0.53742 4.0103 1.625 5.4688 1.0876 1.4584 2.4818 2.5628 4.0312 3.5 2.387 1.4438 5.2883 2.4714 8.3125 3.3438l0.0937 2.5312c-1.4787 0.0746-3.0864 0.14642-4.0312 0.1875a3.6425 3.6425 0 0 0 -1.4062 0.34375c-2.8344-0.0383-5.688 0.43361-8.2188 1.9375-3.3059 1.9645-6.0218 5.555-6.4688 10.094-0.3923 3.9837 0.20226 10.304 1.4688 16.75 0.63324 3.2232 1.4445 6.405 2.5 9.1875 0.59585 1.5708 1.2904 2.9794 2.125 4.2812-2.1082 2.1529-3.69 4.7802-4.6562 7.7188-1.6278-1.165-3.4046-2.9847-6.6562-4.3125a3.6425 3.6425 0 0 0 -0.0625 -0.0312c-1.1103-0.42706-2.6286-0.66187-4.0938-0.0312-1.4652 0.63062-2.2804 1.9308-2.625 2.8438-0.68925 1.826-0.47579 3.0569-0.5 3.7188a3.6425 3.6425 0 0 0 -0.0312 0.125c-0.0188 6.0004-0.20518 12.529-0.34375 19.062-0.66626-1.6775-1.5992-3.2389-2.8125-4.5312 0.894-2.6121 1.572-5.0351 1.8125-6.7188 0.20288-1.4201-0.0976-2.1922-0.375-3-0.27738-0.80783-0.62944-1.5955-1.0625-2.5-0.86612-1.809-2.0646-4.0442-3.5-6.875-2.8707-5.6617-6.7198-13.665-10.625-24.562-3.0226-8.4349-4.5466-17.852-5.5312-25.375-0.49232-3.7613-0.8713-7.0222-1.25-9.5938-0.18935-1.2858-0.36445-2.4059-0.625-3.4062-0.26055-1.0004-0.14512-1.9284-1.875-3.3438-0.45057-0.36865-0.89843-0.5392-1.3438-0.78125 0.17712-0.97484 0.3125-1.974 0.3125-3 0-0.97392-0.24721-1.8992-0.40625-2.8438 1.2196-1.8696 1.6338-3.9455 2.2812-6.5 0.82994-3.2743 1.5494-7.1918 2.1875-11.188 1.2762-7.9914 2.2816-16.455 2.875-19.719 0.50065-2.7536 3.0305-13.998 5.2188-23.875zm3.0625 186.59c0.0928 0.49213 0.14946 0.98109 0.3125 1.4688h-0.0312c1.863 7.2605 2.1637 13.721 3.5625 24.031 0.0501 0.36951 0.26828 0.58297 0.375 0.90625-2.2629 1.9003-3.7014 3.7579-4.9062 5.5625-0.24336-1.254-0.52518-2.4119-0.90625-3.4688 2.271-5.7029 3.2386-14.433 2.0938-23.25-0.20871-1.6072-0.58697-3.0114-1.0625-4.2812 0.20719-0.31409 0.39885-0.62703 0.5625-0.96875z"
       inkscape:original="M 292.84375 149.15625 C 265.17886 150.14428 223.3506 157.49257 214.46875 160.59375 C 211.65455 161.07394 209.08393 162.04471 207.15625 163.78125 C 199.36802 170.79723 199.93254 177.69841 200 178.3125 L 198.125 179.875 C 197.52648 180.15703 196.97591 180.5146 196.4375 180.9375 C 194.80964 182.21612 193.3238 183.59566 191.96875 185.03125 L 190 186.65625 L 190.28125 186.9375 C 179.2512 200.25409 178.378 219.19692 182.1875 238.59375 C 180.53495 239.70108 179.11604 241.10887 177.96875 242.75 C 177.23527 237.35395 176.54813 232.13528 176.125 227.78125 C 175.69811 223.38854 174.99582 221.40472 173.78125 221.90625 C 169.5218 223.66508 165.81829 232.19471 163.96875 238.28125 C 163.51945 238.72946 163.10515 239.59228 162.78125 240.9375 C 161.62207 245.75183 157.70982 263.4866 158.78125 267.59375 C 159.85267 271.70089 162.14765 277.3313 166.28125 277.59375 C 166.59781 277.61385 166.84088 277.64015 167.125 277.65625 C 167.87444 278.04647 168.77406 278.37262 169.71875 278.65625 C 160.76179 304.47313 162.1071 333.799 161.4375 360.5625 C 161.4041 361.89562 162.59486 363.28948 164.0625 363.09375 C 163.29381 364.77113 162.84375 366.65016 162.84375 368.625 C 162.84375 370.354 163.18342 371.9902 163.78125 373.5 C 161.53242 373.93712 159.4786 374.53347 157.8125 375.3125 C 157.58698 375.3711 157.37639 375.45137 157.15625 375.5625 C 156.90539 375.68913 156.66001 375.87409 156.4375 376.0625 C 156.31397 376.1394 156.17949 376.20148 156.0625 376.28125 C 156.0605 376.27525 156.09405 376.40897 156.09375 376.40625 C 150.77314 382.05723 154.34234 406.33631 156.71875 408.1875 C 166.31184 415.6604 175.43855 438.90005 181.0625 454.875 C 182.49552 458.94549 189.2991 467.01339 192.15625 469.15625 C 193.32448 470.03242 194.76586 470.68901 196.1875 471.09375 C 196.72512 472.67824 197.5955 474.10875 198.75 475.25 C 195.23822 475.60664 192.5 478.58162 192.5 482.1875 C 192.5 484.551 193.66852 486.64723 195.46875 487.90625 C 195.56225 489.08214 196.07945 490.11571 196.875 490.875 C 196.17465 491.73081 195.71875 492.98005 195.71875 494.5 C 195.00447 501.64286 193.21429 507.36161 191.25 516.46875 C 191.14681 516.94719 191.2781 517.48494 191.5625 518.03125 L 189.96875 518.15625 C 185.50446 518.69197 182.94556 524.40658 181.875 528.21875 C 178.77198 539.26831 190.22894 542.51967 197.9375 537.46875 C 201.72152 534.98932 203.69112 529.5368 203.21875 525.9375 C 203.32685 524.42412 202.48751 521.63719 201.78125 519.59375 C 203.81383 515.45885 205.24704 505.6938 204.09375 496.8125 C 203.77289 494.34161 203.13282 492.59988 202.3125 491.4375 C 203.58201 490.62416 204.4375 489.17603 204.4375 487.53125 C 204.4375 487.37731 204.3895 487.24381 204.375 487.09375 C 205.37819 486.09056 206.10049 484.80554 206.34375 483.34375 C 206.95754 484.05126 207.7114 484.6483 208.5625 485.0625 C 208.85306 486.32497 209.64418 487.37719 210.71875 488 C 210.45961 489.05753 210.53219 490.30446 211.03125 491.65625 C 212.99887 499.3243 213.27695 505.92713 214.65625 516.09375 C 214.74875 516.77572 215.25516 517.41938 216.03125 517.96875 C 215.95175 518.21162 215.88286 518.45972 215.84375 518.71875 C 212.34884 520.70057 208.59652 526.33486 207.75 527.75 C 199.96778 540.75967 212.18439 545.01494 216.6875 542.09375 C 219.20913 540.45796 222.27709 536.19736 224.5 532.09375 C 226.42016 533.45613 228.93181 533.8549 231 533.46875 C 233.39004 538.12576 236.3963 542.14422 240.21875 545.3125 C 241.17829 545.85224 242.21262 546.01924 243.28125 545.875 C 245.44976 548.02058 248.3335 549.42272 251.53125 549.65625 C 244.97915 559.86543 237.87383 571.29574 235.03125 584.1875 C 230.83815 603.2042 225.83411 624.92963 231.4375 625.5625 C 232.67966 625.7028 233.78069 625.82586 234.875 625.9375 C 232.2527 629.05967 232.23293 632.40174 232.59375 635.46875 C 233.09883 639.7619 234.61818 645.80997 238.40625 646.0625 C 238.90707 646.0959 239.69744 646.13885 240.6875 646.15625 C 242.85817 651.58543 247.71237 656.88026 257.59375 656.34375 C 273.00945 655.50676 300.01681 656.08026 304.5625 654.3125 C 309.10819 652.54474 316.18496 652.04918 316.4375 640.9375 C 316.69004 629.82583 303.81012 619.22128 294.71875 618.96875 C 289.29634 618.81813 281.31474 618.13912 274.28125 618.25 C 274.29245 618.1502 274.3024 618.07223 274.3125 617.96875 C 275.44638 606.35473 272.22636 540.13953 269.65625 535.03125 C 267.87741 531.49568 266.20021 530.45517 264.65625 530.8125 C 263.84112 528.87029 262.58616 527.16013 261.03125 525.8125 C 262.30573 523.4719 263.37169 521.26526 264.15625 519.5 C 267.47639 512.02968 254.56931 477.61585 249.25 463.21875 C 250.01962 463.33583 250.79227 463.4375 251.59375 463.4375 C 258.46843 463.4375 264.3158 458.96568 266.53125 452.71875 C 271.1098 455.01682 275.76101 456.57629 280.0625 456.875 C 283.2354 457.09533 288.25584 456.2687 292.5 454.875 C 297.44268 458.44643 301.75661 460.33741 304.75 459.03125 C 306.85849 460.00332 308.99861 460.52786 311.125 460.40625 C 315.41384 460.16097 320.19275 455.79249 324.59375 450.03125 C 324.94104 450.39022 325.30894 450.7377 325.6875 451.0625 C 324.46821 453.54493 323.75 455.40454 323.75 456.125 C 323.75 459.15546 317.58853 503.80901 319.21875 508.15625 C 321.01479 512.94568 322.35234 518.19068 327.9375 520.3125 C 328.82303 526.91079 334.33469 532 341.03125 532 C 341.06225 532 341.0941 532.00022 341.125 532 C 335.07197 541.10733 328.73647 548.78888 327.59375 550.3125 C 325.32091 553.34295 322.53379 558.1342 322.28125 563.4375 C 322.02871 568.7408 317.46875 594.57528 317.46875 600.8125 C 317.46875 605.57793 319.36878 607.29308 322.21875 607.96875 C 318.10725 608.63735 315.9588 610.26205 316.4375 611.9375 C 317.95273 617.2408 318.98141 619.8209 322.25 621.78125 C 330.99046 623.1409 361.64599 624.00877 368.46875 621.53125 C 369.15258 621.06916 369.7313 620.67437 370.21875 620.28125 C 370.56528 620.31525 370.92601 620.34375 371.28125 620.34375 C 373.20128 620.34375 374.99595 619.82897 376.5625 618.9375 C 377.92791 621.74901 379.49838 623.60238 381.09375 623.5625 C 391.19527 623.30996 418.80833 624.60563 426.28125 625.5625 C 435.88578 626.79231 438.12639 620.80966 440.1875 615.46875 C 442.41648 609.69287 440.95838 601.44318 436.375 597.28125 C 423.20955 585.32636 403.58784 589.88641 385.875 591.46875 C 382.02815 591.8124 372 593.91908 372 597.78125 C 372 597.88055 371.99911 597.99326 372 598.09375 C 371.76376 598.07815 371.52135 598.0625 371.28125 598.0625 C 369.91995 598.0625 368.60763 598.31495 367.40625 598.78125 C 364.54196 595.35617 358.96825 597.04626 355.5625 597.03125 C 354.88808 597.02825 354.24726 597.0747 353.59375 597.125 C 353.75356 597.01532 353.93871 596.88903 354.09375 596.78125 C 358.59978 593.64887 364.56448 589.87917 364.96875 584.40625 C 366.39785 565.0591 364.23272 530.74397 360.90625 504.59375 C 360.29282 499.77141 352.87047 497.81663 352.84375 505.375 C 352.83775 507.04201 352.51033 508.86414 351.96875 510.8125 C 350.94051 509.27792 349.60582 507.95937 348.0625 506.96875 C 359.44412 483.48202 359.2106 433.78279 356.34375 429.34375 C 353.4708 424.89527 351.80537 421.04484 349.25 422.53125 C 347.85852 423.34065 346.50596 424.31626 345.15625 425.40625 C 343.44221 424.14601 341.47399 423.23279 339.34375 422.75 C 343.1257 411.27737 344.38322 394.1509 342.4375 391.71875 C 342.09938 391.2961 339.75835 391.06856 336.1875 390.96875 L 336.875 381.625 C 344.72452 380.28516 347.87772 373.49988 348.5625 368.0625 C 350.25973 354.58595 351.15713 338.13436 351.625 324.15625 C 354.89404 318.25839 357.48144 311.47329 358.96875 304.5625 C 362.69051 314.09539 366.0625 323.2977 366.0625 325.21875 C 366.0625 327.89732 367.55473 328.05222 369.3125 327.90625 C 368.38223 329.71586 367.84375 331.78245 367.84375 333.96875 C 367.84375 339.05491 370.71985 343.44547 374.875 345.59375 C 373.85551 346.39702 373.07866 347.22608 372.6875 348.09375 L 372.5 347.90625 C 371.07143 354.33482 371.79911 363.62053 374.65625 366.65625 C 376.42133 368.53165 389.43178 381.61836 399.28125 388.78125 C 407.97767 395.1056 418.40625 409.67858 423.40625 410.75 C 424.29728 410.94093 425.36043 411.17387 426.46875 411.40625 C 426.9599 412.73916 427.85948 413.88053 429 414.6875 C 427.21878 420.4444 430.55386 436.2245 433.34375 437.4375 C 434.74331 438.04601 436.15343 438.58118 437.53125 438.90625 C 437.43255 448.05562 443.46746 456.18844 449 455.625 C 455.5495 454.95799 460.63248 454.18391 467.4375 453.34375 C 472.8705 452.67297 473.32501 438.66386 470.21875 434.15625 C 464.09335 428.04647 455.57841 427.00108 448.09375 429.71875 C 447.26838 425.80257 443.04109 421.65202 441.4375 416.71875 C 440.91179 415.10145 440.0167 413.72426 438.9375 412.65625 C 438.9614 412.61755 438.9768 412.57045 439 412.53125 C 441.05899 411.52205 442.72 409.82972 443.75 407.75 C 444.13492 411.23212 447.10278 413.9375 450.6875 413.9375 C 453.58256 413.9375 456.04295 412.17018 457.09375 409.65625 C 460.13353 411.29292 470.42418 412.70762 472.75 410.15625 C 472.97002 409.91489 473.18282 409.68302 473.375 409.4375 C 474.24104 411.36185 477.64935 418.6421 480.59375 420.75 C 484.15367 423.29855 491.01679 422.83742 494.71875 420.5 C 498.37943 418.18865 497.0878 412.76339 495.71875 408.65625 C 495.66175 408.48533 495.60319 408.29884 495.53125 408.125 C 497.81124 403.89837 498.04456 398.04566 496 393.75 C 492.57351 386.55086 479.59955 383.39047 473.3125 384.53125 C 475.37921 381.49156 476.66443 376.98822 474.8125 372.375 C 473.83026 369.92822 465.1074 358.36142 458.25 360.9375 C 456.20724 361.70489 454.02548 362.80031 452.21875 364.21875 C 449.86692 364.28915 447.19047 364.92967 445.40625 366.53125 C 443.20657 368.50576 436.57266 384.717 435.5625 388 C 435.5041 388.18986 435.45665 388.37216 435.4375 388.5625 C 430.16791 383.70433 418.89457 375.74751 415.34375 369.875 C 410.70089 362.19642 405.22456 351.59032 401.0625 342 C 399.23607 337.7915 395.86712 336.84991 392.875 337.46875 C 393.17907 336.35298 393.34375 335.18365 393.34375 333.96875 C 393.34375 328.64498 390.2235 324.08675 385.75 322.0625 C 386.2604 320.50152 386.29826 318.73823 386.0625 317 C 382.61448 291.5784 383.42285 267.98734 371.71875 244.375 C 373.05208 244.03737 374.38542 243.6022 375.71875 243.0625 C 379.36198 241.58781 377.70734 238.92708 376.0625 231.28125 C 374.41766 223.63542 370.56307 213.54807 366.78125 208.4375 C 357.68096 196.13982 354.87649 201.60268 354.6875 212.90625 C 353.97014 212.79688 353.24749 212.71875 352.5 212.71875 C 351.75251 212.71875 351.02986 212.79685 350.3125 212.90625 C 346.78232 194.38728 342.60103 178.50716 338.21875 173.0625 C 334.23175 168.10896 331.63517 165.55308 327.15625 163.78125 C 323.16489 162.2023 314.28125 163.0625 314.28125 163.0625 C 308.20989 158.41964 305.03211 153.79911 292.84375 149.15625 z M 206.25 173.125 L 200.03125 178.28125 C 200.29773 177.59074 202.30997 175.16489 206.25 173.125 z M 202.71875 294.15625 C 207.88673 304.28281 212.58509 312.12467 215 315.9375 C 225.90008 333.14726 242.15179 368.08036 241.4375 375.9375 C 241.05407 380.15524 247.66608 383.32824 255.3125 385.15625 L 255.625 393.875 C 253.28915 393.98702 249.82402 394.1707 248 394.25 C 248 394.25 248.344 394.53665 248.375 394.5625 C 242.90054 393.57204 236.03979 396.59284 235.375 403.34375 C 234.76274 409.56113 237.38674 429.08439 242.4375 433.125 C 242.59534 433.25127 242.74463 433.35531 242.875 433.4375 C 242.9062 433.4778 242.93725 433.5221 242.96875 433.5625 C 238.60461 436.45918 235.71875 441.47123 235.71875 447.1875 C 235.71875 447.1981 235.71873 447.20825 235.71875 447.21875 C 234.58272 446.48491 233.41122 445.78688 232.1875 445.125 C 232.139 444.94734 232.07982 444.77137 232.03125 444.59375 C 229.57707 443.14252 227.89708 441.11917 225.15625 440 C 222.83482 439.10714 222.93396 441.63805 222.875 443.25 C 222.8516 450.71471 222.61853 458.71841 222.46875 466.8125 C 221.47291 466.26335 220.31138 465.9375 219.09375 465.9375 C 218.07449 465.9375 217.12251 466.1378 216.25 466.53125 C 215.93595 463.36933 214.27179 460.62272 211.84375 458.90625 C 213.1917 455.48756 214.04194 452.23768 214.28125 450.5625 C 214.63443 448.09023 206.81725 437.50735 198.875 415.34375 C 192.51771 397.6031 192.70482 376.84372 190.71875 375.21875 C 190.06399 374.68304 188.83052 374.20932 187.28125 373.8125 C 187.9611 372.21815 188.34375 370.47539 188.34375 368.625 C 188.34375 367.27511 188.15376 365.97456 187.78125 364.75 C 191.52203 360.97318 194.02771 334.95696 195.34375 327.71875 C 196.1397 323.34101 199.83306 308.37475 202.71875 294.15625 z M 453.15625 388 C 453.30881 388.12361 453.46414 388.26515 453.625 388.375 C 453.83914 388.52123 454.06147 388.65354 454.28125 388.78125 C 453.41123 389.55069 452.45417 390.43309 451.40625 391.40625 C 451.12293 391.29751 450.83099 391.19638 450.53125 391.125 C 451.44518 390.15208 452.30285 389.06673 453.15625 388 z M 428.0625 394.59375 C 428.1252 394.59439 428.18734 394.59339 428.25 394.59375 C 428.2206 394.61685 428.18545 394.63285 428.15625 394.65625 C 428.12735 394.63285 428.0913 394.61675 428.0625 394.59375 z M 469.1875 398.625 C 469.31166 399.07708 469.45886 399.49297 469.625 399.875 C 468.81846 399.73747 468.01431 399.62707 467.21875 399.5625 C 467.56899 399.4862 468.31824 399.12727 469.1875 398.625 z M 455.78125 399.15625 C 458.67932 399.32007 461.38538 399.48477 463.3125 399.5625 C 460.23517 399.85239 457.6415 400.87467 456.21875 402.78125 C 455.83551 402.27873 455.40984 401.81939 454.90625 401.4375 C 455.31754 400.7429 455.6317 399.97884 455.78125 399.15625 z M 218.46875 480 C 218.93783 480.61602 219.56838 481.12921 220.28125 481.4375 C 220.03886 482.54477 220.21755 483.89975 220.96875 485.28125 C 221.5111 486.56989 221.99552 487.83335 222.4375 489.09375 C 222.28384 490.59521 222.12427 491.97552 221.96875 493.15625 C 221.62319 492.41775 221.28501 491.68616 220.90625 490.96875 C 219.6261 488.54401 218.25295 486.96704 216.9375 486.0625 C 217.24574 485.4394 217.4375 484.746 217.4375 484 C 217.4375 483.60123 217.3745 483.21271 217.28125 482.84375 C 217.87118 482.01767 218.28556 481.03995 218.46875 480 z "
       transform="matrix(.99878 .049456 -.049456 .99878 20.317 -15.598)"
       inkscape:radius="3.6421568" />
    <path
       id="path3711"
       sodipodi:rx="6.9642859"
       sodipodi:ry="6.9642859"
       style="fill:#999999"
       sodipodi:type="arc"
       d="m 203.92857,484.32648 a 6.9642859,6.9642859 0 0 1 -6.96429,6.96428 6.9642859,6.9642859 0 0 1 -6.96429,-6.96428 6.9642859,6.9642859 0 0 1 6.96429,-6.96429 6.9642859,6.9642859 0 0 1 6.96429,6.96429 z"
       transform="matrix(.99878 .049456 -.049456 .99878 277.55 -80.296)"
       sodipodi:cy="484.32648"
       sodipodi:cx="196.96428" />
    <path
       id="path3930"
       sodipodi:rx="15.892858"
       sodipodi:ry="16.25"
       style="fill:#1a1a1a"
       sodipodi:type="arc"
       d="m 206.78571,252.18361 a 15.892858,16.25 0 0 1 -15.89286,16.25 15.892858,16.25 0 0 1 -15.89285,-16.25 15.892858,16.25 0 0 1 15.89285,-16.25 15.892858,16.25 0 0 1 15.89286,16.25 z"
       transform="matrix(.28276 .014002 -.014002 .28276 407.62 338.81)"
       sodipodi:cy="252.18361"
       sodipodi:cx="190.89285" />
    <path
       id="path3717"
       sodipodi:nodetypes="cssss"
       style="fill:#999999"
       d="m455.37 410.28c-1.0762 2.1255-0.81317 4.6444 1.2261 5.8762 2.9551 1.785 13.164 3.712 15.613 1.2788 3.8004-3.7757 3.8803-8.4299 0.4746-9.5847-6.9563-2.3588-14.981-2.1772-17.314 2.4297z" />
    <path
       id="path4006"
       sodipodi:nodetypes="cccsccsc"
       style="fill:#ffffff"
       d="m464.77 406.37c-3.0654-0.0849-5.8442 0.4986-7.6973 1.9029 3.8617-1.0925 7.4163-1.0203 12.282 0.29526 0 0-2.2452 3.4455-1.1851 5.0151s3.1823 0.77826 3.1823 0.77826l1.6443 2.1777c2.9752-3.5844 2.8208-7.6174-0.32098-8.6828-2.6086-0.88456-5.3523-1.4158-7.9049-1.4865z" />
    <path
       id="path3932"
       sodipodi:rx="15.892858"
       sodipodi:ry="16.25"
       style="fill:#1a1a1a"
       sodipodi:type="arc"
       d="m 206.78571,252.18361 a 15.892858,16.25 0 0 1 -15.89286,16.25 15.892858,16.25 0 0 1 -15.89285,-16.25 15.892858,16.25 0 0 1 15.89285,-16.25 15.892858,16.25 0 0 1 15.89286,16.25 z"
       transform="matrix(.28276 .014002 -.014002 .28276 423.77 339.36)"
       sodipodi:cy="252.18361"
       sodipodi:cx="190.89285" />
    <path
       id="path3719"
       sodipodi:nodetypes="cssssc"
       style="fill:#ffffff"
       d="m472.53 415.94s3.7142 9.9001 6.9674 12.482c3.4295 2.7215 10.324 2.5987 14.137 0.44719 3.7705-2.1275 2.7602-7.635 1.5959-11.805-1.8223-6.5267-14.384-15.883-17.711-9.9795l-4.9897 8.8554z" />
    <path
       id="path4014"
       style="fill:#999999"
       d="m478.22 410.29-2.6746 0.3056-3.0186 5.3573s3.7332 9.8729 6.9864 12.455c1.0121 0.80315 2.3174 1.3596 3.7649 1.6883 0.46722-2.2048 1.5561-4.5775 2.9123-5.738 1.899-1.6249 7.2399-2.1446 7.2399-2.1446l-1.1217-5.7813-14.088-6.1418z" />
    <path
       id="path3699"
       sodipodi:rx="15.892858"
       sodipodi:ry="16.25"
       style="fill:#1a1a1a"
       sodipodi:type="arc"
       d="m 206.78571,252.18361 a 15.892858,16.25 0 0 1 -15.89286,16.25 15.892858,16.25 0 0 1 -15.89285,-16.25 15.892858,16.25 0 0 1 15.89285,-16.25 15.892858,16.25 0 0 1 15.89286,16.25 z"
       transform="matrix(.68468 .033903 -.033903 .68468 238.86 432.09)"
       sodipodi:cy="252.18361"
       sodipodi:cx="190.89285" />
    <path
       id="path3697"
       sodipodi:nodetypes="cccsssss"
       style="fill:#ffffff"
       d="m306.1 611.24c1.2511 5.3718 2.1465 8.0046 5.3142 10.124 8.6625 1.7902 39.233 4.1704 46.17 2.0334 2.8234-1.7108 4.0103-2.3132 3.8809-6.8876-0.13439-4.7511-1.3132-9.5479-2.8443-14.047-1.9926-5.8556-8.8022-3.9585-12.689-4.1682-12.16-0.65591-21.163 7.998-33.579 9.2097-4.3305 0.42264-6.658 1.9987-6.2533 3.7359z" />
    <path
       id="path3691"
       sodipodi:rx="15.892858"
       sodipodi:ry="16.25"
       style="fill:#1a1a1a"
       sodipodi:type="arc"
       d="m 206.78571,252.18361 a 15.892858,16.25 0 0 1 -15.89286,16.25 15.892858,16.25 0 0 1 -15.89285,-16.25 15.892858,16.25 0 0 1 15.89285,-16.25 15.892858,16.25 0 0 1 15.89286,16.25 z"
       transform="matrix(.83214 .041204 -.041204 .83214 186.85 301.36)"
       sodipodi:cy="252.18361"
       sodipodi:cx="190.89285" />
    <path
       id="path3689"
       sodipodi:nodetypes="csssazs"
       style="fill:#ffffff"
       d="m348.25 423.69c-13.824 7.1509-26.986 29.258-27.136 32.285-0.14987 3.0268-8.5262 47.312-7.113 51.734 1.9703 6.1659 3.1465 13.051 13.475 13.815 10.329 0.76429 12.049-7.4586 15.329-13.4 12.6-22.829 14.82-72.689 12.17-77.274-2.6494-4.5851-4.0994-8.5181-6.7252-7.1599z" />
    <path
       id="path3687"
       sodipodi:nodetypes="cssccc"
       style="fill:#999999"
       d="m228.65 617.81c-7.2622 3.686-7.7518 8.4658-7.4596 12.779 0.29214 4.3129 1.5058 10.441 5.2767 10.881 3.7709 0.43958 23.962 1.1865 23.962 1.1865l-4.0368-25.125-17.742 0.27864z" />
    <path
       id="path3679"
       sodipodi:rx="15.892858"
       sodipodi:ry="16.25"
       style="fill:#1a1a1a"
       sodipodi:type="arc"
       d="m 206.78571,252.18361 a 15.892858,16.25 0 0 1 -15.89286,16.25 15.892858,16.25 0 0 1 -15.89285,-16.25 15.892858,16.25 0 0 1 15.89285,-16.25 15.892858,16.25 0 0 1 15.89286,16.25 z"
       transform="matrix(.83214 .041204 -.041204 .83214 97.526 314.66)"
       sodipodi:cy="252.18361"
       sodipodi:cx="190.89285" />
    <path
       id="path3897"
       sodipodi:nodetypes="cssscc"
       style="fill:#666666"
       d="m240.86 412.05c-0.53705 10.846-1.6144 14.033 0.18461 16.697 7.0673 10.464 23.103 24.236 36.396 25.823 6.2834 0.75005 20.088-2.2923 20.541-6.3155 0.45206-4.0232-5.0492-35.902-5.0492-35.902l-52.072-0.30277z" />
    <path
       id="path3901"
       sodipodi:rx="15.892858"
       sodipodi:ry="16.25"
       style="fill:#1a1a1a"
       sodipodi:type="arc"
       d="m 206.78571,252.18361 a 15.892858,16.25 0 0 1 -15.89286,16.25 15.892858,16.25 0 0 1 -15.89285,-16.25 15.892858,16.25 0 0 1 15.89285,-16.25 15.892858,16.25 0 0 1 15.89286,16.25 z"
       transform="matrix(.99878 .049456 -.049456 .99878 71.313 182.17)"
       sodipodi:cy="252.18361"
       sodipodi:cx="190.89285" />
    <path
       id="path3909"
       sodipodi:rx="15.892858"
       sodipodi:ry="16.25"
       style="fill:#1a1a1a"
       sodipodi:type="arc"
       d="m 206.78571,252.18361 a 15.892858,16.25 0 0 1 -15.89286,16.25 15.892858,16.25 0 0 1 -15.89285,-16.25 15.892858,16.25 0 0 1 15.89285,-16.25 15.892858,16.25 0 0 1 15.89286,16.25 z"
       transform="matrix(.99878 .049456 -.049456 .99878 92.836 173.58)"
       sodipodi:cy="252.18361"
       sodipodi:cx="190.89285" />
    <path
       id="path3843"
       style="fill:#1a1a1a"
       d="m256.35 375.14-0.33995 27.291 79.375 0.3905 3.4167-28.15-82.452 0.46853z" />
    <path
       id="path3895"
       sodipodi:nodetypes="cssssc"
       style="fill:#999999"
       d="m252.46 392.4c-5.2078-3.9567-15.767-1.8622-17.009 6.4903-0.91899 6.1795 0.74391 25.827 5.5887 30.113 4.8448 4.2854-3.7908-15.359 9.3252-14.709 8.1341 0.40279 39.909 49.142 51.954 43.534 4.2836-1.9943-43.289-68.775-49.858-65.428z" />
    <path
       id="path3911"
       sodipodi:nodetypes="cssscc"
       style="fill:#ffffff"
       d="m244.4 452.93c0.80908 4.0856 18.539 54.522 14.054 63.402-4.4853 8.8804-17.087 28.484-24.934 23.544-7.8465-4.9398-19.189-41.406-16.846-47.864 2.3426-6.458 7.011-55.039 7.011-55.039 8.7208 4.0752 14.501 8.5164 20.715 15.956z" />
    <path
       id="path3674"
       sodipodi:nodetypes="cccccc"
       style="fill:#999999"
       d="m223.42 435c-2.2744-1.0066-2.2908 1.5278-2.4294 3.1348-2.9782 35.453-9.6648 82.929 12.287 102.8 5.2631 3.3134 13.252-5.2829 18.91-13.412-10.18-28.417-15.63-58.25-22.114-87.598-2.3794-1.5708-3.9709-3.671-6.653-4.9243z" />
    <path
       id="path3885"
       sodipodi:nodetypes="cssssc"
       style="fill:#ffffff"
       d="m225.74 504.22c-3.4947 1.9724-7.1728 8.0388-7.981 9.5277-7.2322 13.323 5.1221 17.076 9.4993 13.969 4.5933-3.26 10.868-15.779 9.8803-18.999-0.91447-2.9813-4.7239-5.9981-5.2463-5.9811-4.0888 0.13322-4.5785 0.84421-6.1523 1.4833z" />
    <path
       id="path3977"
       style="fill:#999999"
       d="m225.64 504.29c-3.4655 2.0284-7.0833 7.9903-7.884 9.4654-5.7516 10.596 0.88821 15.12 6.0481 14.974 0.29875-4.5209 2.2154-10.225 6.0531-16.721 0 0-3.175-2.6885-0.73635-5.9812l-3.4809-1.7368z" />
    <path
       id="path3883"
       sodipodi:nodetypes="cssssc"
       style="fill:#ffffff"
       d="m210.54 513.02c-3.6599 1.6458-7.8754 7.3518-8.8159 8.7608-8.4161 12.609 3.545 17.471 8.187 14.776 4.8712-2.8279 12.26-14.723 11.57-18.02-0.63902-3.0522-4.1577-6.4036-4.6795-6.4342-4.084-0.23987-4.6363 0.42352-6.2619 0.91652z" />
    <path
       id="path3881"
       sodipodi:rx="15.892858"
       sodipodi:ry="16.25"
       style="fill:#1a1a1a"
       sodipodi:type="arc"
       d="m 206.78571,252.18361 a 15.892858,16.25 0 0 1 -15.89286,16.25 15.892858,16.25 0 0 1 -15.89285,-16.25 15.892858,16.25 0 0 1 15.89285,-16.25 15.892858,16.25 0 0 1 15.89286,16.25 z"
       transform="matrix(.28276 .014002 -.014002 .28276 177.92 430.13)"
       sodipodi:cy="252.18361"
       sodipodi:cx="190.89285" />
    <path
       id="path3869"
       sodipodi:nodetypes="cssccc"
       style="fill:#ffffff"
       d="m184.42 511.31c-4.4853 0.31428-7.3054 5.8988-8.5632 9.6533-3.6457 10.883 7.6222 14.699 15.571 10.036 3.902-2.2892 6.1421-7.6362 5.8484-11.254 0.302-2.4881-1.8858-8.8541-1.8858-8.8541l-10.97 0.41954z" />
    <path
       id="path3957"
       style="fill:#999999"
       d="m184.84 511.31-0.40729 0.0111c-4.4853 0.31428-7.3237 5.8953-8.5815 9.6499-3.6457 10.883 7.6364 14.697 15.585 10.033 0.66456-0.38989 1.2597-0.8992 1.8236-1.4428 0.82949-1.9165 1.4341-3.977 1.6558-6.2695 0 0-6.7094 0.20016-6.175-2.934 0.38081-2.2331 0.78017-2.2406 0.97748-2.0479-0.14739-0.21811-2.6623-3.8898-4.8785-6.9998z" />
    <path
       id="path3871"
       sodipodi:rx="15.892858"
       sodipodi:ry="16.25"
       style="fill:#1a1a1a"
       sodipodi:type="arc"
       d="m 206.78571,252.18361 a 15.892858,16.25 0 0 1 -15.89286,16.25 15.892858,16.25 0 0 1 -15.89285,-16.25 15.892858,16.25 0 0 1 15.89285,-16.25 15.892858,16.25 0 0 1 15.89286,16.25 z"
       transform="matrix(.28276 .014002 -.014002 .28276 138.35 442.12)"
       sodipodi:cy="252.18361"
       sodipodi:cx="190.89285" />
    <path
       id="path3867"
       sodipodi:nodetypes="csssc"
       style="fill:#ffffff"
       d="m191.34 487.98c-1.0667 7.0988-3.1328 12.718-5.5451 21.717-0.79549 2.9675 7.0496 8.6732 9.9806 4.2488 2.3785-3.5904 4.5828-13.828 3.8322-23.232-0.81273-10.181-7.9712-8.7228-8.2678-2.7337z" />
    <path
       id="path3859"
       sodipodi:rx="15.892858"
       sodipodi:ry="16.25"
       style="fill:#1a1a1a"
       sodipodi:type="arc"
       d="m 206.78571,252.18361 a 15.892858,16.25 0 0 1 -15.89286,16.25 15.892858,16.25 0 0 1 -15.89285,-16.25 15.892858,16.25 0 0 1 15.89285,-16.25 15.892858,16.25 0 0 1 15.89286,16.25 z"
       transform="matrix(.65045 .032208 -.032208 .65045 86.847 291.46)"
       sodipodi:cy="252.18361"
       sodipodi:cx="190.89285" />
    <path
       id="path3851"
       sodipodi:rx="15.892858"
       sodipodi:ry="16.25"
       style="fill:#1a1a1a"
       sodipodi:type="arc"
       d="m 206.78571,252.18361 a 15.892858,16.25 0 0 1 -15.89286,16.25 15.892858,16.25 0 0 1 -15.89285,-16.25 15.892858,16.25 0 0 1 15.89285,-16.25 15.892858,16.25 0 0 1 15.89286,16.25 z"
       transform="matrix(.80122 .039673 -.039673 .80122 241 127.16)"
       sodipodi:cy="252.18361"
       sodipodi:cx="190.89285" />
    <path
       id="path3845"
       sodipodi:nodetypes="cszscc"
       style="fill:#808080"
       d="m363.94 215.83c0.60055-12.128 3.6201-18.304 12.411-5.1068 3.5244 5.2914 6.8792 15.571 8.1439 23.288 1.2647 7.7178 2.7721 10.461-0.93957 11.754-6.792 2.3655-13.445 1.9254-20.099 1.5078l0.4842-31.443z" />
    <path
       id="path3837"
       sodipodi:rx="15.892858"
       sodipodi:ry="16.25"
       style="fill:#1a1a1a"
       sodipodi:type="arc"
       d="m 206.78571,252.18361 a 15.892858,16.25 0 0 1 -15.89286,16.25 15.892858,16.25 0 0 1 -15.89285,-16.25 15.892858,16.25 0 0 1 15.89285,-16.25 15.892858,16.25 0 0 1 15.89286,16.25 z"
       transform="matrix(.80122 .039673 -.039673 .80122 34.537 151.62)"
       sodipodi:cy="252.18361"
       sodipodi:cx="190.89285" />
    <path
       id="path3806"
       sodipodi:rx="15.892858"
       sodipodi:ry="16.25"
       style="fill:#1a1a1a"
       sodipodi:type="arc"
       d="m 206.78571,252.18361 a 15.892858,16.25 0 0 1 -15.89286,16.25 15.892858,16.25 0 0 1 -15.89285,-16.25 15.892858,16.25 0 0 1 15.89285,-16.25 15.892858,16.25 0 0 1 15.89286,16.25 z"
       transform="matrix(.92022 .045566 -.045108 .91097 196.84 -9.3328)"
       sodipodi:cy="252.18361"
       sodipodi:cx="190.89285" />
    <path
       id="path3794"
       sodipodi:nodetypes="cccssccc"
       style="fill:#ffffff"
       d="m213.36 223.75-0.0431 58.641 51.485 101.24c24.588 1.695 40.625 2.289 73.015-1.3907 7.9766-0.90618 11.486-7.5525 12.442-12.972 5.1287-29.048 7.188-72.948 7.188-72.948l-97.207-87.772-46.881 15.2z" />
    <path
       id="path3876"
       sodipodi:nodetypes="czzcsccc"
       style="fill:#666666"
       d="m244.95 339.69c7.8264 15.558 21.725 20.326 34.842 21.447 13.117 1.1214 49.437 2.448 55.311-3.8352 5.8738-6.2832 16.792-12.317 13.376-35.242 0 0-18.219-122.27-21.775-121.94-3.5562 0.3296-118.29 9.3136-118.29 9.3136l7.6309 80.783 28.903 49.472z" />
    <rect
       id="rect3798"
       style="fill:#1a1a1a"
       transform="rotate(-5.2309)"
       height="16.964"
       width="112.32"
       y="254.75"
       x="180.1" />
    <path
       id="path3847"
       sodipodi:nodetypes="ccsssc"
       style="fill:#ffffff"
       d="m374.34 236.72c-8.7376 3.1432-8.9672 7.7803-8.9672 7.7803s10.753 71.691 11.219 76.72c0.46613 5.0292-1.1903 9.5957 5.6401 8.8612 6.8304-0.73452 8.3993-5.3411 8.003-9.9736-2.491-29.12 0.42694-55.601-15.895-83.388z" />
    <path
       id="path3849"
       sodipodi:nodetypes="csssccc"
       style="fill:#999999"
       d="m368.42 240.72s12.857 83.621 13.09 86.135c0.23306 2.5146-1.3704 4.259-5.3463 3.365-2.6536-0.59673-6.523 1.3856-6.3111-2.8949 0.21196-4.2805-14.557-45.418-14.557-45.418l0.80215-37.864 12.322-3.3232z" />
    <path
       id="path3788"
       sodipodi:nodetypes="ccccsssssccsc"
       style="fill:#ffffff"
       d="m218.68 166.8-17.828 13.42 50.839 56.512 8.0832 82.286s14.621 29.688 38.556 30.158c14.394 0.28265 36.053-5.3319 41.516-7.9565 12.82-6.1592 24.966-28.003 25.945-47.346 0.72086-14.241-5.1869-104.67-16.234-119.88-3.7371-5.1447-6.2128-7.8307-10.599-9.8219-3.9084-1.7744-12.806-1.3493-12.806-1.3493-5.8343-4.9374-8.7697-9.7313-20.713-14.971-30.016-0.41356-77.169 5.8335-80.503 8.1715s-6.2725 11.132-6.2548 10.775z" />
    <path
       id="path3786"
       sodipodi:nodetypes="cssscssczs"
       style="fill:#999999"
       d="m207.56 174.83c-43.158 30.573 2.5446 119.28 11.872 135.75 10.036 17.728 24.531 53.421 23.429 61.234-1.102 7.8122 22.229 13.258 31.574 12.291 9.345-0.9676 1.0244-20.689 1.0244-20.689s-40.466-34.901-56.584-99.349c-2.7944-11.173 1.8589-47.508 14.466-32.181 13.491 16.402 12.174 78.193 34.398 99.68-5.6026-28.304-11.508-80.871-11.322-103.54 0.18607-22.673-34.103-63.648-48.858-53.196z" />
    <path
       id="path3790"
       sodipodi:nodetypes="cssczc"
       style="fill:#999999"
       d="m211.25 172.51s-0.65099-7.3368 7.8583-14.272c7.7805-6.3409 24.609-1.2707 28.144 2.1088 10.611 10.143 10.044 22.477 13.106 31.401 0 0-20.487-26.76-31.581-26.594-11.806 0.17653-17.493 6.643-17.528 7.3564z" />
    <path
       id="path3792"
       sodipodi:nodetypes="czzzzzzzz"
       style="fill:#000000"
       d="m292.48 229.1c-6.9717 3.5882-8.6515 8.1635-10.355 14.148-1.7038 5.9846-1.7507 14.104 1.5255 19.742 3.2762 5.6384 18.998 8.2561 23.345-2.0623 4.3472-10.318 14.49-11.862 19.492-3.6834 5.0019 8.1783 17.305 2.978 18.976-0.49069 1.6707-3.4687 3.8721-10.939 2.0062-18.852-1.8902-8.0168-5.2977-12.011-15.042-13.975-9.7438-1.9639-32.976 1.5854-39.948 5.1736z" />
    <path
       id="path3796"
       sodipodi:rx="15.892858"
       sodipodi:ry="16.25"
       style="fill:#1a1a1a"
       sodipodi:type="arc"
       d="m 206.78571,252.18361 a 15.892858,16.25 0 0 1 -15.89286,16.25 15.892858,16.25 0 0 1 -15.89285,-16.25 15.892858,16.25 0 0 1 15.89285,-16.25 15.892858,16.25 0 0 1 15.89286,16.25 z"
       transform="matrix(.99878 .049456 -.049456 .99878 20.317 -15.598)"
       sodipodi:cy="252.18361"
       sodipodi:cx="190.89285" />
    <path
       id="rect3800"
       style="fill:#1a1a1a"
       d="m229.63 234.78-27.062 2.4772 1.5718 16.911 24.642-2.2528 0.84848-17.135z" />
    <path
       id="path3833"
       sodipodi:nodetypes="cssssc"
       style="fill:#ffffff"
       d="m185.84 256c7.9005-0.68154 26.981 1.6569 27.254 5.6405 0.72741 10.585-12.049 51.968-13.865 59.745-1.8154 7.7769-6.1527 37.599-10.416 37.03-4.2628-0.56866-14.109-3.9169-13.933-7.4839 0.17663-3.5671 10.549-93.879 10.958-94.931z" />
    <path
       id="path3835"
       sodipodi:nodetypes="cszszssc"
       style="fill:#999999"
       d="m181.18 260.36c3.1351-3.8949 6.6654-7.8829 7.333-1.0972 1.4661 14.904-5.5913 55.104-6.314 67.177-0.72276 12.073 3.3509 29.303-1.6606 29.413-5.0115 0.10943-3.5864-2.9314-8.4713-2.8537-4.8849 0.0776-3.4282 1.2906-5.1459 1.987-1.7941 0.72747-3.317-0.93789-3.2027-2.4692 2.2816-30.573 2.106-64.631 17.462-92.157z" />
    <path
       id="path3808"
       sodipodi:nodetypes="csssss"
       style="fill:#e6e6e6"
       d="m182.93 214.62c-6.2037 2.2093-11.994 18.358-12.153 21.568-0.15896 3.2104-1.0916 29.268 0.90729 32.227 1.9989 2.9596 11.615 5.0747 13.788 3.1858 4.6708-4.0597 0.29021-34.005-0.51505-50.981-0.20912-4.4084-0.78925-6.4413-2.0271-6.0005z" />
    <path
       id="path3810"
       sodipodi:nodetypes="czsszs"
       style="fill:#999999"
       d="m170.98 233.08c-1.3959 4.7511-6.1625 22.296-5.2955 26.452 0.86699 4.1551 2.8807 9.8921 6.9963 10.359 5.6005 0.63489 5.9879 0.49426 5.7674-4.5418-0.66905-15.277-1.7545-28.131-2.5566-31.415-0.80215-3.2839-3.3514-6.1639-4.9115-0.85364z" />
    <path
       id="path3839"
       sodipodi:nodetypes="cssssc"
       style="fill:#ffffff"
       d="m157.59 367.95c8.1125-4.962 30.889-2.7615 34.653 0.64317 1.9033 1.7212 0.6868 22.448 6.1589 40.481 6.8364 22.529 14.132 33.498 13.657 35.949-0.96068 4.9586-7.9608 23.564-16.684 19.198-8.7234-4.3653-38.071-97.717-37.785-96.272z" />
    <path
       id="path3841"
       sodipodi:nodetypes="cssssss"
       style="fill:#999999"
       d="m158.69 367.29c-6.9853 3.1028-4.4502 30.459-2.0304 32.544 9.2118 7.9382 17.182 31.595 22.009 47.828 1.23 4.1364 7.6037 12.534 10.351 14.816 4.4305 3.6789 13.258 4.3256 8.7549-2.2536-14.114-20.621-29.93-78.021-32.127-88.508-0.41497-1.9816-3.879-5.7936-6.9579-4.426z" />
    <path
       id="path3853"
       sodipodi:nodetypes="cssszss"
       style="fill:#ffffff"
       d="m394.56 341.24c-11.432 3.8078-21.8 6.9661-19.211 12.458 2.5887 5.4919 40.932 39.93 43.27 43.264s20.191 3.8604 19.993 0.63242c-0.19775-3.228-17.477-15.347-21.734-23.246-4.2574-7.8988-9.2078-18.745-12.891-28.53-1.8852-5.0088-6.0871-5.6918-9.4279-4.579z" />
    <path
       id="path3855"
       sodipodi:nodetypes="csssssc"
       style="fill:#999999"
       d="m375.16 350.3c-1.7448 6.35-1.4906 15.66 1.2129 18.833 1.6702 1.9604 14.034 15.693 23.518 23.334 8.373 6.7467 18.05 21.812 22.991 23.13 4.9409 1.3174 14.618 4.4784 13.866-1.9953-0.75219-6.4737-8.5325-15.441-11.725-15.957-3.1927-0.51566-49.862-47.345-49.862-47.345z" />
    <path
       id="path3857"
       sodipodi:rx="15.892858"
       sodipodi:ry="16.25"
       style="fill:#1a1a1a"
       sodipodi:type="arc"
       d="m 206.78571,252.18361 a 15.892858,16.25 0 0 1 -15.89286,16.25 15.892858,16.25 0 0 1 -15.89285,-16.25 15.892858,16.25 0 0 1 15.89285,-16.25 15.892858,16.25 0 0 1 15.89286,16.25 z"
       transform="matrix(.65045 .032208 -.032208 .65045 318.34 238.2)"
       sodipodi:cy="252.18361"
       sodipodi:cx="190.89285" />
    <path
       id="path3952"
       style="fill:#999999"
       d="m193.65 483.65c-1.2384 0.66952-2.2057 2.2089-2.3106 4.3285-1.0667 7.0988-3.1375 12.722-5.5498 21.721-0.52984 1.9765 2.778 5.1644 5.9095 5.7681 1.7595-9.0665 5.6728-30.861 2.1367-31.777l-0.18572-0.0404z" />
    <path
       id="path3873"
       sodipodi:rx="15.892858"
       sodipodi:ry="16.25"
       style="fill:#1a1a1a"
       sodipodi:type="arc"
       d="m 206.78571,252.18361 a 15.892858,16.25 0 0 1 -15.89286,16.25 15.892858,16.25 0 0 1 -15.89285,-16.25 15.892858,16.25 0 0 1 15.89285,-16.25 15.892858,16.25 0 0 1 15.89286,16.25 z"
       transform="matrix(.28276 .014002 -.014002 .28276 145.44 407.25)"
       sodipodi:cy="252.18361"
       sodipodi:cx="190.89285" />
    <path
       id="path3861"
       sodipodi:rx="6.9642859"
       sodipodi:ry="6.9642859"
       style="fill:#b3b3b3"
       sodipodi:type="arc"
       d="m 203.92857,484.32648 a 6.9642859,6.9642859 0 0 1 -6.96429,6.96428 6.9642859,6.9642859 0 0 1 -6.96429,-6.96428 6.9642859,6.9642859 0 0 1 6.96429,-6.96429 6.9642859,6.9642859 0 0 1 6.96429,6.96429 z"
       transform="matrix(.99878 .049456 -.049456 .99878 22.92 -17.615)"
       sodipodi:cy="484.32648"
       sodipodi:cx="196.96428" />
    <path
       id="path3967"
       sodipodi:nodetypes="ccscsccc"
       style="fill:#999999"
       d="m211.84 512.58c-0.4068 0.14643-0.82923 0.29191-1.3044 0.43603-3.6599 1.6458-7.8786 7.353-8.8191 8.7621-7.1847 10.764 0.49015 15.839 5.7752 15.43 0.0153-0.49101 0.0685-0.99931 0.20058-1.5232 0.71038-2.8188 8.5009-13.59 8.5009-13.59-3.9276-0.5167-4.9207-3.4878-1.6518-5.033l-2.7014-4.4816z" />
    <path
       id="path3887"
       sodipodi:rx="15.892858"
       sodipodi:ry="16.25"
       style="fill:#1a1a1a"
       sodipodi:type="arc"
       d="m 206.78571,252.18361 a 15.892858,16.25 0 0 1 -15.89286,16.25 15.892858,16.25 0 0 1 -15.89285,-16.25 15.892858,16.25 0 0 1 15.89285,-16.25 15.892858,16.25 0 0 1 15.89286,16.25 z"
       transform="matrix(.28276 .014002 -.014002 .28276 164.19 440.09)"
       sodipodi:cy="252.18361"
       sodipodi:cx="190.89285" />
    <path
       id="path3875"
       sodipodi:nodetypes="csssc"
       style="fill:#ffffff"
       d="m206.77 485.9c1.586 7.756 1.5324 14.345 2.4073 24.568 0.28849 3.371 10.886 6.3999 12.325 0.73127 1.1679-4.6-0.40593-16.031-4.8246-25.508-4.7842-10.261-11.892-6.112-9.9078 0.20946z" />
    <path
       id="path3962"
       style="fill:#999999"
       d="m208.09 480.11c-1.4296 1.0305-2.1252 3.2175-1.319 5.7856 1.586 7.756 1.5372 14.364 2.412 24.587 0.18359 2.1452 4.5223 4.125 8.0387 3.8398-2.1639-11.236-0.90823-21.842-9.1317-34.212z" />
    <path
       id="path3889"
       sodipodi:rx="15.892858"
       sodipodi:ry="16.25"
       style="fill:#1a1a1a"
       sodipodi:type="arc"
       d="m 206.78571,252.18361 a 15.892858,16.25 0 0 1 -15.89286,16.25 15.892858,16.25 0 0 1 -15.89285,-16.25 15.892858,16.25 0 0 1 15.89285,-16.25 15.892858,16.25 0 0 1 15.89286,16.25 z"
       transform="matrix(.28276 .014002 -.014002 .28276 158.6 404.36)"
       sodipodi:cy="252.18361"
       sodipodi:cx="190.89285" />
    <path
       id="path3877"
       sodipodi:nodetypes="csssc"
       style="fill:#ffffff"
       d="m217.03 480.02c2.454 6.746 3.3231 12.669 5.5026 21.727 0.71874 2.987 10.337 4.252 10.798-1.0351 0.37439-4.2904-2.5797-14.338-7.7312-22.24-5.5776-8.5561-11.17-3.8553-8.5693 1.548z" />
    <path
       id="path3972"
       style="fill:#999999"
       d="m218.17 474.38-0.73024 0.21415c-1.1416 1.1078-1.4986 3.1924-0.42498 5.4231 2.454 6.746 3.3459 12.679 5.5255 21.737 0.51768 2.1514 5.6295 3.3693 8.6339 1.9294-3.1756-9.7799-4.9614-19.587-13.004-29.304z" />
    <path
       id="path3891"
       sodipodi:rx="15.892858"
       sodipodi:ry="16.25"
       style="fill:#1a1a1a"
       sodipodi:type="arc"
       d="m 206.78571,252.18361 a 15.892858,16.25 0 0 1 -15.89286,16.25 15.892858,16.25 0 0 1 -15.89285,-16.25 15.892858,16.25 0 0 1 15.89285,-16.25 15.892858,16.25 0 0 1 15.89286,16.25 z"
       transform="matrix(.28276 .014002 -.014002 .28276 168.02 398)"
       sodipodi:cy="252.18361"
       sodipodi:cx="190.89285" />
    <path
       id="path3948"
       sodipodi:rx="6.9642859"
       sodipodi:ry="6.9642859"
       style="fill:#b3b3b3"
       sodipodi:type="arc"
       d="m 203.92857,484.32648 a 6.9642859,6.9642859 0 0 1 -6.96429,6.96428 6.9642859,6.9642859 0 0 1 -6.96429,-6.96428 6.9642859,6.9642859 0 0 1 6.96429,-6.96429 6.9642859,6.9642859 0 0 1 6.96429,6.96429 z"
       transform="matrix(.99878 .049456 -.049456 .99878 45.156 -26.168)"
       sodipodi:cy="484.32648"
       sodipodi:cx="196.96428" />
    <path
       id="path3896"
       style="fill:#cccccc"
       d="m349.2 423.42c-0.29612 0.0135-0.62359 0.096-0.95181 0.26576-13.824 7.1509-26.98 29.265-27.13 32.292-0.0236 0.47702-0.29467 2.2014-0.65642 4.4104l19.153 8.1134 16.331-27.132c0.018-5.5127-0.29881-9.403-0.94921-10.529-2.3182-4.012-3.7235-7.5152-5.7963-7.4208z" />
    <path
       id="path3905"
       sodipodi:rx="15.892858"
       sodipodi:ry="16.25"
       style="fill:#1a1a1a"
       sodipodi:type="arc"
       d="m 206.78571,252.18361 a 15.892858,16.25 0 0 1 -15.89286,16.25 15.892858,16.25 0 0 1 -15.89285,-16.25 15.892858,16.25 0 0 1 15.89285,-16.25 15.892858,16.25 0 0 1 15.89286,16.25 z"
       transform="matrix(.99878 .049456 -.049456 .99878 155.92 177.77)"
       sodipodi:cy="252.18361"
       sodipodi:cx="190.89285" />
    <path
       id="path3893"
       sodipodi:nodetypes="cssssc"
       style="fill:#ffffff"
       d="m248.51 390.43c23.255 0.14012 92.566-0.47342 94.459 2.1488 1.8929 2.6222-0.44236 20.897-5.1299 32.11-4.1278 9.8743-18.925 34.866-29.544 34.947-15.1 0.11556-29.049-31.176-32.53-37.515-7.4219-13.516-27.255-31.691-27.255-31.691z" />
    <path
       id="path3683"
       sodipodi:nodetypes="czscsss"
       style="fill:#ffffff"
       d="m253.47 532.52c-7.9077 12.964-22.178 28.207-27.307 46.993-5.1285 18.786-11.204 40.237-5.6386 41.146 25.492 4.1647 18.37 0.46717 36.134-3.1555 1.4176 1.7945 5.802 6.2856 7.0753-2.3262 1.7069-11.544 1.7683-77.836-0.54599-83.065-3.4172-7.721-6.933-4.1585-9.7182 0.40748z" />
    <path
       id="path3685"
       sodipodi:nodetypes="czzzzzz"
       style="fill:#ffffff"
       d="m251.72 616.6c-7.0862 2.6833-23.601 10.86-24.092 16.759-0.49113 5.8996 2.0628 19.398 17.501 19.324 15.438-0.0736 42.387 1.846 47.015 0.30522 4.6276-1.5408 11.715-1.6955 12.517-12.781 0.80176-11.086-11.537-22.316-20.605-23.018-9.0678-0.70185-25.249-3.273-32.335-0.58973z" />
    <path
       id="path3693"
       sodipodi:nodetypes="cssssssss"
       style="fill:#ffffff"
       d="m347.73 506.6c-0.77054 14.522-25.026 40.733-27.446 43.648-2.4199 2.9143-5.4318 7.5693-5.9463 12.854-0.51451 5.2843-6.3323 30.863-6.6408 37.093-0.32473 6.558 3.232 7.4722 7.9489 7.979 8.6892 0.9336 21.41-5.5764 28.824-10.204 4.6554-2.9057 10.783-6.3759 11.458-11.822 2.3842-19.253 1.9401-53.622-0.089-79.904-0.37419-4.8468-7.7083-7.1908-8.1088 0.35703z" />
    <path
       id="path3695"
       sodipodi:nodetypes="cssssss"
       style="fill:#ffffff"
       d="m362.29 599.86c-0.48709 9.8369 3.1102 26.062 7.8063 26.177 10.102 0.24735 37.633 2.9282 45.049 4.2535 9.532 1.7033 12.049-4.1698 14.372-9.4022 2.5119-5.6586 1.4877-13.964-2.8842-18.348-12.558-12.591-32.389-9.0036-50.159-8.2992-3.8591 0.15298-13.994 1.7614-14.185 5.6188z" />
    <path
       id="path3705"
       sodipodi:rx="6.9642859"
       sodipodi:ry="6.9642859"
       style="fill:#999999"
       sodipodi:type="arc"
       d="m 203.92857,484.32648 a 6.9642859,6.9642859 0 0 1 -6.96429,6.96428 6.9642859,6.9642859 0 0 1 -6.96429,-6.96428 6.9642859,6.9642859 0 0 1 6.96429,-6.96429 6.9642859,6.9642859 0 0 1 6.96429,6.96429 z"
       transform="matrix(.99878 .049456 -.049456 .99878 259.8 -79.153)"
       sodipodi:cy="484.32648"
       sodipodi:cx="196.96428" />
    <path
       id="path3709"
       sodipodi:rx="6.9642859"
       sodipodi:ry="6.9642859"
       style="fill:#999999"
       sodipodi:type="arc"
       d="m 203.92857,484.32648 a 6.9642859,6.9642859 0 0 1 -6.96429,6.96428 6.9642859,6.9642859 0 0 1 -6.96429,-6.96428 6.9642859,6.9642859 0 0 1 6.96429,-6.96429 6.9642859,6.9642859 0 0 1 6.96429,6.96429 z"
       transform="matrix(.99878 .049456 -.049456 .99878 276.24 -89.464)"
       sodipodi:cy="484.32648"
       sodipodi:cx="196.96428" />
    <path
       id="path3707"
       sodipodi:rx="6.9642859"
       sodipodi:ry="6.9642859"
       style="fill:#999999"
       sodipodi:type="arc"
       d="m 203.92857,484.32648 a 6.9642859,6.9642859 0 0 1 -6.96429,6.96428 6.9642859,6.9642859 0 0 1 -6.96429,-6.96428 6.9642859,6.9642859 0 0 1 6.96429,-6.96429 6.9642859,6.9642859 0 0 1 6.96429,6.96429 z"
       transform="matrix(.99878 .049456 -.049456 .99878 267 -91.944)"
       sodipodi:cy="484.32648"
       sodipodi:cx="196.96428" />
    <path
       id="path3922"
       sodipodi:rx="15.892858"
       sodipodi:ry="16.25"
       style="fill:#1a1a1a"
       sodipodi:type="arc"
       d="m 206.78571,252.18361 a 15.892858,16.25 0 0 1 -15.89286,16.25 15.892858,16.25 0 0 1 -15.89285,-16.25 15.892858,16.25 0 0 1 15.89285,-16.25 15.892858,16.25 0 0 1 15.89286,16.25 z"
       transform="matrix(.28276 .014002 -.014002 .28276 390.42 323.55)"
       sodipodi:cy="252.18361"
       sodipodi:cx="190.89285" />
    <path
       id="path3701"
       sodipodi:nodetypes="csssss"
       style="fill:#ffffff"
       d="m436.17 393.46c1.1713-3.229 8.6039-19.089 10.899-20.952 3.4567-2.8069 9.8048-2.2455 11.451-0.8506 5.0354 4.2668 7.3065 13.479 1.3434 16.711-4.4682 2.4216-9.8737 13.172-16.224 12.542-3.4992-0.3475-8.6685-4.1439-7.4694-7.4496z" />
    <path
       id="path3926"
       sodipodi:rx="15.892858"
       sodipodi:ry="16.25"
       style="fill:#1a1a1a"
       sodipodi:type="arc"
       d="m 206.78571,252.18361 a 15.892858,16.25 0 0 1 -15.89286,16.25 15.892858,16.25 0 0 1 -15.89285,-16.25 15.892858,16.25 0 0 1 15.89285,-16.25 15.892858,16.25 0 0 1 15.89286,16.25 z"
       transform="matrix(.28276 .014002 -.014002 .28276 403.33 328.24)"
       sodipodi:cy="252.18361"
       sodipodi:cx="190.89285" />
    <path
       id="path3713"
       sodipodi:nodetypes="csssss"
       style="fill:#999999"
       d="m451.16 398.19c-1.9395 1.6283-1.5974 6.7801 2.4248 7.1998 6.9825 0.7286 12.322 1.3687 13.595 1.1789 1.2736-0.18978 8.0597-3.6227 7.9416-7.1922-0.14378-4.3424-5.8967-7.6487-10.219-8.0914-5.1-0.52235-7.7323 1.859-13.743 6.9049z" />
    <path
       id="path4002"
       style="fill:#f9f9f9"
       d="m466.81 401.3c-2.1-2.25-0.83-7.5-0.83-7.5l7.7773-1.3216-6.9476 8.8217z" />
    <path
       id="path3928"
       sodipodi:rx="15.892858"
       sodipodi:ry="16.25"
       style="fill:#1a1a1a"
       sodipodi:type="arc"
       d="m 206.78571,252.18361 a 15.892858,16.25 0 0 1 -15.89286,16.25 15.892858,16.25 0 0 1 -15.89285,-16.25 15.892858,16.25 0 0 1 15.89285,-16.25 15.892858,16.25 0 0 1 15.89286,16.25 z"
       transform="matrix(.28276 .014002 -.014002 .28276 419.85 326.53)"
       sodipodi:cy="252.18361"
       sodipodi:cx="190.89285" />
    <path
       id="path3715"
       sodipodi:nodetypes="cssss"
       style="fill:#ffffff"
       d="m470.61 393.59c-1.9797 4.2953-2.3151 11.011-0.69942 14.125 1.6157 3.1142 8.3557 12.551 15.253 13.651 10.097 1.6098 14.385-11.201 11.063-19.174-3.9048-9.3725-23.593-12.993-25.617-8.6011z" />
    <path
       id="path3992"
       style="fill:#999999"
       d="m445.82 374.08c-3.0209 4.5359-8.6521 16.616-9.6583 19.39-1.1991 3.3057 3.9856 7.0943 7.4849 7.4418 6.3498 0.63056 11.734-10.105 16.202-12.527 1.8941-1.0266 2.9467-2.6752 3.3546-4.5584l-10.358-4.3926c-1.884 0.62576-3.1919 2.7704-5.6623 1.8785 0 0-2.0994-1.0152-1.3627-7.2325z" />
    <path
       id="path3924"
       sodipodi:rx="15.892858"
       sodipodi:ry="16.25"
       style="fill:#1a1a1a"
       sodipodi:type="arc"
       d="m 206.78571,252.18361 a 15.892858,16.25 0 0 1 -15.89286,16.25 15.892858,16.25 0 0 1 -15.89285,-16.25 15.892858,16.25 0 0 1 15.89285,-16.25 15.892858,16.25 0 0 1 15.89286,16.25 z"
       transform="matrix(.28276 .014002 -.014002 .28276 401.82 302.62)"
       sodipodi:cy="252.18361"
       sodipodi:cx="190.89285" />
    <path
       id="path3703"
       sodipodi:nodetypes="csssss"
       style="fill:#ffffff"
       d="m454.18 394.73c4.9828 3.7771 11.973 2.1477 16.072 0.3795 3.4744-1.4987 8.3752-8.0857 5.8868-15.297-0.86004-2.4924-9.0139-14.492-15.99-12.258-4.4275 1.4177-9.6017 4.2656-10.373 8.8502-0.83464 4.9617-0.28094 14.774 4.4044 18.326z" />
    <path
       id="path3918"
       sodipodi:rx="15.892858"
       sodipodi:ry="16.25"
       style="fill:#1a1a1a"
       sodipodi:type="arc"
       d="m 206.78571,252.18361 a 15.892858,16.25 0 0 1 -15.89286,16.25 15.892858,16.25 0 0 1 -15.89285,-16.25 15.892858,16.25 0 0 1 15.89285,-16.25 15.892858,16.25 0 0 1 15.89286,16.25 z"
       transform="matrix(.28276 .014002 -.014002 .28276 382.1 343.37)"
       sodipodi:cy="252.18361"
       sodipodi:cx="190.89285" />
    <path
       id="path3721"
       sodipodi:nodetypes="cssss"
       style="fill:#ffffff"
       d="m428.36 419.57c-2.2169 5.4559 0.38863 21.798 3.1514 23.165 5.6764 2.8096 11.657 4.1445 14.867-4.068 1.8426-4.7147-4.0726-9.9515-5.7711-16.215-1.7631-6.5018-9.4365-9.7984-12.247-2.882z" />
    <path
       id="path3982"
       style="fill:#999999"
       d="m432.08 415.86c-1.4993 0.3805-2.8404 1.5342-3.7186 3.6956-2.2169 5.4559 0.3758 21.816 3.1385 23.184 2.6723 1.3227 5.4189 2.2856 7.9052 2.1123 0.75629-2.1556 1.2779-3.6913 1.2779-3.6913s-7.2879-0.7295-6.8483-4.5004c0.43958-3.7709 5.5378-4.419 5.5378-4.419s-3.8323-7.4954-7.2926-16.381z" />
    <path
       id="path3920"
       sodipodi:rx="15.892858"
       sodipodi:ry="16.25"
       style="fill:#1a1a1a"
       sodipodi:type="arc"
       d="m 206.78571,252.18361 a 15.892858,16.25 0 0 1 -15.89286,16.25 15.892858,16.25 0 0 1 -15.89285,-16.25 15.892858,16.25 0 0 1 15.89285,-16.25 15.892858,16.25 0 0 1 15.89286,16.25 z"
       transform="matrix(.28276 .014002 -.014002 .28276 390.05 366.77)"
       sodipodi:cy="252.18361"
       sodipodi:cx="190.89285" />
    <path
       id="path3723"
       sodipodi:nodetypes="csscc"
       style="fill:#ffffff"
       d="m435.82 442.44c-1.5748 9.8538 4.4749 19.537 10.426 19.227 6.5745-0.34228 11.687-0.85574 18.525-1.3583 5.4595-0.40126 6.6033-14.376 3.7237-19.032-8.8731-9.7725-23.898-8.0191-32.675 1.1634z" />
    <path
       id="path3878"
       sodipodi:nodetypes="csscc"
       style="fill:#999999"
       d="m248.56 539.87c-7.9414 11.313-18.2 24.269-22.394 39.628-5.1285 18.786-11.201 40.237-5.6356 41.147 9.4254 1.5399 14.362 1.9962 17.777 1.7876 3.2868-13.507 9.6966-62.468 10.252-82.563z" />
    <path
       id="path3884"
       style="fill:#999999"
       d="m228.87 630.54c-0.72081 0.97078-1.1602 1.924-1.2346 2.8174-0.49113 5.8996 2.0649 19.4 17.503 19.327 4.1952-0.02 9.2267 0.0809 14.443 0.24585l2.0484-17.357s-20.506 1.3447-32.76-5.0326z" />
    <path
       id="path3890"
       sodipodi:nodetypes="ccscscc"
       style="fill:#999999"
       d="m321.7 454.19c-3.2987 17.559-7.209 35.587-7.688 53.529 1.9703 6.1659 3.1297 13.043 13.459 13.808 4.0265 0.29789 6.7488-0.77257 8.7613-2.5386-1.6362-2.5565-1.7272-7.147-1.8519-9.6302-0.36016-7.1694 11.88-51.981 11.88-51.981s-15.624 8.6812-24.56-3.1873z" />
    <path
       id="path3902"
       style="fill:#999999"
       d="m336.19 530.63c-6.9097 9.6623-14.588 18.038-15.896 19.613-2.4199 2.9143-5.4406 7.5619-5.9551 12.846-0.51451 5.2843-6.3466 30.862-6.655 37.091-0.32473 6.558 3.2411 7.4903 7.958 7.9971 7.6648 0.82353 18.455-4.1476 25.984-8.5066l1.4968-67.509s-3.581 2.8867-6.9327-1.5322z" />
    <path
       id="path3907"
       style="fill:#999999"
       d="m342.44 598.37c-10.464 0.91168-18.887 8.0556-30.083 9.1484-4.3305 0.42264-6.6591 1.9892-6.2544 3.7265 1.2511 5.3717 2.1509 7.9996 5.3186 10.119 8.6625 1.7903 39.238 4.1732 46.175 2.0361 2.8234-1.7108 4.0056-2.3048 3.8762-6.8792-0.13439-4.7511-1.308-9.5643-2.8392-14.064-0.13001-0.38208-0.31226-0.70625-0.48114-1.025-5.4136 1.934-14.296 3.7284-15.712-3.062z" />
    <path
       id="path3913"
       style="fill:#999999"
       d="m394.22 604.18c-11.221-0.51319-24.445-0.41387-31.891 0.17299 0.52303 9.6101 3.749 21.594 7.7804 21.693 10.102 0.24735 37.617 2.9071 45.033 4.2323 2.0711 0.37009 3.8038 0.36612 5.2825 0.10513-1.4775-9.5459-3.9841-22.104-7.176-23.79-2.2868-1.2083-9.9911-1.9995-19.029-2.4128z" />
    <path
       id="path3944"
       sodipodi:rx="6.9642859"
       sodipodi:ry="6.9642859"
       style="fill:#b3b3b3"
       sodipodi:type="arc"
       d="m 203.92857,484.32648 a 6.9642859,6.9642859 0 0 1 -6.96429,6.96428 6.9642859,6.9642859 0 0 1 -6.96429,-6.96428 6.9642859,6.9642859 0 0 1 6.96429,-6.96429 6.9642859,6.9642859 0 0 1 6.96429,6.96429 z"
       transform="matrix(.99878 .049456 -.049456 .99878 35.154 -19.154)"
       sodipodi:cy="484.32648"
       sodipodi:cx="196.96428" />
    <path
       id="path3950"
       style="fill:#ffffff"
       d="m218.28 460.35c-0.8691-0.043-1.7075 0.0929-2.4889 0.34608-2.603 8.5657 1.8469 11.64 6.4088 12.113 1.5502-1.2021 2.5911-3.0414 2.6957-5.1542 0.19022-3.8416-2.774-7.1146-6.6156-7.3049z" />
    <path
       id="path3939"
       style="fill:#ffffff"
       d="m196.04 468.9c-0.86911-0.043-1.7075 0.0929-2.4889 0.34608-2.603 8.5657 1.8469 11.64 6.4088 12.113 1.5502-1.2021 2.5911-3.0414 2.6957-5.1542 0.19022-3.8416-2.774-7.1146-6.6156-7.3049z" />
    <path
       id="path3946"
       style="fill:#ffffff"
       d="m208.27 467.36c-0.8691-0.043-1.7075 0.0929-2.4889 0.34609-2.603 8.5657 1.8469 11.64 6.4088 12.113 1.5502-1.2021 2.5911-3.0414 2.6957-5.1542 0.19022-3.8416-2.774-7.1146-6.6156-7.3049z" />
    <path
       id="path3987"
       sodipodi:nodetypes="ccscsc"
       style="fill:#999999"
       d="m449.14 441.57s-8.8716-2.0796-13.416 1.8113c-1.0631 9.5205 4.7524 18.592 10.514 18.292 6.2881-0.32737 11.309-0.8319 17.712-1.3132-5.1113-0.6955-10.969-1.4788-12.223-2.1071-7.2784-3.6474-2.5865-16.683-2.5865-16.683z" />
    <path
       id="path3997"
       style="fill:#999999"
       d="m454.91 369.9c-2.5594 1.5714-4.6725 3.7222-5.1404 6.5037-0.83464 4.9617-0.27422 14.783 4.4112 18.334 3.0965 2.3472 6.9729 2.5834 10.444 2.019-2.7702-1.1218-6.3347-3.1101-7.0084-6.3231-0.4473-2.1334 0.0338-5.8238 3.6899-8.1713 0 0-3.7544-6.5941-6.3964-12.363z" />
    <path
       id="path4009"
       sodipodi:nodetypes="csscssc"
       style="fill:#999999"
       d="m470.42 394.04c-1.808 4.3016-2.0829 10.668-0.52087 13.678 1.6157 3.1142 8.3523 12.546 15.25 13.646 2.5066 0.39965 4.6768-0.0685 6.4398-1.1517-1.636-1.4249-3.9525-1.5122-5.9172-5.612-1.1472-2.394 2.8346-12.111 3.8058-13.672 0.96185-1.5459-6.8533-4.7537-19.058-6.8884z" />
    <path
       id="path4019"
       sodipodi:rx="3.3085501"
       sodipodi:ry="1.9299877"
       style="fill:#ffffff"
       sodipodi:type="arc"
       d="m 199.06444,241.49167 a 3.3085501,1.9299877 0 0 1 -3.30855,1.92999 3.3085501,1.9299877 0 0 1 -3.30855,-1.92999 3.3085501,1.9299877 0 0 1 3.30855,-1.92999 3.3085501,1.9299877 0 0 1 3.30855,1.92999 z"
       transform="matrix(.95330 .30201 -.30201 .95330 89.739 -55.735)"
       sodipodi:cy="241.49167"
       sodipodi:cx="195.75589" />
    <path
       id="path4021"
       sodipodi:rx="3.3085501"
       sodipodi:ry="1.9299877"
       style="fill:#ffffff"
       sodipodi:type="arc"
       d="m 199.06444,241.49167 a 3.3085501,1.9299877 0 0 1 -3.30855,1.92999 3.3085501,1.9299877 0 0 1 -3.30855,-1.92999 3.3085501,1.9299877 0 0 1 3.30855,-1.92999 3.3085501,1.9299877 0 0 1 3.30855,1.92999 z"
       transform="matrix(.95330 .30201 -.30201 .95330 253.04 -70.009)"
       sodipodi:cy="241.49167"
       sodipodi:cx="195.75589" />
    <path
       id="path4023"
       sodipodi:rx="3.3085501"
       sodipodi:ry="1.9299877"
       style="fill:#ffffff"
       sodipodi:type="arc"
       d="m 199.06444,241.49167 a 3.3085501,1.9299877 0 0 1 -3.30855,1.92999 3.3085501,1.9299877 0 0 1 -3.30855,-1.92999 3.3085501,1.9299877 0 0 1 3.30855,-1.92999 3.3085501,1.9299877 0 0 1 3.30855,1.92999 z"
       transform="matrix(.95330 .30201 -.30201 .95330 140.09 142.75)"
       sodipodi:cy="241.49167"
       sodipodi:cx="195.75589" />
    <path
       id="path4025"
       sodipodi:rx="3.3085501"
       sodipodi:ry="1.9299877"
       style="fill:#ffffff"
       sodipodi:type="arc"
       d="m 199.06444,241.49167 a 3.3085501,1.9299877 0 0 1 -3.30855,1.92999 3.3085501,1.9299877 0 0 1 -3.30855,-1.92999 3.3085501,1.9299877 0 0 1 3.30855,-1.92999 3.3085501,1.9299877 0 0 1 3.30855,1.92999 z"
       transform="matrix(.95330 .30201 -.30201 .95330 228.23 141.05)"
       sodipodi:cy="241.49167"
       sodipodi:cx="195.75589" />
    <path
       id="path4029"
       sodipodi:nodetypes="cscsccc"
       style="fill:#ffffff"
       d="m308.9 227.53c-6.6327 1.077-12.773 2.7494-15.153 3.9742-2.285 1.176-3.0536 2.0207-4.2344 3.3422 26.984-9.646 44.411-7.4474 50.547-2.1679 2.5774 2.2177 4.2969 2.7723 5.8502 6.9004-0.93285-7.5715-7.2485-11.392-14.029-13.007-7.612-1.199-15.421-0.13734-22.982 0.95833z" />
  </g>
  <metadata
     id="metadata114">
    <rdf:RDF>
      <cc:Work>
        <dc:format>image/svg+xml</dc:format>
        <dc:type
           rdf:resource="http://purl.org/dc/dcmitype/StillImage" />
        <cc:license
           rdf:resource="http://creativecommons.org/licenses/publicdomain/" />
        <dc:publisher>
          <cc:Agent
             rdf:about="http://openclipart.org/">
            <dc:title>Openclipart</dc:title>
          </cc:Agent>
        </dc:publisher>
        <dc:title>robot</dc:title>
        <dc:date>2011-03-06T17:23:36</dc:date>
        <dc:description />
        <dc:source>https://openclipart.org/detail/125863/robot-by-tzunghaor</dc:source>
        <dc:creator>
          <cc:Agent>
            <dc:title>tzunghaor</dc:title>
          </cc:Agent>
        </dc:creator>
        <dc:subject>
          <rdf:Bag>
            <rdf:li>droid</rdf:li>
            <rdf:li>machine</rdf:li>
            <rdf:li>robot</rdf:li>
          </rdf:Bag>
        </dc:subject>
      </cc:Work>
      <cc:License
         rdf:about="http://creativecommons.org/licenses/publicdomain/">
        <cc:permits
           rdf:resource="http://creativecommons.org/ns#Reproduction" />
        <cc:permits
           rdf:resource="http://creativecommons.org/ns#Distribution" />
        <cc:permits
           rdf:resource="http://creativecommons.org/ns#DerivativeWorks" />
      </cc:License>
    </rdf:RDF>
  </metadata>
</svg>
