<?xml version="1.0" encoding="UTF-8" standalone="no"?>
<!-- Created with Inkscape (http://www.inkscape.org/) -->

<svg
   xmlns:dc="http://purl.org/dc/elements/1.1/"
   xmlns:cc="http://creativecommons.org/ns#"
   xmlns:rdf="http://www.w3.org/1999/02/22-rdf-syntax-ns#"
   xmlns:svg="http://www.w3.org/2000/svg"
   xmlns="http://www.w3.org/2000/svg"
   xmlns:sodipodi="http://sodipodi.sourceforge.net/DTD/sodipodi-0.dtd"
   xmlns:inkscape="http://www.inkscape.org/namespaces/inkscape"
   width="396.7634"
   height="569.56805"
   id="svg2"
   version="1.1"
   inkscape:version="0.48.4 r9939"
   sodipodi:docname="robobike.svg">
  <defs
     id="defs4" />
  <sodipodi:namedview
     id="base"
     pagecolor="#ffffff"
     bordercolor="#666666"
     borderopacity="1.0"
     inkscape:pageopacity="0.0"
     inkscape:pageshadow="2"
     inkscape:zoom="0.7"
     inkscape:cx="494.98795"
     inkscape:cy="58.04279"
     inkscape:document-units="px"
     inkscape:current-layer="layer2"
     showgrid="false"
     showguides="true"
     inkscape:guide-bbox="true"
     inkscape:window-width="1920"
     inkscape:window-height="1027"
     inkscape:window-x="0"
     inkscape:window-y="0"
     inkscape:window-maximized="1"
     fit-margin-top="10"
     fit-margin-left="10"
     fit-margin-right="10"
     fit-margin-bottom="10" />
  <metadata
     id="metadata7">
    <rdf:RDF>
      <cc:Work
         rdf:about="">
        <dc:format>image/svg+xml</dc:format>
        <dc:type
           rdf:resource="http://purl.org/dc/dcmitype/StillImage" />
        <dc:title></dc:title>
      </cc:Work>
    </rdf:RDF>
  </metadata>
  <g
     inkscape:label="Layer 1"
     inkscape:groupmode="layer"
     id="layer1"
     style="display:none"
     sodipodi:insensitive="true"
     transform="translate(-3.629287,-6.390504)">
    <path
       style="fill:none;stroke:#000000;stroke-width:1;stroke-linecap:butt;stroke-linejoin:miter;stroke-miterlimit:4;stroke-opacity:1;stroke-dasharray:none"
       d="M 287.85714,543.79075 350,563.07647 l -5,66.42857 -52.85714,-2.14286 31.42857,-48.57143 z"
       id="path3047"
       inkscape:connector-curvature="0" />
    <path
       sodipodi:type="arc"
       style="fill:none;stroke:#000000;stroke-width:1.38204396;stroke-miterlimit:4;stroke-dasharray:none"
       id="path2985"
       sodipodi:cx="197.14285"
       sodipodi:cy="473.79074"
       sodipodi:rx="102.85714"
       sodipodi:ry="102.85714"
       d="m 299.99999,473.79074 c 0,56.80643 -46.05071,102.85714 -102.85714,102.85714 -56.80643,0 -102.857137,-46.05071 -102.857137,-102.85714 0,-56.80643 46.050707,-102.85714 102.857137,-102.85714 56.80643,0 102.85714,46.05071 102.85714,102.85714 z"
       transform="matrix(0.72356599,0,0,0.72356599,79.532884,313.88934)" />
    <path
       sodipodi:type="arc"
       style="fill:none;stroke:#000000;stroke-width:1.30713642;stroke-miterlimit:4;stroke-dasharray:none"
       id="path2985-9"
       sodipodi:cx="197.14285"
       sodipodi:cy="473.79074"
       sodipodi:rx="102.85714"
       sodipodi:ry="102.85714"
       d="m 299.99999,473.79074 c 0,56.80643 -46.05071,102.85714 -102.85714,102.85714 -56.80643,0 -102.857137,-46.05071 -102.857137,-102.85714 0,-56.80643 46.050707,-102.85714 102.857137,-102.85714 56.80643,0 102.85714,46.05071 102.85714,102.85714 z"
       transform="matrix(0.76503109,0,0,0.76503109,302.27581,298.52927)" />
    <path
       style="fill:none;stroke:#000000;stroke-width:1;stroke-linecap:butt;stroke-linejoin:miter;stroke-miterlimit:4;stroke-opacity:1;stroke-dasharray:none"
       d="m 213.21429,658.07646 113.92856,10 -25,-77.14285 z"
       id="path3005"
       inkscape:connector-curvature="0"
       sodipodi:nodetypes="cccc" />
    <path
       style="fill:none;stroke:#000000;stroke-width:1;stroke-linecap:butt;stroke-linejoin:miter;stroke-miterlimit:4;stroke-opacity:1;stroke-dasharray:none"
       d="M 326.42857,668.07646 414.64286,555.9336"
       id="path3007"
       inkscape:connector-curvature="0"
       sodipodi:nodetypes="cc" />
    <path
       style="fill:none;stroke:#000000;stroke-width:1;stroke-linecap:butt;stroke-linejoin:miter;stroke-miterlimit:4;stroke-opacity:1;stroke-dasharray:none"
       d="m 302.85714,591.64789 112.5,-35.71429"
       id="path3009"
       inkscape:connector-curvature="0"
       sodipodi:nodetypes="cc" />
    <path
       style="fill:none;stroke:#000000;stroke-width:1;stroke-linecap:butt;stroke-linejoin:miter;stroke-miterlimit:4;stroke-opacity:1;stroke-dasharray:none"
       d="m 400.28243,520.1446 56.22086,146.57802"
       id="path3017"
       inkscape:connector-curvature="0"
       sodipodi:nodetypes="cc" />
    <path
       style="fill:none;stroke:#000000;stroke-width:1;stroke-linecap:butt;stroke-linejoin:miter;stroke-miterlimit:4;stroke-opacity:1;stroke-dasharray:none"
       d="m 302.14286,603.07647 c 0,-5 -10,-32.14286 -10,-32.14286 L 270,570.21932 l 51.42857,-0.71428"
       id="path3027"
       inkscape:connector-curvature="0" />
    <path
       style="fill:none;stroke:#000000;stroke-width:1;stroke-linecap:butt;stroke-linejoin:miter;stroke-miterlimit:4;stroke-opacity:1;stroke-dasharray:none"
       d="m 326.42857,664.50504 23.57143,30"
       id="path3029"
       inkscape:connector-curvature="0" />
    <path
       style="fill:none;stroke:#000000;stroke-width:1;stroke-linecap:butt;stroke-linejoin:miter;stroke-miterlimit:4;stroke-opacity:1;stroke-dasharray:none"
       d="M 325.71429,660.21933 303.57143,632.36218"
       id="path3031"
       inkscape:connector-curvature="0" />
    <path
       style="fill:none;stroke:#000000;stroke-width:1;stroke-linecap:butt;stroke-linejoin:miter;stroke-miterlimit:4;stroke-opacity:1;stroke-dasharray:none"
       d="m 326.42857,694.50504 40,-1.42857"
       id="path3033"
       inkscape:connector-curvature="0" />
    <path
       style="fill:none;stroke:#000000;stroke-width:1;stroke-linecap:butt;stroke-linejoin:miter;stroke-miterlimit:4;stroke-opacity:1;stroke-dasharray:none"
       d="m 292.14286,635.93361 28.57143,0.71429"
       id="path3035"
       inkscape:connector-curvature="0" />
    <path
       sodipodi:type="arc"
       style="fill:#ffffff;stroke:#000000;stroke-width:1;stroke-linecap:round;stroke-miterlimit:4;stroke-opacity:0.75294118;stroke-dasharray:none"
       id="path3043"
       sodipodi:cx="295"
       sodipodi:cy="482.36218"
       sodipodi:rx="76.428574"
       sodipodi:ry="85"
       d="m 371.42857,482.36218 c 0,46.94421 -34.21823,85 -76.42857,85 -42.21034,0 -76.42857,-38.05579 -76.42857,-85 0,-46.9442 34.21823,-85 76.42857,-85 42.21034,0 76.42857,38.0558 76.42857,85 z"
       transform="matrix(1.0007232,0,0,0.79056621,-5.9276188,121.02294)" />
    <path
       style="fill:#ffffff;stroke:#000000;stroke-width:1;stroke-linecap:butt;stroke-linejoin:miter;stroke-miterlimit:4;stroke-opacity:1;stroke-dasharray:none"
       d="m 276.42857,566.6479 65,65 -15.71428,57.85714 56.42857,0.71429 -20.71429,-75 -75,-63.57143 z"
       id="path3045"
       inkscape:connector-curvature="0" />
    <path
       style="fill:none;stroke:#000000;stroke-width:1;stroke-linecap:butt;stroke-linejoin:miter;stroke-miterlimit:4;stroke-opacity:1;stroke-dasharray:none"
       d="m 285,460.21933 c 0,0 -2.85714,7.14285 -2.85714,10.71428 0,3.57143 36.42857,18.57143 36.42857,18.57143 l 67.85714,29.28571 35.71429,-17.85714 L 400,472.36218 l -73.57143,0 z"
       id="path3049"
       inkscape:connector-curvature="0"
       sodipodi:nodetypes="cscccccc" />
    <path
       sodipodi:type="arc"
       style="fill:#ffffff;fill-opacity:1;stroke:#000000;stroke-width:1;stroke-linecap:round;stroke-miterlimit:4;stroke-opacity:0.75294118;stroke-dasharray:none"
       id="path3821"
       sodipodi:cx="295.35715"
       sodipodi:cy="362.71933"
       sodipodi:rx="96.071426"
       sodipodi:ry="93.928574"
       d="m 391.42857,362.71933 c 0,51.87532 -43.01264,93.92857 -96.07142,93.92857 -53.05879,0 -96.07143,-42.05325 -96.07143,-93.92857 0,-51.87532 43.01264,-93.92857 96.07143,-93.92857 53.05878,0 96.07142,42.05325 96.07142,93.92857 z" />
    <path
       style="fill:none;stroke:#000000;stroke-width:1px;stroke-linecap:butt;stroke-linejoin:miter;stroke-opacity:1"
       d="m 404.28571,356.6479 c -6.42857,-1.42858 -105,-22.14286 -105,-22.14286 l -62.14285,30 57.14285,69.28571 95,-35.71428"
       id="path3823"
       inkscape:connector-curvature="0" />
    <path
       style="fill:none;stroke:#000000;stroke-width:1px;stroke-linecap:butt;stroke-linejoin:miter;stroke-opacity:1"
       d="m 260.71429,321.6479 c 4.28571,2.85714 25,45 25,45 l -22.14286,40 -50.71429,-17.85715 15.71429,-152.85714 10,1.42857 -10,83.57143 z"
       id="path3825"
       inkscape:connector-curvature="0" />
    <path
       style="fill:none;stroke:#000000;stroke-width:1px;stroke-linecap:butt;stroke-linejoin:miter;stroke-opacity:1"
       d="M 208.57143,273.79075 C 219.28571,273.79075 425,299.50504 425,299.50504"
       id="path3827"
       inkscape:connector-curvature="0" />
    <path
       style="fill:none;stroke:#000000;stroke-width:1px;stroke-linecap:butt;stroke-linejoin:miter;stroke-opacity:1"
       d="m 252.85714,430.21932 c 0,6.42858 -5.71428,138.57143 -5.71428,138.57143"
       id="path3848"
       inkscape:connector-curvature="0" />
    <path
       style="fill:none;stroke:#000000;stroke-width:1px;stroke-linecap:butt;stroke-linejoin:miter;stroke-opacity:1"
       d="M 317.85714,566.6479 C 317.85714,552.36218 340,457.36219 340,457.36219"
       id="path3850"
       inkscape:connector-curvature="0"
       sodipodi:nodetypes="cc" />
    <path
       style="fill:none;stroke:#000000;stroke-width:1px;stroke-linecap:butt;stroke-linejoin:miter;stroke-opacity:1"
       d="M 239.28571,470.93361 C 240,468.07647 275.71429,443.79075 275.71429,443.79075"
       id="path3852"
       inkscape:connector-curvature="0" />
    <path
       style="fill:none;stroke:#000000;stroke-width:1px;stroke-linecap:butt;stroke-linejoin:miter;stroke-opacity:1"
       d="m 361.42857,471.6479 -55,-22.14286"
       id="path3854"
       inkscape:connector-curvature="0" />
  </g>
  <g
     inkscape:groupmode="layer"
     id="layer2"
     inkscape:label="Layer"
     style="display:inline"
     transform="translate(-3.629287,-6.390504)">
    <path
       style="fill:#000000;fill-opacity:1;stroke:none;display:inline"
       d="m 197.89268,472.08104 c -17.65339,0 -31.96875,13.8133 -31.96875,30.875 0,13.3636 8.77393,24.7564 21.0625,29.0625 l -2.5,-12.0938 15.8125,-47.75 c -0.80155,-0.058 -1.58929,-0.094 -2.40625,-0.094 z"
       id="path3892-4"
       inkscape:connector-curvature="0" />
    <path
       style="fill:#000000;stroke:none;display:inline"
       d="m 97.455357,23.535714 -44,156.562496 60.281253,30.5 25.3125,-35.6875 -18.53125,-44.53125 -38.281253,0.71875 3,-10.8125 43.812503,0.25 22.53125,59.84375 -38.34375,40 -59.625003,-28.59375 61.812503,87.25 98.09375,19.46875 -4.15625,-4.875 1.78125,-35.71875 8.5625,-1.78125 -2.5,34.65625 4.9375,5.15625 7.84375,-4.5 -2.1875,-2.59375 1.78125,-35.71875 8.5625,-1.78125 -2.5,34.65625 1.34375,1.40625 9.34375,-5.375 1.6875,-33.5 8.5625,-1.78125 -1.5625,21.78125 5.65625,-27.09375 -89.84375,9.34375 -47.21875,-29.75 35.03125,-36.9375 -10.09375,-34.65625 28.75,-7.375 103.03125,37.75 4.5,-17.28125 -98.125,-32.53125 -10.86607,-66.647316 -84.071433,19.36607 16.375003,-54 z m -17.6875,120.749996 30.812503,1 13.65625,26.78125 -14.90625,21.46875 -33.843753,-17.1875 z"
       id="path3857-5"
       inkscape:connector-curvature="0"
       sodipodi:nodetypes="ccccccccccccccccccccccccccccccccccccccccccccccc" />
    <path
       style="fill:#000000;fill-opacity:1;stroke:none;display:inline"
       d="m 174.86351,18.063184 16.50077,106.363126 96.56257,33.32147 3.20201,-11.58088 -70.94876,-71.301006 -34.39331,-58.47539 z"
       id="path3859-0"
       inkscape:connector-curvature="0"
       sodipodi:nodetypes="ccccccc" />
    <path
       style="fill:#000000;fill-opacity:1;stroke:none;display:inline"
       d="m 146.64286,289.56696 c -1.80211,0 -15.05442,2.37621 -27.75,4.71875 l 33.25,21.28125 28.53125,-18.8125 -34.03125,-7.1875 z"
       id="path4113"
       inkscape:connector-curvature="0" />
    <path
       style="fill:#000000;stroke:none;display:inline"
       d="m 110.33036,295.87946 c -8.55811,1.60153 -15.843753,2.96875 -15.843753,2.96875 l 0.71875,13.59375 58.562503,29.28125 45,-31.4375 -1.4375,-10 -9.53125,-2.03125 -35.65625,24.09375 -41.8125,-26.46875 z"
       id="path3861-9"
       inkscape:connector-curvature="0" />
    <path
       style="fill:#000000;fill-opacity:1;stroke:none;display:inline"
       d="m 169.48643,336.71552 20,-14.28571 22.85714,24.28571 -11.42857,16.42857 z"
       id="path3863-9"
       inkscape:connector-curvature="0" />
    <path
       style="fill:#000000;fill-opacity:1;stroke:none;display:inline"
       d="m 218.77214,348.85838 -10.71428,16.42857 45,6.42857 -9.28572,-29.28571 z"
       id="path3865-6"
       inkscape:connector-curvature="0" />
    <path
       style="fill:#000000;fill-opacity:1;stroke:none;display:inline"
       d="m 249.48643,343.85838 9.28571,29.28571 22.69127,0 6.21936,-13.06634 -17.38796,-1.01015 -5.29587,-12.27285 15.5484,-13.07379 15.6561,14.00471 -11.00272,25.41842 13.57142,0.71429 16.42858,-34.28571 -37.26541,-24.82669 z"
       id="path3867-8"
       inkscape:connector-curvature="0"
       sodipodi:nodetypes="ccccccccccccc" />
    <path
       style="fill:#000000;fill-opacity:1;stroke:none;display:inline"
       d="m 110.73643,364.92981 0.89286,27.5 52.30874,-7.89676 15.5484,15.03962 12.85714,0 3.14557,-28.19262 -16.71699,-20.73595 -10.50508,3.54079 -3.78064,17.53063 z"
       id="path3869-6"
       inkscape:connector-curvature="0"
       sodipodi:nodetypes="cccccccccc" />
    <path
       style="fill:#000000;fill-opacity:1;stroke:none;display:inline"
       d="m 113.76786,327.44196 -0.71875,33.1875 47.79911,7.12054 3.79464,-16.33929 12.5,-4.21875 -11.125,-7.5625 -12.6875,6.0625 z"
       id="path3871-2"
       inkscape:connector-curvature="0"
       sodipodi:nodetypes="cccccccc" />
    <path
       style="fill:#000000;fill-opacity:1;stroke:none;display:inline"
       d="m 112.87929,397.07267 c 5.71428,0 49.46428,-8.21429 49.46428,-8.21429 l 17.58929,17.5 -24.19643,25.26787 -12.67857,0.0893 -30.71429,-19.28573 z"
       id="path3873-4"
       inkscape:connector-curvature="0"
       sodipodi:nodetypes="ccccccc" />
    <path
       style="fill:#000000;fill-opacity:1;stroke:none;display:inline"
       d="m 159.52605,434.11465 22.31244,-23.57516 39.7908,30.46175 -29.28572,18.5714 z"
       id="path3875-5"
       inkscape:connector-curvature="0"
       sodipodi:nodetypes="ccccc" />
    <path
       style="fill:#000000;fill-opacity:1;stroke:none;display:inline"
       d="m 226.93129,442.6991 -29.14662,20.17782 8.16339,5.10977 -16.75285,51.83313 2.05917,6.65085 78.95098,0.97129 0,-10 -20.19643,-7.32143 -9.64286,-29.46875 -8.74102,-8.89188 z"
       id="path3879-9"
       inkscape:connector-curvature="0"
       sodipodi:nodetypes="ccccccccccc" />
    <path
       style="fill:#000000;stroke:none;display:inline"
       d="m 203.9206,529.92474 -0.375,14.5338 20.50333,0.06 c -2.30561,-1.4003 -3.84375,-3.9648 -3.84375,-6.9062 0,-3.445 2.11546,-6.3887 5.09375,-7.5313 z m 27.00333,0.2188 c 2.91624,1.1741 5,4.0693 5,7.4687 0,3.0107 -1.63521,5.6236 -4.03125,7 l 20.76174,0.06 0,-14.3724 z"
       id="path3887-4"
       inkscape:connector-curvature="0"
       sodipodi:nodetypes="cccscccscccc" />
    <path
       style="fill:#000000;fill-opacity:1;stroke:none;display:inline"
       d="m 153.08324,434.61228 7.1608,4.70782 -56.82904,43.82394 0.71429,11.4286 59.27084,6.32394 1.01016,11.68114 -89.209573,-9.07648 -6.42858,-13.2143 z"
       id="path3897-8"
       inkscape:connector-curvature="0"
       sodipodi:nodetypes="ccccccccc" />
    <path
       style="fill:#000000;stroke:none;display:inline"
       d="m 194.48643,416.00124 c 1.07143,1.42857 7.85714,6.07143 7.85714,6.07143 l 63.92857,-20 -35,44.64287 1.78572,13.5714 41.78571,-53.57142 c 0,0 23.32784,60.96652 41.07143,101.42852 l 10.35715,1.0715 6.42857,-13.5715 -8.21429,-22.1428 -9.64286,-2.5 -36.78571,-95 -13.21429,0.35714 5.35715,14.64286 z"
       id="path3899-9"
       inkscape:connector-curvature="0"
       sodipodi:nodetypes="ccccccccccccccc" />
    <path
       sodipodi:type="arc"
       style="fill:#000000;fill-opacity:1;stroke:none;display:inline"
       id="path3903-9"
       sodipodi:cx="415.42523"
       sodipodi:cy="511.29922"
       sodipodi:rx="9.3439112"
       sodipodi:ry="9.2176418"
       d="m 424.76914,511.29922 c 0,5.09077 -4.18341,9.21765 -9.34391,9.21765 -5.1605,0 -9.34391,-4.12688 -9.34391,-9.21765 0,-5.09076 4.18341,-9.21764 9.34391,-9.21764 5.1605,0 9.34391,4.12688 9.34391,9.21764 z"
       transform="translate(-135.51358,-162.07523)" />
    <path
       style="fill:#000000;fill-opacity:1;stroke:none;display:inline"
       d="m 85.598037,422.02104 c -39.74979,0 -71.96875,32.219 -71.96875,71.9687 0,39.7498 32.21896,71.9688 71.96875,71.9688 32.286283,0 59.629673,-21.2489 68.750003,-50.5313 l -23.03125,-2.6875 c -7.38885,17.9793 -25.07758,30.6563 -45.718753,30.6563 -27.28383,0 -49.40625,-22.1224 -49.40625,-49.4063 0,-27.2838 22.12242,-49.4062 49.40625,-49.4062 11.11547,0 21.369753,3.6783 29.625003,9.875 l 18.8125,-13.7188 c -12.78421,-11.6336 -29.78887,-18.7187 -48.437503,-18.7187 z"
       id="path3907-7"
       inkscape:connector-curvature="0" />
    <path
       style="fill:#000000;fill-opacity:1;stroke:none;display:inline"
       d="m 318.42393,422.01852 c -5.90098,0 -11.63724,0.7225 -17.125,2.0625 l 7.5625,21.43752 c 3.09165,-0.606 6.29349,-0.9375 9.5625,-0.9375 27.28383,0 49.40625,22.1224 49.40625,49.4062 0,27.2839 -22.12242,49.4063 -49.40625,49.4063 -19.15189,0 -35.7384,-10.9092 -43.9375,-26.8438 l 0,14.8125 -17.21875,0.5625 c 12.69865,20.4223 35.33615,34.0313 61.15625,34.0313 39.74979,0 71.96875,-32.219 71.96875,-71.9688 0,-39.7498 -32.21896,-71.96872 -71.96875,-71.96872 z m -36.875,10.18752 c -18.96313,11.3463 -32.27387,31.1505 -34.6875,54.2187 l 6.90625,21.375 20.34375,8.0313 c -3.25559,-6.5891 -5.09375,-13.9977 -5.09375,-21.8438 0,-16.4487 8.04155,-31.0196 20.40625,-40 l -7.875,-21.7812 z"
       id="path3907-2-6"
       inkscape:connector-curvature="0" />
    <path
       style="fill:#000000;fill-opacity:1;stroke:none;display:inline"
       d="m 147.98643,456.54974 -18.71875,12.6875 c 4.03068,7.0004 6.37482,15.0992 6.53125,23.7188 l 22.5625,2.625 c 0.0136,-0.5756 0.0312,-1.1399 0.0312,-1.7188 0,-13.664 -3.79481,-26.431 -10.40625,-37.3125 z"
       id="path3907-2-7-0"
       inkscape:connector-curvature="0" />
    <path
       style="fill:#000000;stroke:none"
       d="m 164.13026,161.46244 15.15229,45.45687 c 0,0 52.02286,0 52.02286,-2.02031 0,-2.0203 3.53553,-15.65736 3.53553,-15.65736 z"
       id="path4071"
       inkscape:connector-curvature="0" />
    <path
       style="fill:#000000;stroke:none"
       d="m 255.04399,176.10965 -9.84899,40.91118 8.33376,18.68782 -78.28682,8.5863 -39.39595,-22.72843 29.29443,-30.80965 7.57614,24.24366 62.12438,-3.03046 7.07107,-28.28427 -80.8122,-29.7995 18.43528,-6.31345 z"
       id="path4073"
       inkscape:connector-curvature="0"
       sodipodi:nodetypes="cccccccccccc" />
  </g>
</svg>
